{
.appVersion = "3525";
.formatVersion = 3;
customParameters = (
{
name = panose;
value = (
2,
11,
6,
9,
3,
8,
4,
2,
2,
4
);
},
{
name = unicodeRanges;
value = (
0,
1,
2,
3,
5,
7,
31,
33,
35,
38,
45,
60
);
},
{
name = fsType;
value = (
);
},
{
name = glyphOrder;
value = (
.notdef,
.null,
CR,
space,
exclam,
quotedbl,
numbersign,
dollar,
percent,
ampersand,
quotesingle,
parenleft,
parenright,
asterisk,
plus,
comma,
hyphen,
period,
slash,
zero,
one,
two,
three,
four,
five,
six,
seven,
eight,
nine,
colon,
semicolon,
less,
equal,
greater,
question,
at,
A,
B,
C,
D,
E,
F,
G,
H,
I,
J,
K,
L,
M,
N,
O,
P,
Q,
R,
S,
T,
U,
V,
W,
X,
Y,
Z,
bracketleft,
backslash,
bracketright,
asciicircum,
underscore,
grave,
a,
b,
c,
d,
e,
f,
g,
h,
i,
j,
k,
l,
m,
n,
o,
p,
q,
r,
s,
t,
u,
v,
w,
x,
y,
z,
braceleft,
bar,
braceright,
asciitilde,
Adieresis,
Aring,
Ccedilla,
Eacute,
Ntilde,
Odieresis,
Udieresis,
aacute,
agrave,
acircumflex,
adieresis,
atilde,
aring,
ccedilla,
eacute,
egrave,
ecircumflex,
edieresis,
iacute,
igrave,
icircumflex,
idieresis,
ntilde,
oacute,
ograve,
ocircumflex,
odieresis,
otilde,
uacute,
ugrave,
ucircumflex,
udieresis,
dagger,
degree,
cent,
sterling,
section,
bullet,
paragraph,
germandbls,
registered,
copyright,
trademark,
acute,
dieresis,
notequal,
AE,
Oslash,
infinity,
plusminus,
lessequal,
greaterequal,
yen,
mu,
partialdiff,
summation,
product,
pi,
integral,
ordfeminine,
ordmasculine,
Omega,
ae,
oslash,
questiondown,
exclamdown,
logicalnot,
radical,
florin,
approxequal,
Delta,
guillemotleft,
guillemotright,
ellipsis,
nonbreakingspace,
Agrave,
Atilde,
Otilde,
OE,
oe,
endash,
emdash,
quotedblleft,
quotedblright,
quoteleft,
quoteright,
divide,
lozenge,
ydieresis,
Ydieresis,
fraction,
currency,
guilsinglleft,
guilsinglright,
fi,
fl,
daggerdbl,
periodcentered,
quotesinglbase,
quotedblbase,
perthousand,
Acircumflex,
Ecircumflex,
Aacute,
Edieresis,
Egrave,
Iacute,
Icircumflex,
Idieresis,
Igrave,
Oacute,
Ocircumflex,
Ograve,
Uacute,
Ucircumflex,
Ugrave,
dotlessi,
circumflex,

glyphs = (
{
glyphname = .notdef;
lastChange = "2026-05-17 08:27:02 +0000";
layers = (
{
layerId = m01;
shapes = (
{
closed = 1;
nodes = (
(1128,1444,l),
(104,1444,l),
(104,-362,l),
(1128,-362,l)
);
},
{
closed = 1;
nodes = (
(1014,1329,l),
(1014,-248,l),
(219,-248,l),
(219,1329,l)
);
}
);
userData = {
assembly = "PUSHW[ ]	/* 5 values pushed */
4 276 0 6 276
PUSHB[ ]	/* 7 values pushed */
1 8 5 131 2 4 0
MDAP[1]	/* MoveDirectAbsPt */
MDRP[00100]	/* MoveDirectRelPt */
MDRP[10100]	/* MoveDirectRelPt */
MIRP[01100]	/* MoveIndirectRelPt */
IUP[1]	/* InterpolateUntPts */
SVTCA[0]	/* SetFreedomAndProjectionVectorToAxis */
SRP0[ ]	/* SetRefPoint0 */
MDRP[10100]	/* MoveDirectRelPt */
MIRP[01100]	/* MoveIndirectRelPt */
MDRP[10100]	/* MoveDirectRelPt */
MIRP[01100]	/* MoveIndirectRelPt */
IUP[0]	/* InterpolateUntPts */";
};
width = 1233;
},
{
layerId = "226C7162-7035-4DCE-8E35-7C345FD184FF";
shapes = (
{
closed = 1;
nodes = (
(1409,1444,l),
(385,1444,l),
(385,-362,l),
(1409,-362,l)
);
},
{
closed = 1;
nodes = (
(1295,1329,l),
(1295,-248,l),
(500,-248,l),
(500,1329,l)
);
}
);
userData = {
assembly = "NPUSHB[ ]	/* 12 values pushed */
4 219 0 6 219 1 8 5 79 2 4 0
MDAP[1]	/* MoveDirectAbsPt */
MDRP[00100]	/* MoveDirectRelPt */
MDRP[10100]	/* MoveDirectRelPt */
MIRP[01100]	/* MoveIndirectRelPt */
IUP[1]	/* InterpolateUntPts */
SVTCA[0]	/* SetFreedomAndProjectionVectorToAxis */
SRP0[ ]	/* SetRefPoint0 */
MDRP[10100]	/* MoveDirectRelPt */
MIRP[01100]	/* MoveIndirectRelPt */
MDRP[10100]	/* MoveDirectRelPt */
MIRP[01100]	/* MoveIndirectRelPt */
IUP[0]	/* InterpolateUntPts */";
};
width = 1233;
}
);
note = .notdef;
},
{
glyphname = exclam;
lastChange = "2026-05-17 08:27:02 +0000";
layers = (
{
layerId = m01;
shapes = (
{
closed = 1;
nodes = (
(537,481,l),
(698,481,l),
(719,838,l),
(719,1493,l),
(516,1493,l),
(516,838,l)
);
},
{
closed = 1;
nodes = (
(719,0,l),
(719,254,l),
(516,254,l),
(516,0,l)
);
}
);
userData = {
assembly = "NPUSHB[ ]	/* 15 values pushed */
3 135 6 134 0 136 8 4 3 7 1 3 6 0 10
SRP0[ ]	/* SetRefPoint0 */
MDRP[10100]	/* MoveDirectRelPt */
ALIGNRP[ ]	/* AlignRelativePt */
MIRP[01100]	/* MoveIndirectRelPt */
SHP[0]	/* ShiftPointByLastPoint */
IP[ ]	/* InterpolatePts */
IP[ ]	/* InterpolatePts */
IUP[1]	/* InterpolateUntPts */
SVTCA[0]	/* SetFreedomAndProjectionVectorToAxis */
MDAP[1]	/* MoveDirectAbsPt */
MIRP[00100]	/* MoveIndirectRelPt */
MIRP[11100]	/* MoveIndirectRelPt */
MIRP[01100]	/* MoveIndirectRelPt */
IUP[0]	/* InterpolateUntPts */";
};
width = 1233;
},
{
layerId = "226C7162-7035-4DCE-8E35-7C345FD184FF";
shapes = (
{
closed = 1;
nodes = (
(630,481,l),
(792,481,l),
(880,838,l),
(1009,1493,l),
(807,1493,l),
(680,838,l)
);
},
{
closed = 1;
nodes = (
(718,0,l),
(768,254,l),
(565,254,l),
(516,0,l)
);
}
);
userData = {
assembly = "NPUSHB[ ]	/* 46 values pushed */
4 3 2 5 2 5 5 0 5 1 5 0 0 5 8 5 9 6 9 7 5 6 9 58 3 84 6 83 0 81 8 4 6 8 7 3 3 5 1 5 0 1 6 2 9 10
SRP0[ ]	/* SetRefPoint0 */
MDRP[10100]	/* MoveDirectRelPt */
MIRP[00100]	/* MoveIndirectRelPt */
MIRP[10100]	/* MoveIndirectRelPt */
MDRP[00100]	/* MoveDirectRelPt */
MDRP[00000]	/* MoveDirectRelPt */
SRP2[ ]	/* SetRefPoint2 */
SLOOP[ ]	/* SetLoopVariable */
IP[ ]	/* InterpolatePts */
SRP1[ ]	/* SetRefPoint1 */
IP[ ]	/* InterpolatePts */
IUP[1]	/* InterpolateUntPts */
SVTCA[0]	/* SetFreedomAndProjectionVectorToAxis */
MDAP[1]	/* MoveDirectAbsPt */
MIRP[00100]	/* MoveIndirectRelPt */
MIRP[11100]	/* MoveIndirectRelPt */
MIRP[01100]	/* MoveIndirectRelPt */
IUP[0]	/* InterpolateUntPts */
MPPEM[ ]	/* MeasurePixelPerEm */
GTEQ[ ]	/* GreaterThanOrEqual */
IF[ ]	/* If */
SPVTL[1]	/* SetPVectorToLine */
SFVTCA[1]	/* SetFVectorToAxis */
MIRP[01101]	/* MoveIndirectRelPt */
SPVTL[1]	/* SetPVectorToLine */
SRP0[ ]	/* SetRefPoint0 */
SFVTCA[1]	/* SetFVectorToAxis */
MIRP[01101]	/* MoveIndirectRelPt */
SPVTL[1]	/* SetPVectorToLine */
SRP0[ ]	/* SetRefPoint0 */
SFVTCA[1]	/* SetFVectorToAxis */
MIRP[01101]	/* MoveIndirectRelPt */
SPVTL[1]	/* SetPVectorToLine */
SRP0[ ]	/* SetRefPoint0 */
SFVTCA[1]	/* SetFVectorToAxis */
MIRP[01101]	/* MoveIndirectRelPt */
SRP1[ ]	/* SetRefPoint1 */
SLOOP[ ]	/* SetLoopVariable */
IP[ ]	/* InterpolatePts */
EIF[ ]	/* EndIf */
CLEAR[ ]	/* ClearStack */";
};
width = 1233;
}
);
note = exclam;
unicode = 33;
},
{
glyphname = quotedbl;
lastChange = "2026-05-17 08:27:02 +0000";
layers = (
{
layerId = m01;
shapes = (
{
closed = 1;
nodes = (
(721,938,l),
(895,938,l),
(895,1493,l),
(721,1493,l)
);
},
{
closed = 1;
nodes = (
(338,938,l),
(512,938,l),
(512,1493,l),
(338,1493,l)
);
}
);
userData = {
assembly = "NPUSHB[ ]	/* 14 values pushed */
5 1 137 4 0 136 8 0 4 2 6 4 4 8
SRP0[ ]	/* SetRefPoint0 */
MDRP[10100]	/* MoveDirectRelPt */
MIRP[01100]	/* MoveIndirectRelPt */
MDRP[11100]	/* MoveDirectRelPt */
MIRP[01100]	/* MoveIndirectRelPt */
IUP[1]	/* InterpolateUntPts */
SVTCA[0]	/* SetFreedomAndProjectionVectorToAxis */
SRP0[ ]	/* SetRefPoint0 */
MIRP[10100]	/* MoveIndirectRelPt */
ALIGNRP[ ]	/* AlignRelativePt */
MIRP[01100]	/* MoveIndirectRelPt */
SHP[0]	/* ShiftPointByLastPoint */
IUP[0]	/* InterpolateUntPts */";
};
width = 1233;
},
{
layerId = "226C7162-7035-4DCE-8E35-7C345FD184FF";
shapes = (
{
closed = 1;
nodes = (
(1011,938,l),
(1185,938,l),
(1185,1493,l),
(1011,1493,l)
);
},
{
closed = 1;
nodes = (
(628,938,l),
(802,938,l),
(802,1493,l),
(628,1493,l)
);
}
);
userData = {
assembly = "NPUSHB[ ]	/* 14 values pushed */
5 1 85 4 0 81 8 0 6 2 6 6 4 8
SRP0[ ]	/* SetRefPoint0 */
MDRP[10100]	/* MoveDirectRelPt */
MIRP[01100]	/* MoveIndirectRelPt */
MDRP[11100]	/* MoveDirectRelPt */
MIRP[01100]	/* MoveIndirectRelPt */
IUP[1]	/* InterpolateUntPts */
SVTCA[0]	/* SetFreedomAndProjectionVectorToAxis */
SRP0[ ]	/* SetRefPoint0 */
MIRP[10100]	/* MoveIndirectRelPt */
ALIGNRP[ ]	/* AlignRelativePt */
MIRP[01100]	/* MoveIndirectRelPt */
SHP[0]	/* ShiftPointByLastPoint */
IUP[0]	/* InterpolateUntPts */";
};
width = 1233;
}
);
note = quotedbl;
unicode = 34;
},
{
glyphname = numbersign;
lastChange = "2026-05-17 08:27:02 +0000";
layers = (
{
layerId = m01;
shapes = (
{
closed = 1;
nodes = (
(420,1055,l),
(117,1055,l),
(117,901,l),
(383,901,l),
(299,567,l),
(2,567,l),
(2,414,l),
(260,414,l),
(156,0,l),
(315,0,l),
(420,414,l),
(666,414,l),
(561,0,l),
(721,0,l),
(825,414,l),
(1114,414,l),
(1114,567,l),
(864,567,l),
(948,901,l),
(1229,901,l),
(1229,1055,l),
(985,1055,l),
(1090,1470,l),
(930,1470,l),
(825,1055,l),
(580,1055,l),
(684,1470,l),
(524,1470,l)
);
},
{
closed = 1;
nodes = (
(459,567,l),
(543,901,l),
(788,901,l),
(705,567,l)
);
}
);
userData = {
assembly = "NPUSHB[ ]	/* 48 values pushed */
28 23 7 140 3 0 25 5 1 30 21 9 140 19 15 11 17 13 31 30 29 28 27 26 24 23 22 19 18 17 16 15 14 13 12 10 9 8 5 4 3 2 1 0 26 6 20 32
SRP0[ ]	/* SetRefPoint0 */
MDRP[10100]	/* MoveDirectRelPt */
MDRP[01100]	/* MoveDirectRelPt */
SLOOP[ ]	/* SetLoopVariable */
IP[ ]	/* InterpolatePts */
IUP[1]	/* InterpolateUntPts */
SVTCA[0]	/* SetFreedomAndProjectionVectorToAxis */
MDAP[1]	/* MoveDirectAbsPt */
ALIGNRP[ ]	/* AlignRelativePt */
MDRP[10100]	/* MoveDirectRelPt */
ALIGNRP[ ]	/* AlignRelativePt */
ALIGNRP[ ]	/* AlignRelativePt */
MIRP[11100]	/* MoveIndirectRelPt */
ALIGNRP[ ]	/* AlignRelativePt */
ALIGNRP[ ]	/* AlignRelativePt */
MDRP[10100]	/* MoveDirectRelPt */
ALIGNRP[ ]	/* AlignRelativePt */
ALIGNRP[ ]	/* AlignRelativePt */
MDRP[00100]	/* MoveDirectRelPt */
SHP[0]	/* ShiftPointByLastPoint */
MIRP[01100]	/* MoveIndirectRelPt */
SHP[0]	/* ShiftPointByLastPoint */
SHP[0]	/* ShiftPointByLastPoint */
IUP[0]	/* InterpolateUntPts */";
};
width = 1233;
},
{
layerId = "226C7162-7035-4DCE-8E35-7C345FD184FF";
shapes = (
{
closed = 1;
nodes = (
(537,567,l),
(620,901,l),
(866,901,l),
(782,567,l)
);
},
{
closed = 1;
nodes = (
(500,1055,l),
(242,1055,l),
(203,901,l),
(461,901,l),
(377,567,l),
(121,567,l),
(82,414,l),
(338,414,l),
(233,0,l),
(393,0,l),
(498,414,l),
(743,414,l),
(639,0,l),
(799,0,l),
(903,414,l),
(1161,414,l),
(1200,567,l),
(942,567,l),
(1026,901,l),
(1282,901,l),
(1321,1055,l),
(1065,1055,l),
(1169,1470,l),
(1010,1470,l),
(905,1055,l),
(659,1055,l),
(764,1470,l),
(604,1470,l)
);
}
);
userData = {
assembly = "NPUSHB[ ]	/* 53 values pushed */
27 11 0 88 29 9 5 23 19 15 88 25 13 2 7 4 21 17 31 30 29 28 27 26 25 23 22 21 20 19 18 17 16 15 14 13 12 11 9 8 7 6 5 4 3 2 1 0 30 32 10 24 32
SRP0[ ]	/* SetRefPoint0 */
MDRP[10100]	/* MoveDirectRelPt */
MDRP[01100]	/* MoveDirectRelPt */
SRP1[ ]	/* SetRefPoint1 */
SLOOP[ ]	/* SetLoopVariable */
IP[ ]	/* InterpolatePts */
IUP[1]	/* InterpolateUntPts */
SVTCA[0]	/* SetFreedomAndProjectionVectorToAxis */
MDAP[1]	/* MoveDirectAbsPt */
ALIGNRP[ ]	/* AlignRelativePt */
MDRP[00100]	/* MoveDirectRelPt */
SHP[0]	/* ShiftPointByLastPoint */
MDRP[10100]	/* MoveDirectRelPt */
ALIGNRP[ ]	/* AlignRelativePt */
ALIGNRP[ ]	/* AlignRelativePt */
MIRP[01100]	/* MoveIndirectRelPt */
SHP[0]	/* ShiftPointByLastPoint */
SHP[0]	/* ShiftPointByLastPoint */
MDRP[10100]	/* MoveDirectRelPt */
ALIGNRP[ ]	/* AlignRelativePt */
ALIGNRP[ ]	/* AlignRelativePt */
MIRP[01100]	/* MoveIndirectRelPt */
SHP[0]	/* ShiftPointByLastPoint */
SHP[0]	/* ShiftPointByLastPoint */
IUP[0]	/* InterpolateUntPts */";
};
width = 1233;
}
);
note = numbersign;
unicode = 35;
},
{
glyphname = dollar;
lastChange = "2026-05-17 08:27:02 +0000";
layers = (
{
layerId = m01;
shapes = (
{
closed = 1;
nodes = (
(926,458,o),
(926,365,qs),
(926,265,o),
(802,149,o),
(692,146,q),
(692,580,l),
(814,561,o)
);
},
{
closed = 1;
nodes = (
(371,887,o),
(371,973,qs),
(371,1067,o),
(488,1179,o),
(592,1183,q),
(592,770,l),
(480,787,o)
);
},
{
closed = 1;
nodes = (
(881,11,o),
(1114,217,o),
(1114,371,qs),
(1114,525,o),
(898,719,o),
(692,750,q),
(692,1181,l),
(772,1177,o),
(933,1130,o),
(1018,1087,q),
(1018,1260,l),
(934,1286,o),
(772,1316,o),
(693,1321,q),
(692,1556,l),
(592,1556,l),
(592,1321,l),
(401,1307,o),
(190,1120,o),
(190,963,qs),
(190,813,o),
(392,631,o),
(592,600,q),
(592,142,l),
(493,144,o),
(290,210,o),
(190,272,q),
(190,92,l),
(288,51,o),
(489,5,o),
(591,0,q),
(592,-301,l),
(692,-301,l),
(693,2,l)
);
}
);
userData = {
assembly = "NPUSHB[ ]	/* 57 values pushed */
8 40 36 0 7 41 24 4 37 20 47 16 23 19 1 37 139 36 142 31 40 143 30 20 139 19 142 1 143 14 33 30 16 4 6 36 8 44 5 0 11 6 27 19 5 40 32 14 3 0 7 30 23 15 3 7 48
SRP0[ ]	/* SetRefPoint0 */
MDRP[10100]	/* MoveDirectRelPt */
SLOOP[ ]	/* SetLoopVariable */
ALIGNRP[ ]	/* AlignRelativePt */
MIRP[01100]	/* MoveIndirectRelPt */
SLOOP[ ]	/* SetLoopVariable */
SHP[0]	/* ShiftPointByLastPoint */
MIRP[11100]	/* MoveIndirectRelPt */
ALIGNRP[ ]	/* AlignRelativePt */
MIRP[01100]	/* MoveIndirectRelPt */
SRP0[ ]	/* SetRefPoint0 */
MIRP[11100]	/* MoveIndirectRelPt */
MIRP[00100]	/* MoveIndirectRelPt */
MIRP[01110]	/* MoveIndirectRelPt */
IUP[1]	/* InterpolateUntPts */
SVTCA[0]	/* SetFreedomAndProjectionVectorToAxis */
MDAP[1]	/* MoveDirectAbsPt */
MDRP[00110]	/* MoveDirectRelPt */
SHP[0]	/* ShiftPointByLastPoint */
MDRP[00100]	/* MoveDirectRelPt */
MIRP[01110]	/* MoveIndirectRelPt */
MIRP[10110]	/* MoveIndirectRelPt */
MIRP[01110]	/* MoveIndirectRelPt */
SRP0[ ]	/* SetRefPoint0 */
MIRP[01110]	/* MoveIndirectRelPt */
MDRP[00110]	/* MoveDirectRelPt */
MIRP[10110]	/* MoveIndirectRelPt */
MIRP[01110]	/* MoveIndirectRelPt */
SRP1[ ]	/* SetRefPoint1 */
SRP2[ ]	/* SetRefPoint2 */
IP[ ]	/* InterpolatePts */
SRP1[ ]	/* SetRefPoint1 */
IP[ ]	/* InterpolatePts */
SRP1[ ]	/* SetRefPoint1 */
SRP2[ ]	/* SetRefPoint2 */
SLOOP[ ]	/* SetLoopVariable */
IP[ ]	/* InterpolatePts */
SRP1[ ]	/* SetRefPoint1 */
SRP2[ ]	/* SetRefPoint2 */
IP[ ]	/* InterpolatePts */
IUP[0]	/* InterpolateUntPts */";
};
width = 1233;
},
{
layerId = "226C7162-7035-4DCE-8E35-7C345FD184FF";
shapes = (
{
closed = 1;
nodes = (
(1011,484,o),
(1011,406,qs),
(1011,290,o),
(852,145,o),
(723,145,q),
(809,588,l),
(917,569,o)
);
},
{
closed = 1;
nodes = (
(553,871,o),
(553,940,qs),
(553,1039,o),
(704,1176,o),
(823,1184,q),
(743,774,l),
(637,797,o)
);
},
{
closed = 1;
nodes = (
(704,2,ls),
(920,2,o),
(1194,242,o),
(1194,426,qs),
(1194,556,o),
(1016,722,o),
(842,756,q),
(923,1182,l),
(1012,1174,o),
(1166,1127,o),
(1231,1087,q),
(1263,1260,l),
(1191,1284,o),
(1035,1315,o),
(950,1321,q),
(997,1556,l),
(897,1556,l),
(849,1321,l),
(640,1314,o),
(375,1084,o),
(375,911,qs),
(375,786,o),
(534,641,o),
(710,606,q),
(620,141,l),
(516,146,o),
(327,212,o),
(246,272,q),
(211,92,l),
(306,49,o),
(498,3,o),
(593,0,q),
(534,-301,l),
(635,-301,l),
(694,2,l)
);
}
);
userData = {
assembly = "NPUSHB[ ]	/* 64 values pushed */
40 8 0 7 41 24 4 37 20 47 48 16 23 19 1 37 87 36 90 31 8 88 30 20 87 19 90 1 88 14 33 30 16 15 27 48 32 31 14 8 7 1 0 8 23 24 30 33 40 41 47 16 8 11 4 37 36 4 7 44 11 7 27 49
SRP0[ ]	/* SetRefPoint0 */
MDRP[10100]	/* MoveDirectRelPt */
MIRP[01100]	/* MoveIndirectRelPt */
MDRP[10100]	/* MoveDirectRelPt */
MIRP[01100]	/* MoveIndirectRelPt */
MDRP[00000]	/* MoveDirectRelPt */
MDRP[00000]	/* MoveDirectRelPt */
SRP1[ ]	/* SetRefPoint1 */
SRP2[ ]	/* SetRefPoint2 */
SLOOP[ ]	/* SetLoopVariable */
IP[ ]	/* InterpolatePts */
SLOOP[ ]	/* SetLoopVariable */
IP[ ]	/* InterpolatePts */
SRP1[ ]	/* SetRefPoint1 */
IP[ ]	/* InterpolatePts */
IUP[1]	/* InterpolateUntPts */
SVTCA[0]	/* SetFreedomAndProjectionVectorToAxis */
MDAP[1]	/* MoveDirectAbsPt */
MDRP[00100]	/* MoveDirectRelPt */
SHP[0]	/* ShiftPointByLastPoint */
MDRP[00100]	/* MoveDirectRelPt */
MIRP[01100]	/* MoveIndirectRelPt */
MIRP[10100]	/* MoveIndirectRelPt */
MIRP[01100]	/* MoveIndirectRelPt */
SRP0[ ]	/* SetRefPoint0 */
MIRP[01110]	/* MoveIndirectRelPt */
MDRP[00110]	/* MoveDirectRelPt */
MIRP[10110]	/* MoveIndirectRelPt */
MIRP[01110]	/* MoveIndirectRelPt */
SRP1[ ]	/* SetRefPoint1 */
SRP2[ ]	/* SetRefPoint2 */
IP[ ]	/* InterpolatePts */
SRP1[ ]	/* SetRefPoint1 */
IP[ ]	/* InterpolatePts */
IP[ ]	/* InterpolatePts */
SRP1[ ]	/* SetRefPoint1 */
SRP2[ ]	/* SetRefPoint2 */
SLOOP[ ]	/* SetLoopVariable */
IP[ ]	/* InterpolatePts */
SRP1[ ]	/* SetRefPoint1 */
IP[ ]	/* InterpolatePts */
IUP[0]	/* InterpolateUntPts */";
};
width = 1233;
}
);
note = dollar;
unicode = 36;
},
{
glyphname = percent;
lastChange = "2026-05-17 08:27:02 +0000";
layers = (
{
layerId = m01;
shapes = (
{
closed = 1;
nodes = (
(801,504,o),
(879,504,qs),
(955,504,o),
(1063,396,o),
(1063,319,qs),
(1063,242,o),
(956,135,o),
(879,135,qs),
(801,135,o),
(696,241,o),
(696,319,qs),
(696,398,o)
);
},
{
closed = 1;
nodes = (
(743,0,o),
(879,0,qs),
(1014,0,o),
(1200,186,o),
(1200,319,qs),
(1200,382,o),
(1150,498,o),
(1104,545,qs),
(1058,591,o),
(943,639,o),
(879,639,qs),
(745,639,o),
(561,454,o),
(561,319,qs),
(561,183,o)
);
},
{
closed = 1;
nodes = (
(1128,979,l),
(86,561,l),
(121,465,l),
(1169,883,l)
);
},
{
closed = 1;
nodes = (
(275,1296,o),
(352,1296,qs),
(429,1296,o),
(537,1189,o),
(537,1112,qs),
(537,1035,o),
(429,928,o),
(352,928,qs),
(273,928,o),
(168,1033,o),
(168,1112,qs),
(168,1190,o)
);
},
{
closed = 1;
nodes = (
(217,793,o),
(352,793,qs),
(486,793,o),
(672,978,o),
(672,1112,qs),
(672,1177,o),
(623,1294,o),
(578,1339,qs),
(533,1384,o),
(416,1432,o),
(352,1432,qs),
(217,1432,o),
(33,1247,o),
(33,1112,qs),
(33,977,o)
);
}
);
userData = {
assembly = "NPUSHB[ ]	/* 47 values pushed */
30 55 29 40 34 28 15 27 3 9 146 15 34 146 55 147 40 146 46 145 15 147 3 146 24 28 27 43 31 30 29 6 10 21 11 0 10 12 37 10 52 11 31 10 43 12 58
SRP0[ ]	/* SetRefPoint0 */
MDRP[00100]	/* MoveDirectRelPt */
MDRP[10100]	/* MoveDirectRelPt */
MIRP[01100]	/* MoveIndirectRelPt */
MIRP[11100]	/* MoveIndirectRelPt */
MIRP[01100]	/* MoveIndirectRelPt */
SRP0[ ]	/* SetRefPoint0 */
MIRP[01110]	/* MoveIndirectRelPt */
MIRP[11110]	/* MoveIndirectRelPt */
MIRP[01110]	/* MoveIndirectRelPt */
IP[ ]	/* InterpolatePts */
IP[ ]	/* InterpolatePts */
SRP1[ ]	/* SetRefPoint1 */
SRP2[ ]	/* SetRefPoint2 */
IP[ ]	/* InterpolatePts */
IP[ ]	/* InterpolatePts */
IUP[1]	/* InterpolateUntPts */
SVTCA[0]	/* SetFreedomAndProjectionVectorToAxis */
MDAP[1]	/* MoveDirectAbsPt */
MIRP[01110]	/* MoveIndirectRelPt */
MIRP[01110]	/* MoveIndirectRelPt */
MIRP[10110]	/* MoveIndirectRelPt */
MIRP[01110]	/* MoveIndirectRelPt */
MIRP[11110]	/* MoveIndirectRelPt */
MIRP[01110]	/* MoveIndirectRelPt */
SRP0[ ]	/* SetRefPoint0 */
MIRP[01110]	/* MoveIndirectRelPt */
SRP1[ ]	/* SetRefPoint1 */
IP[ ]	/* InterpolatePts */
SRP1[ ]	/* SetRefPoint1 */
IP[ ]	/* InterpolatePts */
SRP1[ ]	/* SetRefPoint1 */
SRP2[ ]	/* SetRefPoint2 */
IP[ ]	/* InterpolatePts */
SRP2[ ]	/* SetRefPoint2 */
IP[ ]	/* InterpolatePts */
IUP[0]	/* InterpolateUntPts */";
};
width = 1233;
},
{
layerId = "226C7162-7035-4DCE-8E35-7C345FD184FF";
shapes = (
{
closed = 1;
nodes = (
(1024,504,o),
(1102,504,qs),
(1178,504,o),
(1286,396,o),
(1286,319,qs),
(1286,242,o),
(1179,135,o),
(1102,135,qs),
(1024,135,o),
(919,241,o),
(919,319,qs),
(919,398,o)
);
},
{
closed = 1;
nodes = (
(966,0,o),
(1102,0,qs),
(1237,0,o),
(1423,186,o),
(1423,319,qs),
(1423,382,o),
(1373,498,o),
(1327,545,qs),
(1281,591,o),
(1166,639,o),
(1102,639,qs),
(968,639,o),
(784,454,o),
(784,319,qs),
(784,183,o)
);
},
{
closed = 1;
nodes = (
(1351,979,l),
(309,561,l),
(344,465,l),
(1392,883,l)
);
},
{
closed = 1;
nodes = (
(498,1296,o),
(575,1296,qs),
(652,1296,o),
(760,1189,o),
(760,1112,qs),
(760,1035,o),
(652,928,o),
(575,928,qs),
(496,928,o),
(391,1033,o),
(391,1112,qs),
(391,1190,o)
);
},
{
closed = 1;
nodes = (
(440,793,o),
(575,793,qs),
(709,793,o),
(895,978,o),
(895,1112,qs),
(895,1177,o),
(846,1294,o),
(801,1339,qs),
(756,1384,o),
(639,1432,o),
(575,1432,qs),
(440,1432,o),
(256,1247,o),
(256,1112,qs),
(256,977,o)
);
}
);
userData = {
assembly = "NPUSHB[ ]	/* 47 values pushed */
30 55 29 40 34 28 15 27 3 9 93 15 34 93 55 94 40 93 46 92 15 94 3 93 24 28 27 43 31 30 29 6 9 21 10 0 9 12 37 9 52 10 31 9 43 12 58
SRP0[ ]	/* SetRefPoint0 */
MDRP[00100]	/* MoveDirectRelPt */
MDRP[10100]	/* MoveDirectRelPt */
MIRP[01100]	/* MoveIndirectRelPt */
MIRP[11100]	/* MoveIndirectRelPt */
MIRP[01100]	/* MoveIndirectRelPt */
SRP0[ ]	/* SetRefPoint0 */
MIRP[01110]	/* MoveIndirectRelPt */
MIRP[11110]	/* MoveIndirectRelPt */
MIRP[01110]	/* MoveIndirectRelPt */
IP[ ]	/* InterpolatePts */
IP[ ]	/* InterpolatePts */
SRP1[ ]	/* SetRefPoint1 */
SRP2[ ]	/* SetRefPoint2 */
IP[ ]	/* InterpolatePts */
IP[ ]	/* InterpolatePts */
IUP[1]	/* InterpolateUntPts */
SVTCA[0]	/* SetFreedomAndProjectionVectorToAxis */
MDAP[1]	/* MoveDirectAbsPt */
MIRP[01110]	/* MoveIndirectRelPt */
MIRP[01110]	/* MoveIndirectRelPt */
MIRP[10110]	/* MoveIndirectRelPt */
MIRP[01110]	/* MoveIndirectRelPt */
MIRP[11110]	/* MoveIndirectRelPt */
MIRP[01110]	/* MoveIndirectRelPt */
SRP0[ ]	/* SetRefPoint0 */
MIRP[01110]	/* MoveIndirectRelPt */
SRP1[ ]	/* SetRefPoint1 */
IP[ ]	/* InterpolatePts */
SRP1[ ]	/* SetRefPoint1 */
IP[ ]	/* InterpolatePts */
SRP1[ ]	/* SetRefPoint1 */
SRP2[ ]	/* SetRefPoint2 */
IP[ ]	/* InterpolatePts */
SRP2[ ]	/* SetRefPoint2 */
IP[ ]	/* InterpolatePts */
IUP[0]	/* InterpolateUntPts */";
};
width = 1233;
}
);
note = percent;
unicode = 37;
},
{
glyphname = ampersand;
lastChange = "2026-05-17 08:27:02 +0000";
layers = (
{
layerId = m01;
shapes = (
{
closed = 1;
nodes = (
(412,1139,o),
(412,1198,qs),
(412,1275,o),
(524,1366,o),
(621,1366,qs),
(690,1366,o),
(815,1329,o),
(874,1290,q),
(874,1473,l),
(804,1496,o),
(673,1520,o),
(608,1520,qs),
(435,1520,o),
(236,1346,o),
(236,1196,qs),
(236,1125,o),
(284,987,o),
(334,915,q),
(195,815,o),
(57,581,o),
(57,444,qs),
(57,240,o),
(339,-29,o),
(555,-29,qs),
(661,-29,o),
(847,39,o),
(930,109,q),
(1008,0,l),
(1221,0,l),
(1051,229,l),
(1126,317,o),
(1200,560,o),
(1200,721,qs),
(1200,760,l),
(1036,760,l),
(1037,753,ls),
(1040,683,o),
(1040,651,qs),
(1040,547,o),
(1002,397,o),
(963,348,q),
(547,907,ls),
(470,1010,o)
);
},
{
closed = 1;
nodes = (
(828,210,o),
(793,187,o),
(766,172,qs),
(722,149,o),
(630,125,o),
(588,125,qs),
(433,125,o),
(233,324,o),
(233,475,qs),
(233,567,o),
(324,730,o),
(416,803,q),
(844,223,l)
);
}
);
userData = {
assembly = "NPUSHB[ ]	/* 98 values pushed */
17 16 2 18 15 23 12 13 12 14 23 13 13 12 45 44 2 46 43 23 0 1 0 50 51 52 53 54 5 49 55 23 1 1 0 66 55 12 9 6 1 5 7 15 49 13 24 0 43 3 34 7 49 151 18 34 33 37 151 30 150 18 153 7 13 0 40 1 7 6 3 33 12 8 4 55 43 33 24 40 27 15 33 4 19 8 40 18 33 27 8 13 16 27 46 18 21 56
SRP0[ ]	/* SetRefPoint0 */
MDRP[11100]	/* MoveDirectRelPt */
MIRP[01100]	/* MoveIndirectRelPt */
MDRP[00100]	/* MoveDirectRelPt */
MIRP[11100]	/* MoveIndirectRelPt */
MDRP[00100]	/* MoveDirectRelPt */
SRP0[ ]	/* SetRefPoint0 */
MDRP[00110]	/* MoveDirectRelPt */
MIRP[01110]	/* MoveIndirectRelPt */
SRP0[ ]	/* SetRefPoint0 */
MIRP[01110]	/* MoveIndirectRelPt */
SRP1[ ]	/* SetRefPoint1 */
IP[ ]	/* InterpolatePts */
SRP1[ ]	/* SetRefPoint1 */
SRP2[ ]	/* SetRefPoint2 */
IP[ ]	/* InterpolatePts */
SRP1[ ]	/* SetRefPoint1 */
IP[ ]	/* InterpolatePts */
IP[ ]	/* InterpolatePts */
SRP1[ ]	/* SetRefPoint1 */
SRP2[ ]	/* SetRefPoint2 */
IP[ ]	/* InterpolatePts */
SRP2[ ]	/* SetRefPoint2 */
SLOOP[ ]	/* SetLoopVariable */
IP[ ]	/* InterpolatePts */
SRP1[ ]	/* SetRefPoint1 */
IP[ ]	/* InterpolatePts */
IUP[1]	/* InterpolateUntPts */
SVTCA[0]	/* SetFreedomAndProjectionVectorToAxis */
MDAP[1]	/* MoveDirectAbsPt */
MDRP[00110]	/* MoveDirectRelPt */
MIRP[00100]	/* MoveIndirectRelPt */
MIRP[10110]	/* MoveIndirectRelPt */
MIRP[01110]	/* MoveIndirectRelPt */
MDRP[10110]	/* MoveDirectRelPt */
MDRP[01110]	/* MoveDirectRelPt */
SRP0[ ]	/* SetRefPoint0 */
MIRP[01110]	/* MoveIndirectRelPt */
SRP1[ ]	/* SetRefPoint1 */
SRP2[ ]	/* SetRefPoint2 */
SLOOP[ ]	/* SetLoopVariable */
IP[ ]	/* InterpolatePts */
SRP1[ ]	/* SetRefPoint1 */
SRP2[ ]	/* SetRefPoint2 */
IP[ ]	/* InterpolatePts */
SRP1[ ]	/* SetRefPoint1 */
SLOOP[ ]	/* SetLoopVariable */
IP[ ]	/* InterpolatePts */
IUP[0]	/* InterpolateUntPts */
MPPEM[ ]	/* MeasurePixelPerEm */
GTEQ[ ]	/* GreaterThanOrEqual */
IF[ ]	/* If */
SPVTL[1]	/* SetPVectorToLine */
SRP0[ ]	/* SetRefPoint0 */
SFVTPV[ ]	/* SetFVectorToPVector */
MIRP[01101]	/* MoveIndirectRelPt */
SRP1[ ]	/* SetRefPoint1 */
SLOOP[ ]	/* SetLoopVariable */
IP[ ]	/* InterpolatePts */
SPVTL[1]	/* SetPVectorToLine */
SRP0[ ]	/* SetRefPoint0 */
SFVTPV[ ]	/* SetFVectorToPVector */
MIRP[01101]	/* MoveIndirectRelPt */
SRP1[ ]	/* SetRefPoint1 */
SLOOP[ ]	/* SetLoopVariable */
IP[ ]	/* InterpolatePts */
SPVTL[1]	/* SetPVectorToLine */
SRP0[ ]	/* SetRefPoint0 */
SFVTCA[1]	/* SetFVectorToAxis */
MIRP[01101]	/* MoveIndirectRelPt */
SPVTL[1]	/* SetPVectorToLine */
SRP0[ ]	/* SetRefPoint0 */
SFVTCA[1]	/* SetFVectorToAxis */
MIRP[01101]	/* MoveIndirectRelPt */
SRP1[ ]	/* SetRefPoint1 */
SLOOP[ ]	/* SetLoopVariable */
IP[ ]	/* InterpolatePts */
EIF[ ]	/* EndIf */
CLEAR[ ]	/* ClearStack */";
};
width = 1233;
},
{
layerId = "226C7162-7035-4DCE-8E35-7C345FD184FF";
shapes = (
{
closed = 1;
nodes = (
(640,1110,o),
(640,1157,qs),
(640,1251,o),
(777,1366,o),
(890,1366,qs),
(966,1366,o),
(1088,1328,o),
(1130,1290,q),
(1165,1473,l),
(1108,1496,o),
(984,1520,o),
(919,1520,qs),
(712,1520,o),
(466,1309,o),
(466,1135,qs),
(466,1080,o),
(495,972,o),
(524,920,q),
(336,817,o),
(137,528,o),
(137,360,qs),
(137,185,o),
(372,-29,o),
(567,-29,qs),
(671,-29,o),
(871,42,o),
(966,113,q),
(1025,0,l),
(1224,0,l),
(1101,221,l),
(1208,323,o),
(1330,592,o),
(1347,760,q),
(1179,760,l),
(1167,621,o),
(1093,416,o),
(1031,350,q),
(724,907,ls),
(684,979,o)
);
},
{
closed = 1;
nodes = (
(827,186,o),
(681,129,o),
(616,129,qs),
(487,129,o),
(315,289,o),
(315,408,qs),
(315,525,o),
(454,722,o),
(589,795,q),
(898,240,l)
);
}
);
userData = {
assembly = "NPUSHB[ ]	/* 97 values pushed */
41 1 42 40 19 20 19 39 48 39 20 20 19 12 1 13 11 4 8 9 8 10 4 9 9 8 47 1 46 48 4 1 1 0 40 1 41 39 4 0 1 0 58 48 39 8 4 1 5 0 20 30 11 9 45 99 14 30 87 29 98 33 99 26 97 14 101 9 30 10 0 3 36 29 9 5 4 1 8 11 48 4 29 20 39 36 4 23 29 4 4 5 42 4 23 17 49
SRP0[ ]	/* SetRefPoint0 */
MDRP[10100]	/* MoveDirectRelPt */
MDRP[00100]	/* MoveDirectRelPt */
MIRP[01100]	/* MoveIndirectRelPt */
MDRP[10100]	/* MoveDirectRelPt */
MIRP[11100]	/* MoveIndirectRelPt */
MDRP[00100]	/* MoveDirectRelPt */
SRP0[ ]	/* SetRefPoint0 */
MIRP[01110]	/* MoveIndirectRelPt */
IP[ ]	/* InterpolatePts */
IP[ ]	/* InterpolatePts */
SRP1[ ]	/* SetRefPoint1 */
SLOOP[ ]	/* SetLoopVariable */
IP[ ]	/* InterpolatePts */
SRP1[ ]	/* SetRefPoint1 */
SRP2[ ]	/* SetRefPoint2 */
IP[ ]	/* InterpolatePts */
SRP1[ ]	/* SetRefPoint1 */
SRP2[ ]	/* SetRefPoint2 */
SLOOP[ ]	/* SetLoopVariable */
IP[ ]	/* InterpolatePts */
IUP[1]	/* InterpolateUntPts */
SVTCA[0]	/* SetFreedomAndProjectionVectorToAxis */
MDAP[1]	/* MoveDirectAbsPt */
MIRP[00100]	/* MoveIndirectRelPt */
MIRP[10110]	/* MoveIndirectRelPt */
MIRP[01110]	/* MoveIndirectRelPt */
MIRP[10110]	/* MoveIndirectRelPt */
MIRP[01110]	/* MoveIndirectRelPt */
SRP0[ ]	/* SetRefPoint0 */
MIRP[01110]	/* MoveIndirectRelPt */
SRP1[ ]	/* SetRefPoint1 */
IP[ ]	/* InterpolatePts */
SRP1[ ]	/* SetRefPoint1 */
IP[ ]	/* InterpolatePts */
IP[ ]	/* InterpolatePts */
SLOOP[ ]	/* SetLoopVariable */
IP[ ]	/* InterpolatePts */
IUP[0]	/* InterpolateUntPts */
MPPEM[ ]	/* MeasurePixelPerEm */
GTEQ[ ]	/* GreaterThanOrEqual */
IF[ ]	/* If */
SPVTL[1]	/* SetPVectorToLine */
SRP0[ ]	/* SetRefPoint0 */
SFVTPV[ ]	/* SetFVectorToPVector */
MIRP[01101]	/* MoveIndirectRelPt */
SRP1[ ]	/* SetRefPoint1 */
SLOOP[ ]	/* SetLoopVariable */
IP[ ]	/* InterpolatePts */
SPVTL[1]	/* SetPVectorToLine */
SRP0[ ]	/* SetRefPoint0 */
SFVTPV[ ]	/* SetFVectorToPVector */
MIRP[01101]	/* MoveIndirectRelPt */
SRP1[ ]	/* SetRefPoint1 */
SLOOP[ ]	/* SetLoopVariable */
IP[ ]	/* InterpolatePts */
SPVTL[1]	/* SetPVectorToLine */
SRP0[ ]	/* SetRefPoint0 */
SFVTCA[1]	/* SetFVectorToAxis */
MIRP[01101]	/* MoveIndirectRelPt */
SPVTL[1]	/* SetPVectorToLine */
SRP0[ ]	/* SetRefPoint0 */
SFVTPV[ ]	/* SetFVectorToPVector */
MIRP[01101]	/* MoveIndirectRelPt */
SRP1[ ]	/* SetRefPoint1 */
SLOOP[ ]	/* SetLoopVariable */
IP[ ]	/* InterpolatePts */
SPVTL[1]	/* SetPVectorToLine */
SRP0[ ]	/* SetRefPoint0 */
SFVTL[0]	/* SetFVectorToLine */
MDRP[01001]	/* MoveDirectRelPt */
SPVTL[1]	/* SetPVectorToLine */
SRP0[ ]	/* SetRefPoint0 */
SFVTCA[0]	/* SetFVectorToAxis */
MDRP[01001]	/* MoveDirectRelPt */
SRP1[ ]	/* SetRefPoint1 */
SLOOP[ ]	/* SetLoopVariable */
IP[ ]	/* InterpolatePts */
EIF[ ]	/* EndIf */
CLEAR[ ]	/* ClearStack */";
};
width = 1233;
}
);
note = ampersand;
unicode = 38;
},
{
glyphname = quotesingle;
lastChange = "2026-05-17 08:27:02 +0000";
layers = (
{
layerId = m01;
shapes = (
{
closed = 1;
nodes = (
(529,938,l),
(703,938,l),
(703,1493,l),
(529,1493,l)
);
}
);
userData = {
assembly = "PUSHB[ ]	/* 8 values pushed */
1 0 136 4 0 4 2 4
SRP0[ ]	/* SetRefPoint0 */
MDRP[10100]	/* MoveDirectRelPt */
MIRP[01100]	/* MoveIndirectRelPt */
IUP[1]	/* InterpolateUntPts */
SVTCA[0]	/* SetFreedomAndProjectionVectorToAxis */
SRP0[ ]	/* SetRefPoint0 */
MIRP[10100]	/* MoveIndirectRelPt */
MDRP[00100]	/* MoveDirectRelPt */
IUP[0]	/* InterpolateUntPts */";
};
width = 1233;
},
{
layerId = "226C7162-7035-4DCE-8E35-7C345FD184FF";
shapes = (
{
closed = 1;
nodes = (
(819,938,l),
(993,938,l),
(993,1493,l),
(819,1493,l)
);
}
);
userData = {
assembly = "PUSHB[ ]	/* 8 values pushed */
1 0 81 4 0 6 2 4
SRP0[ ]	/* SetRefPoint0 */
MDRP[10100]	/* MoveDirectRelPt */
MIRP[01100]	/* MoveIndirectRelPt */
IUP[1]	/* InterpolateUntPts */
SVTCA[0]	/* SetFreedomAndProjectionVectorToAxis */
SRP0[ ]	/* SetRefPoint0 */
MIRP[10100]	/* MoveIndirectRelPt */
MDRP[00100]	/* MoveDirectRelPt */
IUP[0]	/* InterpolateUntPts */";
};
width = 1233;
}
);
note = quotesingle;
unicode = 39;
},
{
glyphname = parenleft;
lastChange = "2026-05-17 08:27:02 +0000";
layers = (
{
layerId = m01;
shapes = (
{
closed = 1;
nodes = (
(574,1318,o),
(426,866,o),
(426,643,qs),
(426,419,o),
(574,-32,o),
(725,-270,q),
(885,-270,l),
(752,-40,o),
(621,414,o),
(621,643,qs),
(621,873,o),
(752,1326,o),
(885,1554,q),
(725,1554,l)
);
}
);
userData = {
assembly = "NPUSHB[ ]	/* 15 values pushed */
6 156 0 155 14 13 7 0 3 18 6 0 24 10 14
SRP0[ ]	/* SetRefPoint0 */
MDRP[10100]	/* MoveDirectRelPt */
MIRP[01100]	/* MoveIndirectRelPt */
SHP[0]	/* ShiftPointByLastPoint */
MIRP[01100]	/* MoveIndirectRelPt */
SRP1[ ]	/* SetRefPoint1 */
IP[ ]	/* InterpolatePts */
IP[ ]	/* InterpolatePts */
IUP[1]	/* InterpolateUntPts */
SVTCA[0]	/* SetFreedomAndProjectionVectorToAxis */
SRP0[ ]	/* SetRefPoint0 */
MIRP[11100]	/* MoveIndirectRelPt */
MIRP[01100]	/* MoveIndirectRelPt */
IUP[0]	/* InterpolateUntPts */";
};
width = 1233;
},
{
layerId = "226C7162-7035-4DCE-8E35-7C345FD184FF";
shapes = (
{
closed = 1;
nodes = (
(784,1277,o),
(526,678,o),
(526,375,qs),
(526,233,o),
(600,-81,o),
(679,-270,q),
(839,-270,l),
(779,-108,o),
(720,194,o),
(720,340,qs),
(720,642,o),
(959,1253,o),
(1195,1554,q),
(1036,1554,l)
);
}
);
userData = {
assembly = "NPUSHB[ ]	/* 14 values pushed */
6 104 0 103 14 7 10 6 13 0 3 11 10 14
SRP0[ ]	/* SetRefPoint0 */
MDRP[10100]	/* MoveDirectRelPt */
MIRP[11100]	/* MoveIndirectRelPt */
MDRP[00100]	/* MoveDirectRelPt */
IP[ ]	/* InterpolatePts */
IP[ ]	/* InterpolatePts */
SRP2[ ]	/* SetRefPoint2 */
IP[ ]	/* InterpolatePts */
IUP[1]	/* InterpolateUntPts */
SVTCA[0]	/* SetFreedomAndProjectionVectorToAxis */
SRP0[ ]	/* SetRefPoint0 */
MIRP[11100]	/* MoveIndirectRelPt */
MIRP[01100]	/* MoveIndirectRelPt */
IUP[0]	/* InterpolateUntPts */";
};
width = 1233;
}
);
note = parenleft;
unicode = 40;
},
{
glyphname = parenright;
lastChange = "2026-05-17 08:27:02 +0000";
layers = (
{
layerId = m01;
shapes = (
{
closed = 1;
nodes = (
(612,871,o),
(612,643,qs),
(612,416,o),
(481,-38,o),
(348,-270,q),
(508,-270,l),
(659,-34,o),
(807,418,o),
(807,643,qs),
(807,866,o),
(659,1318,o),
(508,1554,q),
(348,1554,l),
(481,1325,o)
);
}
);
userData = {
assembly = "NPUSHB[ ]	/* 15 values pushed */
7 156 0 155 14 7 1 11 8 0 24 4 18 11 14
SRP0[ ]	/* SetRefPoint0 */
MDRP[10100]	/* MoveDirectRelPt */
MIRP[11100]	/* MoveIndirectRelPt */
MIRP[01100]	/* MoveIndirectRelPt */
SHP[0]	/* ShiftPointByLastPoint */
SRP1[ ]	/* SetRefPoint1 */
IP[ ]	/* InterpolatePts */
IP[ ]	/* InterpolatePts */
IUP[1]	/* InterpolateUntPts */
SVTCA[0]	/* SetFreedomAndProjectionVectorToAxis */
SRP0[ ]	/* SetRefPoint0 */
MIRP[11100]	/* MoveIndirectRelPt */
MIRP[01100]	/* MoveIndirectRelPt */
IUP[0]	/* InterpolateUntPts */";
};
width = 1233;
},
{
layerId = "226C7162-7035-4DCE-8E35-7C345FD184FF";
shapes = (
{
closed = 1;
nodes = (
(707,7,o),
(965,606,o),
(965,909,qs),
(965,1051,o),
(890,1366,o),
(812,1554,q),
(652,1554,l),
(712,1392,o),
(771,1090,o),
(771,944,qs),
(771,641,o),
(532,30,o),
(296,-270,q),
(455,-270,l)
);
}
);
userData = {
assembly = "NPUSHB[ ]	/* 15 values pushed */
0 104 6 103 14 7 10 6 13 0 10 11 0 3 14
SRP0[ ]	/* SetRefPoint0 */
MDRP[10100]	/* MoveDirectRelPt */
MDRP[00100]	/* MoveDirectRelPt */
MIRP[01100]	/* MoveIndirectRelPt */
SRP2[ ]	/* SetRefPoint2 */
IP[ ]	/* InterpolatePts */
IP[ ]	/* InterpolatePts */
SRP2[ ]	/* SetRefPoint2 */
IP[ ]	/* InterpolatePts */
IUP[1]	/* InterpolateUntPts */
SVTCA[0]	/* SetFreedomAndProjectionVectorToAxis */
SRP0[ ]	/* SetRefPoint0 */
MIRP[11100]	/* MoveIndirectRelPt */
MIRP[01100]	/* MoveIndirectRelPt */
IUP[0]	/* InterpolateUntPts */";
};
width = 1233;
}
);
note = parenright;
unicode = 41;
},
{
glyphname = asterisk;
lastChange = "2026-05-17 08:27:02 +0000";
layers = (
{
layerId = m01;
shapes = (
{
closed = 1;
nodes = (
(684,748,l),
(684,1190,l),
(549,1190,l),
(549,748,l),
(155,986,l),
(88,870,l),
(508,642,l),
(88,413,l),
(155,298,l),
(549,536,l),
(549,94,l),
(684,94,l),
(684,536,l),
(1078,298,l),
(1145,413,l),
(725,642,l),
(1145,870,l),
(1078,986,l)
);
}
);
userData = {
assembly = "NPUSHB[ ]	/* 44 values pushed */
16 13 11 0 4 12 9 7 4 2 4 8 3 157 5 17 12 157 10 1 14 150 18 8 12 10 3 9 6 17 3 1 3 2 0 25 15 4 11 9 25 13 6 18
SRP0[ ]	/* SetRefPoint0 */
MDRP[10100]	/* MoveDirectRelPt */
ALIGNRP[ ]	/* AlignRelativePt */
MIRP[01100]	/* MoveIndirectRelPt */
SHP[0]	/* ShiftPointByLastPoint */
MDRP[11100]	/* MoveDirectRelPt */
ALIGNRP[ ]	/* AlignRelativePt */
MIRP[01100]	/* MoveIndirectRelPt */
SHP[0]	/* ShiftPointByLastPoint */
SLOOP[ ]	/* SetLoopVariable */
IP[ ]	/* InterpolatePts */
SRP1[ ]	/* SetRefPoint1 */
SRP2[ ]	/* SetRefPoint2 */
SLOOP[ ]	/* SetLoopVariable */
IP[ ]	/* InterpolatePts */
IUP[1]	/* InterpolateUntPts */
SVTCA[0]	/* SetFreedomAndProjectionVectorToAxis */
SRP0[ ]	/* SetRefPoint0 */
MIRP[10100]	/* MoveIndirectRelPt */
MDRP[10100]	/* MoveDirectRelPt */
ALIGNRP[ ]	/* AlignRelativePt */
MIRP[01100]	/* MoveIndirectRelPt */
SHP[0]	/* ShiftPointByLastPoint */
MDRP[00100]	/* MoveDirectRelPt */
MIRP[01100]	/* MoveIndirectRelPt */
SHP[0]	/* ShiftPointByLastPoint */
SLOOP[ ]	/* SetLoopVariable */
IP[ ]	/* InterpolatePts */
SRP2[ ]	/* SetRefPoint2 */
SLOOP[ ]	/* SetLoopVariable */
IP[ ]	/* InterpolatePts */
IUP[0]	/* InterpolateUntPts */";
};
width = 1233;
},
{
layerId = "226C7162-7035-4DCE-8E35-7C345FD184FF";
shapes = (
{
closed = 1;
nodes = (
(853,748,l),
(853,1190,l),
(718,1190,l),
(718,748,l),
(324,986,l),
(257,870,l),
(677,642,l),
(257,413,l),
(324,298,l),
(718,536,l),
(718,94,l),
(853,94,l),
(853,536,l),
(1247,298,l),
(1314,413,l),
(894,642,l),
(1314,870,l),
(1247,986,l)
);
}
);
userData = {
assembly = "NPUSHB[ ]	/* 44 values pushed */
16 13 11 0 4 12 9 7 4 2 4 8 3 105 5 17 12 105 10 1 14 97 18 8 12 10 3 9 6 17 3 1 3 2 0 12 15 4 11 9 12 13 6 18
SRP0[ ]	/* SetRefPoint0 */
MDRP[10100]	/* MoveDirectRelPt */
ALIGNRP[ ]	/* AlignRelativePt */
MIRP[01100]	/* MoveIndirectRelPt */
SHP[0]	/* ShiftPointByLastPoint */
MDRP[11100]	/* MoveDirectRelPt */
ALIGNRP[ ]	/* AlignRelativePt */
MIRP[01100]	/* MoveIndirectRelPt */
SHP[0]	/* ShiftPointByLastPoint */
SLOOP[ ]	/* SetLoopVariable */
IP[ ]	/* InterpolatePts */
SRP1[ ]	/* SetRefPoint1 */
SRP2[ ]	/* SetRefPoint2 */
SLOOP[ ]	/* SetLoopVariable */
IP[ ]	/* InterpolatePts */
IUP[1]	/* InterpolateUntPts */
SVTCA[0]	/* SetFreedomAndProjectionVectorToAxis */
SRP0[ ]	/* SetRefPoint0 */
MIRP[10100]	/* MoveIndirectRelPt */
MDRP[10100]	/* MoveDirectRelPt */
ALIGNRP[ ]	/* AlignRelativePt */
MIRP[01100]	/* MoveIndirectRelPt */
SHP[0]	/* ShiftPointByLastPoint */
MDRP[00100]	/* MoveDirectRelPt */
MIRP[01100]	/* MoveIndirectRelPt */
SHP[0]	/* ShiftPointByLastPoint */
SLOOP[ ]	/* SetLoopVariable */
IP[ ]	/* InterpolatePts */
SRP2[ ]	/* SetRefPoint2 */
SLOOP[ ]	/* SetLoopVariable */
IP[ ]	/* InterpolatePts */
IUP[0]	/* InterpolateUntPts */";
};
width = 1233;
}
);
note = asterisk;
unicode = 42;
},
{
glyphname = plus;
lastChange = "2026-05-17 08:27:02 +0000";
layers = (
{
layerId = m01;
shapes = (
{
closed = 1;
nodes = (
(532,727,l),
(88,727,l),
(88,557,l),
(532,557,l),
(532,113,l),
(701,113,l),
(701,557,l),
(1145,557,l),
(1145,727,l),
(701,727,l),
(701,1171,l),
(532,1171,l)
);
}
);
userData = {
assembly = "NPUSHB[ ]	/* 20 values pushed */
0 161 9 1 160 5 161 7 3 12 2 26 4 0 28 8 26 10 6 12
SRP0[ ]	/* SetRefPoint0 */
MDRP[10100]	/* MoveDirectRelPt */
ALIGNRP[ ]	/* AlignRelativePt */
MIRP[01100]	/* MoveIndirectRelPt */
MIRP[11100]	/* MoveIndirectRelPt */
ALIGNRP[ ]	/* AlignRelativePt */
MIRP[01100]	/* MoveIndirectRelPt */
IUP[1]	/* InterpolateUntPts */
SVTCA[0]	/* SetFreedomAndProjectionVectorToAxis */
SRP0[ ]	/* SetRefPoint0 */
MDRP[10100]	/* MoveDirectRelPt */
ALIGNRP[ ]	/* AlignRelativePt */
MIRP[01100]	/* MoveIndirectRelPt */
MIRP[11100]	/* MoveIndirectRelPt */
ALIGNRP[ ]	/* AlignRelativePt */
MIRP[01100]	/* MoveIndirectRelPt */
IUP[0]	/* InterpolateUntPts */";
};
width = 1233;
},
{
layerId = "226C7162-7035-4DCE-8E35-7C345FD184FF";
shapes = (
{
closed = 1;
nodes = (
(673,727,l),
(229,727,l),
(229,557,l),
(673,557,l),
(673,113,l),
(842,113,l),
(842,557,l),
(1286,557,l),
(1286,727,l),
(842,727,l),
(842,1171,l),
(673,1171,l)
);
}
);
userData = {
assembly = "NPUSHB[ ]	/* 20 values pushed */
0 109 9 1 108 5 109 7 3 12 2 13 4 0 15 8 13 10 6 12
SRP0[ ]	/* SetRefPoint0 */
MDRP[10100]	/* MoveDirectRelPt */
ALIGNRP[ ]	/* AlignRelativePt */
MIRP[01100]	/* MoveIndirectRelPt */
MIRP[11100]	/* MoveIndirectRelPt */
ALIGNRP[ ]	/* AlignRelativePt */
MIRP[01100]	/* MoveIndirectRelPt */
IUP[1]	/* InterpolateUntPts */
SVTCA[0]	/* SetFreedomAndProjectionVectorToAxis */
SRP0[ ]	/* SetRefPoint0 */
MDRP[10100]	/* MoveDirectRelPt */
ALIGNRP[ ]	/* AlignRelativePt */
MIRP[01100]	/* MoveIndirectRelPt */
MIRP[11100]	/* MoveIndirectRelPt */
ALIGNRP[ ]	/* AlignRelativePt */
MIRP[01100]	/* MoveIndirectRelPt */
IUP[0]	/* InterpolateUntPts */";
};
width = 1233;
}
);
note = plus;
unicode = 43;
},
{
glyphname = comma;
lastChange = "2026-05-17 08:27:02 +0000";
layers = (
{
layerId = m01;
shapes = (
{
closed = 1;
nodes = (
(391,-287,l),
(545,-287,l),
(742,96,l),
(742,303,l),
(490,303,l),
(490,96,l)
);
}
);
userData = {
assembly = "NPUSHB[ ]	/* 11 values pushed */
3 163 0 162 6 3 4 1 29 0 6
SRP0[ ]	/* SetRefPoint0 */
MDRP[10100]	/* MoveDirectRelPt */
MIRP[01100]	/* MoveIndirectRelPt */
MDRP[10100]	/* MoveDirectRelPt */
MDRP[01100]	/* MoveDirectRelPt */
IUP[1]	/* InterpolateUntPts */
SVTCA[0]	/* SetFreedomAndProjectionVectorToAxis */
SRP0[ ]	/* SetRefPoint0 */
MIRP[11100]	/* MoveIndirectRelPt */
MIRP[01100]	/* MoveIndirectRelPt */
IUP[0]	/* InterpolateUntPts */";
};
width = 1233;
},
{
guides = (
{
angle = 258.7992;
pos = (394,152);
}
);
layerId = "226C7162-7035-4DCE-8E35-7C345FD184FF";
shapes = (
{
closed = 1;
nodes = (
(335,-287,l),
(488,-287,l),
(759,96,l),
(800,303,l),
(548,303,l),
(507,96,l)
);
}
);
userData = {
assembly = "NPUSHB[ ]	/* 25 values pushed */
4 3 2 5 2 16 5 0 5 1 16 0 5 58 3 111 0 110 6 1 5 2 4 0 6
SRP0[ ]	/* SetRefPoint0 */
MDRP[10100]	/* MoveDirectRelPt */
MDRP[00100]	/* MoveDirectRelPt */
MIRP[00100]	/* MoveIndirectRelPt */
MDRP[00000]	/* MoveDirectRelPt */
IUP[1]	/* InterpolateUntPts */
SVTCA[0]	/* SetFreedomAndProjectionVectorToAxis */
SRP0[ ]	/* SetRefPoint0 */
MIRP[11100]	/* MoveIndirectRelPt */
MIRP[01100]	/* MoveIndirectRelPt */
IUP[0]	/* InterpolateUntPts */
MPPEM[ ]	/* MeasurePixelPerEm */
GTEQ[ ]	/* GreaterThanOrEqual */
IF[ ]	/* If */
SPVTL[1]	/* SetPVectorToLine */
SFVTCA[1]	/* SetFVectorToAxis */
MIRP[01101]	/* MoveIndirectRelPt */
SPVTL[1]	/* SetPVectorToLine */
SRP0[ ]	/* SetRefPoint0 */
SFVTCA[1]	/* SetFVectorToAxis */
MIRP[01101]	/* MoveIndirectRelPt */
SRP1[ ]	/* SetRefPoint1 */
SLOOP[ ]	/* SetLoopVariable */
IP[ ]	/* InterpolatePts */
EIF[ ]	/* EndIf */
CLEAR[ ]	/* ClearStack */";
};
width = 1233;
}
);
note = comma;
unicode = 44;
},
{
glyphname = hyphen;
lastChange = "2026-05-17 08:27:02 +0000";
layers = (
{
layerId = m01;
shapes = (
{
closed = 1;
nodes = (
(1145,557,l),
(1145,727,l),
(88,727,l),
(88,557,l)
);
}
);
userData = {
assembly = "PUSHB[ ]	/* 7 values pushed */
0 160 2 4 1 0 4
SRP0[ ]	/* SetRefPoint0 */
MDRP[10100]	/* MoveDirectRelPt */
MDRP[00100]	/* MoveDirectRelPt */
IUP[1]	/* InterpolateUntPts */
SVTCA[0]	/* SetFreedomAndProjectionVectorToAxis */
SRP0[ ]	/* SetRefPoint0 */
MDRP[10100]	/* MoveDirectRelPt */
MIRP[01100]	/* MoveIndirectRelPt */
IUP[0]	/* InterpolateUntPts */";
};
width = 1233;
},
{
layerId = "226C7162-7035-4DCE-8E35-7C345FD184FF";
shapes = (
{
closed = 1;
nodes = (
(1286,557,l),
(1286,727,l),
(229,727,l),
(229,557,l)
);
}
);
userData = {
assembly = "PUSHB[ ]	/* 8 values pushed */
2 0 4 2 0 1 3 4
SRP0[ ]	/* SetRefPoint0 */
MDRP[10100]	/* MoveDirectRelPt */
MDRP[00100]	/* MoveDirectRelPt */
IP[ ]	/* InterpolatePts */
IP[ ]	/* InterpolatePts */
IUP[1]	/* InterpolateUntPts */
SVTCA[0]	/* SetFreedomAndProjectionVectorToAxis */
SRP0[ ]	/* SetRefPoint0 */
MDRP[10100]	/* MoveDirectRelPt */
MDRP[01100]	/* MoveDirectRelPt */
IUP[0]	/* InterpolateUntPts */";
};
width = 1233;
}
);
note = hyphen;
unicode = 45;
},
{
glyphname = period;
lastChange = "2026-05-17 08:27:02 +0000";
layers = (
{
layerId = m01;
shapes = (
{
closed = 1;
nodes = (
(742,0,l),
(742,303,l),
(490,303,l),
(490,0,l)
);
}
);
userData = {
assembly = "PUSHB[ ]	/* 7 values pushed */
0 162 2 1 29 0 4
SRP0[ ]	/* SetRefPoint0 */
MDRP[10100]	/* MoveDirectRelPt */
MIRP[01100]	/* MoveIndirectRelPt */
IUP[1]	/* InterpolateUntPts */
SVTCA[0]	/* SetFreedomAndProjectionVectorToAxis */
MDAP[1]	/* MoveDirectAbsPt */
MIRP[01100]	/* MoveIndirectRelPt */
IUP[0]	/* InterpolateUntPts */";
};
width = 1233;
},
{
guides = (
{
angle = 258.7992;
pos = (396,152);
}
);
layerId = "226C7162-7035-4DCE-8E35-7C345FD184FF";
shapes = (
{
closed = 1;
nodes = (
(742,0,l),
(802,303,l),
(550,303,l),
(490,0,l)
);
}
);
userData = {
assembly = "NPUSHB[ ]	/* 21 values pushed */
2 16 3 0 3 1 16 0 0 3 58 0 110 2 2 1 0 0 2 3 4
SRP0[ ]	/* SetRefPoint0 */
MDRP[10100]	/* MoveDirectRelPt */
MIRP[00100]	/* MoveIndirectRelPt */
SRP0[ ]	/* SetRefPoint0 */
MDRP[00000]	/* MoveDirectRelPt */
IP[ ]	/* InterpolatePts */
IUP[1]	/* InterpolateUntPts */
SVTCA[0]	/* SetFreedomAndProjectionVectorToAxis */
MDAP[1]	/* MoveDirectAbsPt */
MIRP[01100]	/* MoveIndirectRelPt */
IUP[0]	/* InterpolateUntPts */
MPPEM[ ]	/* MeasurePixelPerEm */
GTEQ[ ]	/* GreaterThanOrEqual */
IF[ ]	/* If */
SPVTL[1]	/* SetPVectorToLine */
SRP0[ ]	/* SetRefPoint0 */
SFVTCA[1]	/* SetFVectorToAxis */
MIRP[01101]	/* MoveIndirectRelPt */
SPVTL[1]	/* SetPVectorToLine */
SRP0[ ]	/* SetRefPoint0 */
SFVTCA[1]	/* SetFVectorToAxis */
MIRP[01101]	/* MoveIndirectRelPt */
EIF[ ]	/* EndIf */
CLEAR[ ]	/* ClearStack */";
};
width = 1233;
}
);
note = period;
unicode = 46;
},
{
glyphname = slash;
lastChange = "2026-05-17 08:27:02 +0000";
layers = (
{
layerId = m01;
shapes = (
{
closed = 1;
nodes = (
(255,-270,l),
(1108,1556,l),
(919,1556,l),
(65,-270,l)
);
}
);
userData = {
assembly = "NPUSHB[ ]	/* 11 values pushed */
2 0 136 4 1 30 0 2 30 3 4
SRP0[ ]	/* SetRefPoint0 */
MDRP[10100]	/* MoveDirectRelPt */
MIRP[01100]	/* MoveIndirectRelPt */
MDRP[10100]	/* MoveDirectRelPt */
MIRP[01100]	/* MoveIndirectRelPt */
IUP[1]	/* InterpolateUntPts */
SVTCA[0]	/* SetFreedomAndProjectionVectorToAxis */
SRP0[ ]	/* SetRefPoint0 */
MIRP[10100]	/* MoveIndirectRelPt */
MDRP[00100]	/* MoveDirectRelPt */
IUP[0]	/* InterpolateUntPts */";
};
width = 1233;
},
{
layerId = "226C7162-7035-4DCE-8E35-7C345FD184FF";
shapes = (
{
closed = 1;
nodes = (
(1129,1556,l),
(938,1556,l),
(13,-270,l),
(202,-270,l)
);
}
);
userData = {
assembly = "NPUSHB[ ]	/* 12 values pushed */
58 0 1 81 4 2 1 3 18 1 0 4
SRP0[ ]	/* SetRefPoint0 */
MDRP[10100]	/* MoveDirectRelPt */
MDRP[00100]	/* MoveDirectRelPt */
MIRP[01100]	/* MoveIndirectRelPt */
SRP0[ ]	/* SetRefPoint0 */
MDRP[00000]	/* MoveDirectRelPt */
IUP[1]	/* InterpolateUntPts */
SVTCA[0]	/* SetFreedomAndProjectionVectorToAxis */
SRP0[ ]	/* SetRefPoint0 */
MIRP[10100]	/* MoveIndirectRelPt */
MDRP[00100]	/* MoveDirectRelPt */
IUP[0]	/* InterpolateUntPts */
MPPEM[ ]	/* MeasurePixelPerEm */
GTEQ[ ]	/* GreaterThanOrEqual */
IF[ ]	/* If */
EIF[ ]	/* EndIf */
CLEAR[ ]	/* ClearStack */";
};
width = 1233;
}
);
note = slash;
unicode = 47;
},
{
glyphname = zero;
lastChange = "2026-05-17 08:27:02 +0000";
layers = (
{
layerId = m01;
shapes = (
{
closed = 1;
nodes = (
(711,1360,o),
(781,1310,o),
(828,1208,cs),
(833,1196,o),
(837,1186,o),
(842,1174,c),
(353,478,l),
(342,553,o),
(336,643,o),
(336,745,cs),
(336,952,o),
(359,1106,o),
(406,1208,cs),
(452,1309,o),
(522,1360,o),
(616,1360,cs)
);
},
{
closed = 1;
nodes = (
(297,1520,o),
(133,1256,o),
(133,745,cs),
(133,236,o),
(297,-29,o),
(616,-29,cs),
(935,-29,o),
(1100,236,o),
(1100,745,cs),
(1100,1256,o),
(935,1520,o),
(616,1520,cs)
);
},
{
closed = 1;
nodes = (
(880,1013,l),
(891,937,o),
(897,847,o),
(897,745,cs),
(897,538,o),
(874,384,o),
(828,283,cs),
(781,181,o),
(711,131,o),
(616,131,cs),
(522,131,o),
(452,182,o),
(406,283,cs),
(401,294,o),
(396,306,o),
(392,317,c)
);
}
);
userData = {
assembly = "NPUSHB[ ]	/* 26 values pushed */
3 165 9 18 151 30 12 151 24 150 30 153 36 21 30 27 6 33 0 27 34 15 30 33 31 36
SRP0[ ]	/* SetRefPoint0 */
MIRP[11100]	/* MoveIndirectRelPt */
MIRP[01100]	/* MoveIndirectRelPt */
MIRP[01100]	/* MoveIndirectRelPt */
MDRP[10100]	/* MoveDirectRelPt */
MIRP[01100]	/* MoveIndirectRelPt */
SRP0[ ]	/* SetRefPoint0 */
MIRP[01110]	/* MoveIndirectRelPt */
IUP[1]	/* InterpolateUntPts */
SVTCA[0]	/* SetFreedomAndProjectionVectorToAxis */
SRP0[ ]	/* SetRefPoint0 */
MIRP[00100]	/* MoveIndirectRelPt */
MIRP[10100]	/* MoveIndirectRelPt */
MIRP[01100]	/* MoveIndirectRelPt */
SRP0[ ]	/* SetRefPoint0 */
MIRP[01110]	/* MoveIndirectRelPt */
MDRP[10100]	/* MoveDirectRelPt */
MIRP[01110]	/* MoveIndirectRelPt */
IUP[0]	/* InterpolateUntPts */
NPUSHB[ ]	/* 214 values pushed */
47 0 47 1 47 2 47 3 47 4 47 5 47 6 47 7 47 8 47 9 47 10 47 11 63 0 63 1 63 2 63 3 63 4 63 5 63 6 63 7 63 8 63 9 63 10 63 11 79 0 79 1 79 2 79 10 79 11 95 0 95 1 95 2 95 10 95 11 159 0 159 1 159 2 159 3 159 4 159 5 159 6 159 7 159 8 159 9 159 10 159 11 175 0 175 1 175 2 175 3 175 4 175 5 175 6 175 7 175 8 175 9 175 10 175 11 191 0 191 1 191 2 191 3 191 4 191 5 191 6 191 7 191 8 191 9 191 10 191 11 70 47 0 47 1 47 2 47 3 47 4 47 5 47 6 47 7 47 8 47 9 47 10 47 11 95 0 95 1 95 2 95 3 95 4 95 5 95 6 95 7 95 8 95 9 95 10 95 11 191 0 191 1 191 2 191 3 191 4 191 5 191 6 191 7 191 8 191 9 191 10 191 11 36
DELTAP1[ ]	/* DeltaExceptionP1 */
SVTCA[1]	/* SetFreedomAndProjectionVectorToAxis */
DELTAP1[ ]	/* DeltaExceptionP1 */";
};
width = 1233;
},
{
layerId = "226C7162-7035-4DCE-8E35-7C345FD184FF";
shapes = (
{
closed = 1;
nodes = (
(832,-29,o),
(978,60,o),
(1090,248,cs),
(1202,432,o),
(1289,765,o),
(1289,1020,cs),
(1289,1359,o),
(1164,1520,o),
(904,1520,cs),
(708,1520,o),
(565,1434,o),
(451,1245,cs),
(337,1056,o),
(252,729,o),
(252,473,cs),
(252,132,o),
(375,-29,o),
(635,-29,cs)
);
},
{
closed = 1;
nodes = (
(577,135,o),
(519,168,o),
(486,234,c),
(1085,1096,l),
(1086,1085,o),
(1086,1074,o),
(1086,1063,cs),
(1086,828,o),
(1016,521,o),
(924,334,cs),
(861,205,o),
(767,135,o),
(660,135,cs)
);
},
{
closed = 1;
nodes = (
(453,666,o),
(522,974,o),
(615,1159,cs),
(679,1286,o),
(774,1356,o),
(881,1356,cs),
(966,1356,o),
(1022,1325,o),
(1054,1256,c),
(453,392,l),
(453,398,o),
(453,406,o),
(453,414,cs)
);
}
);
userData = {
assembly = "NPUSHB[ ]	/* 22 values pushed */
3 9 30 99 18 39 99 27 97 18 101 48 6 0 36 19 12 0 45 19 21 48
SRP0[ ]	/* SetRefPoint0 */
MDRP[10100]	/* MoveDirectRelPt */
MIRP[01100]	/* MoveIndirectRelPt */
MDRP[00100]	/* MoveDirectRelPt */
MDRP[10100]	/* MoveDirectRelPt */
MIRP[01100]	/* MoveIndirectRelPt */
SRP0[ ]	/* SetRefPoint0 */
MDRP[00110]	/* MoveDirectRelPt */
IUP[1]	/* InterpolateUntPts */
SVTCA[0]	/* SetFreedomAndProjectionVectorToAxis */
SRP0[ ]	/* SetRefPoint0 */
MIRP[00100]	/* MoveIndirectRelPt */
MIRP[10100]	/* MoveIndirectRelPt */
MIRP[01100]	/* MoveIndirectRelPt */
SRP0[ ]	/* SetRefPoint0 */
MIRP[01110]	/* MoveIndirectRelPt */
MDRP[10100]	/* MoveDirectRelPt */
MDRP[00110]	/* MoveDirectRelPt */
IUP[0]	/* InterpolateUntPts */
NPUSHB[ ]	/* 146 values pushed */
47 0 47 1 47 2 47 3 47 4 47 5 47 6 47 7 47 8 47 9 47 10 47 11 79 0 79 1 79 2 79 3 79 4 79 5 79 6 79 7 79 8 79 9 79 10 79 11 143 0 143 1 143 2 143 3 143 4 143 5 143 6 143 7 143 8 143 9 143 10 143 11 159 0 159 1 159 2 159 3 159 4 159 5 159 6 159 7 159 8 159 9 159 10 159 11 48 47 0 47 1 47 2 47 3 47 4 47 5 47 6 47 7 47 8 47 9 47 10 47 11 192 0 192 1 192 2 192 3 192 4 192 5 192 6 192 7 192 8 192 9 192 10 192 11 24
DELTAP1[ ]	/* DeltaExceptionP1 */
SVTCA[1]	/* SetFreedomAndProjectionVectorToAxis */
DELTAP1[ ]	/* DeltaExceptionP1 */";
};
width = 1233;
}
);
note = zero;
unicode = 48;
},
{
glyphname = one;
lastChange = "2026-05-17 08:27:02 +0000";
layers = (
{
layerId = m01;
shapes = (
{
closed = 1;
nodes = (
(1094,0,l),
(1094,170,l),
(784,170,l),
(784,1493,l),
(582,1493,l),
(246,1419,l),
(246,1235,l),
(584,1311,l),
(584,170,l),
(270,170,l),
(270,0,l)
);
}
);
userData = {
assembly = "NPUSHB[ ]	/* 20 values pushed */
3 151 4 2 151 5 136 7 0 151 9 8 35 6 30 3 0 35 1 11
SRP0[ ]	/* SetRefPoint0 */
MDRP[10100]	/* MoveDirectRelPt */
MIRP[01100]	/* MoveIndirectRelPt */
MDRP[00100]	/* MoveDirectRelPt */
MIRP[11100]	/* MoveIndirectRelPt */
MIRP[01100]	/* MoveIndirectRelPt */
IUP[1]	/* InterpolateUntPts */
SVTCA[0]	/* SetFreedomAndProjectionVectorToAxis */
MDAP[1]	/* MoveDirectAbsPt */
MIRP[01100]	/* MoveIndirectRelPt */
SHP[0]	/* ShiftPointByLastPoint */
MIRP[10100]	/* MoveIndirectRelPt */
MIRP[01100]	/* MoveIndirectRelPt */
MDRP[10100]	/* MoveDirectRelPt */
MIRP[01100]	/* MoveIndirectRelPt */
IUP[0]	/* InterpolateUntPts */";
};
width = 1233;
},
{
layerId = "226C7162-7035-4DCE-8E35-7C345FD184FF";
shapes = (
{
closed = 1;
nodes = (
(1095,0,l),
(1128,170,l),
(819,170,l),
(1077,1493,l),
(874,1493,l),
(522,1419,l),
(487,1235,l),
(839,1311,l),
(618,170,l),
(305,170,l),
(272,0,l)
);
}
);
userData = {
assembly = "NPUSHB[ ]	/* 42 values pushed */
9 8 2 7 5 1 2 1 6 5 2 2 1 58 3 99 4 2 99 5 81 7 0 99 9 9 6 8 2 0 4 3 3 10 7 1 8 2 2 1 10 11
SRP0[ ]	/* SetRefPoint0 */
MDRP[10100]	/* MoveDirectRelPt */
MDRP[10100]	/* MoveDirectRelPt */
MDRP[00100]	/* MoveDirectRelPt */
SRP0[ ]	/* SetRefPoint0 */
MDRP[00000]	/* MoveDirectRelPt */
SRP2[ ]	/* SetRefPoint2 */
IP[ ]	/* InterpolatePts */
SRP1[ ]	/* SetRefPoint1 */
SLOOP[ ]	/* SetLoopVariable */
IP[ ]	/* InterpolatePts */
SRP1[ ]	/* SetRefPoint1 */
SRP2[ ]	/* SetRefPoint2 */
IP[ ]	/* InterpolatePts */
IP[ ]	/* InterpolatePts */
IUP[1]	/* InterpolateUntPts */
SVTCA[0]	/* SetFreedomAndProjectionVectorToAxis */
MDAP[1]	/* MoveDirectAbsPt */
MIRP[01100]	/* MoveIndirectRelPt */
SHP[0]	/* ShiftPointByLastPoint */
MIRP[10100]	/* MoveIndirectRelPt */
MIRP[01100]	/* MoveIndirectRelPt */
MDRP[10100]	/* MoveDirectRelPt */
MIRP[01100]	/* MoveIndirectRelPt */
IUP[0]	/* InterpolateUntPts */
MPPEM[ ]	/* MeasurePixelPerEm */
GTEQ[ ]	/* GreaterThanOrEqual */
IF[ ]	/* If */
SPVTL[1]	/* SetPVectorToLine */
SRP0[ ]	/* SetRefPoint0 */
SFVTCA[1]	/* SetFVectorToAxis */
MIRP[01101]	/* MoveIndirectRelPt */
SPVTL[1]	/* SetPVectorToLine */
SRP0[ ]	/* SetRefPoint0 */
SFVTCA[1]	/* SetFVectorToAxis */
MIRP[01101]	/* MoveIndirectRelPt */
SLOOP[ ]	/* SetLoopVariable */
SHP[0]	/* ShiftPointByLastPoint */
EIF[ ]	/* EndIf */
CLEAR[ ]	/* ClearStack */";
};
width = 1233;
}
);
note = one;
unicode = 49;
},
{
glyphname = two;
lastChange = "2026-05-17 08:27:02 +0000";
layers = (
{
layerId = m01;
shapes = (
{
closed = 1;
nodes = (
(804,629,o),
(860,694,qs),
(960,810,o),
(1049,1002,o),
(1049,1098,qs),
(1049,1287,o),
(782,1520,o),
(563,1520,qs),
(466,1520,o),
(267,1470,o),
(164,1421,q),
(164,1217,l),
(276,1284,o),
(476,1350,o),
(567,1350,qs),
(695,1350,o),
(842,1208,o),
(842,1083,qs),
(842,1004,o),
(772,853,o),
(672,731,qs),
(619,669,o),
(339,367,o),
(152,170,q),
(152,0,l),
(1059,0,l),
(1059,170,l),
(373,170,l),
(591,399,o)
);
}
);
userData = {
assembly = "NPUSHB[ ]	/* 41 values pushed */
0 28 37 5 6 5 24 25 26 3 23 27 37 6 6 5 66 16 17 167 13 151 20 150 4 0 151 2 0 16 10 2 1 10 30 23 34 16 3 36 29
SRP0[ ]	/* SetRefPoint0 */
MIRP[11100]	/* MoveIndirectRelPt */
MDRP[00100]	/* MoveDirectRelPt */
MIRP[11100]	/* MoveIndirectRelPt */
MIRP[01100]	/* MoveIndirectRelPt */
MDRP[00000]	/* MoveDirectRelPt */
MDRP[00000]	/* MoveDirectRelPt */
SRP1[ ]	/* SetRefPoint1 */
SRP2[ ]	/* SetRefPoint2 */
IP[ ]	/* InterpolatePts */
IUP[1]	/* InterpolateUntPts */
SVTCA[0]	/* SetFreedomAndProjectionVectorToAxis */
MDAP[1]	/* MoveDirectAbsPt */
MIRP[01100]	/* MoveIndirectRelPt */
SHP[0]	/* ShiftPointByLastPoint */
MIRP[10100]	/* MoveIndirectRelPt */
MIRP[01100]	/* MoveIndirectRelPt */
MIRP[10100]	/* MoveIndirectRelPt */
MDRP[01100]	/* MoveDirectRelPt */
IUP[0]	/* InterpolateUntPts */
MPPEM[ ]	/* MeasurePixelPerEm */
GTEQ[ ]	/* GreaterThanOrEqual */
IF[ ]	/* If */
SPVTL[1]	/* SetPVectorToLine */
SRP0[ ]	/* SetRefPoint0 */
SFVTCA[1]	/* SetFVectorToAxis */
MIRP[01101]	/* MoveIndirectRelPt */
SRP1[ ]	/* SetRefPoint1 */
SLOOP[ ]	/* SetLoopVariable */
IP[ ]	/* InterpolatePts */
SPVTL[1]	/* SetPVectorToLine */
SRP0[ ]	/* SetRefPoint0 */
SFVTCA[1]	/* SetFVectorToAxis */
MIRP[01101]	/* MoveIndirectRelPt */
SLOOP[ ]	/* SetLoopVariable */
SHP[0]	/* ShiftPointByLastPoint */
EIF[ ]	/* EndIf */
CLEAR[ ]	/* ClearStack */";
};
width = 1233;
},
{
layerId = "226C7162-7035-4DCE-8E35-7C345FD184FF";
shapes = (
{
closed = 1;
nodes = (
(914,599,o),
(1086,757,o),
(1119,799,qs),
(1201,902,o),
(1272,1075,o),
(1272,1171,qs),
(1272,1326,o),
(1044,1520,o),
(859,1520,qs),
(762,1520,o),
(553,1470,o),
(441,1421,q),
(400,1217,l),
(526,1285,o),
(738,1352,o),
(830,1352,qs),
(944,1352,o),
(1072,1246,o),
(1072,1153,qs),
(1072,950,o),
(535,479,qs),
(496,444,l),
(185,170,l),
(152,0,l),
(1066,0,l),
(1098,170,l),
(414,170,l),
(734,444,ls)
);
}
);
userData = {
assembly = "NPUSHB[ ]	/* 49 values pushed */
0 5 5 6 5 23 24 25 26 4 22 27 5 6 6 5 58 6 11 5 27 5 0 14 15 113 11 99 18 97 4 0 99 2 1 21 14 6 2 0 4 15 27 3 8 19 21 3 28
SRP0[ ]	/* SetRefPoint0 */
MDRP[10100]	/* MoveDirectRelPt */
MDRP[10100]	/* MoveDirectRelPt */
MIRP[01100]	/* MoveIndirectRelPt */
SRP1[ ]	/* SetRefPoint1 */
IP[ ]	/* InterpolatePts */
IP[ ]	/* InterpolatePts */
SLOOP[ ]	/* SetLoopVariable */
IP[ ]	/* InterpolatePts */
SRP1[ ]	/* SetRefPoint1 */
IP[ ]	/* InterpolatePts */
IUP[1]	/* InterpolateUntPts */
SVTCA[0]	/* SetFreedomAndProjectionVectorToAxis */
MDAP[1]	/* MoveDirectAbsPt */
MIRP[01100]	/* MoveIndirectRelPt */
SHP[0]	/* ShiftPointByLastPoint */
MIRP[10100]	/* MoveIndirectRelPt */
MIRP[01100]	/* MoveIndirectRelPt */
MIRP[10100]	/* MoveIndirectRelPt */
MDRP[00100]	/* MoveDirectRelPt */
SRP1[ ]	/* SetRefPoint1 */
IP[ ]	/* InterpolatePts */
IP[ ]	/* InterpolatePts */
SRP1[ ]	/* SetRefPoint1 */
SRP2[ ]	/* SetRefPoint2 */
IP[ ]	/* InterpolatePts */
IUP[0]	/* InterpolateUntPts */
MPPEM[ ]	/* MeasurePixelPerEm */
GTEQ[ ]	/* GreaterThanOrEqual */
IF[ ]	/* If */
SPVTL[1]	/* SetPVectorToLine */
SRP0[ ]	/* SetRefPoint0 */
SFVTCA[1]	/* SetFVectorToAxis */
MIRP[01101]	/* MoveIndirectRelPt */
SRP1[ ]	/* SetRefPoint1 */
SLOOP[ ]	/* SetLoopVariable */
IP[ ]	/* InterpolatePts */
SPVTL[1]	/* SetPVectorToLine */
SRP0[ ]	/* SetRefPoint0 */
SFVTCA[1]	/* SetFVectorToAxis */
MIRP[01101]	/* MoveIndirectRelPt */
EIF[ ]	/* EndIf */
CLEAR[ ]	/* ClearStack */";
};
width = 1233;
}
);
note = two;
unicode = 50;
},
{
glyphname = three;
lastChange = "2026-05-17 08:27:02 +0000";
layers = (
{
layerId = m01;
shapes = (
{
closed = 1;
nodes = (
(1044,997,o),
(1044,1120,qs),
(1044,1301,o),
(783,1520,o),
(565,1520,qs),
(492,1520,o),
(303,1488,o),
(182,1456,q),
(182,1270,l),
(286,1310,o),
(476,1350,o),
(565,1350,qs),
(699,1350,o),
(844,1227,o),
(844,1112,qs),
(844,1003,o),
(688,881,o),
(549,881,qs),
(395,881,l),
(395,715,l),
(549,715,ls),
(701,715,o),
(879,562,o),
(879,432,qs),
(879,291,o),
(701,141,o),
(535,141,qs),
(437,141,o),
(239,193,o),
(137,246,q),
(137,45,l),
(240,9,o),
(454,-29,o),
(557,-29,qs),
(802,-29,o),
(1079,206,o),
(1079,412,qs),
(1079,561,o),
(923,760,o),
(776,799,q),
(907,833,o)
);
}
);
userData = {
assembly = "NPUSHB[ ]	/* 41 values pushed */
0 19 151 21 10 139 9 166 13 151 6 31 139 32 166 28 151 35 150 6 153 21 169 41 22 19 0 3 20 25 30 38 16 30 3 34 31 20 9 31 41
SRP0[ ]	/* SetRefPoint0 */
MIRP[11100]	/* MoveIndirectRelPt */
MDRP[00100]	/* MoveDirectRelPt */
MDRP[00100]	/* MoveDirectRelPt */
MIRP[11100]	/* MoveIndirectRelPt */
MIRP[01100]	/* MoveIndirectRelPt */
MDRP[10100]	/* MoveDirectRelPt */
MIRP[01100]	/* MoveIndirectRelPt */
SRP1[ ]	/* SetRefPoint1 */
SLOOP[ ]	/* SetLoopVariable */
IP[ ]	/* InterpolatePts */
IUP[1]	/* InterpolateUntPts */
SVTCA[0]	/* SetFreedomAndProjectionVectorToAxis */
SRP0[ ]	/* SetRefPoint0 */
MIRP[01100]	/* MoveIndirectRelPt */
MIRP[00100]	/* MoveIndirectRelPt */
MIRP[10100]	/* MoveIndirectRelPt */
MIRP[01100]	/* MoveIndirectRelPt */
MIRP[10100]	/* MoveIndirectRelPt */
MIRP[01100]	/* MoveIndirectRelPt */
SRP0[ ]	/* SetRefPoint0 */
MIRP[01110]	/* MoveIndirectRelPt */
MIRP[10110]	/* MoveIndirectRelPt */
MIRP[01110]	/* MoveIndirectRelPt */
SRP0[ ]	/* SetRefPoint0 */
MIRP[01110]	/* MoveIndirectRelPt */
IP[ ]	/* InterpolatePts */
IUP[0]	/* InterpolateUntPts */";
};
width = 1233;
},
{
layerId = "226C7162-7035-4DCE-8E35-7C345FD184FF";
shapes = (
{
closed = 1;
nodes = (
(1267,1039,o),
(1267,1192,qs),
(1267,1344,o),
(1051,1520,o),
(863,1520,qs),
(779,1520,o),
(585,1489,o),
(462,1456,q),
(425,1270,l),
(538,1310,o),
(732,1350,o),
(814,1350,qs),
(943,1350,o),
(1066,1255,o),
(1066,1155,qs),
(1066,1031,o),
(880,881,o),
(722,881,qs),
(568,881,l),
(536,715,l),
(689,715,ls),
(827,715,o),
(970,594,o),
(970,477,qs),
(970,328,o),
(746,141,o),
(564,141,qs),
(466,141,o),
(276,194,o),
(185,246,q),
(147,45,l),
(241,8,o),
(446,-29,o),
(554,-29,qs),
(834,-29,o),
(1169,255,o),
(1169,489,qs),
(1169,615,o),
(1041,779,o),
(927,799,q),
(1088,832,o)
);
}
);
userData = {
assembly = "NPUSHB[ ]	/* 43 values pushed */
0 19 99 21 10 87 9 113 13 99 6 31 87 32 113 28 99 35 97 6 101 21 41 21 20 19 10 4 41 22 31 32 0 4 9 16 19 3 25 19 38 9 41
SRP0[ ]	/* SetRefPoint0 */
MDRP[10100]	/* MoveDirectRelPt */
MDRP[10100]	/* MoveDirectRelPt */
MIRP[01100]	/* MoveIndirectRelPt */
MDRP[10100]	/* MoveDirectRelPt */
MIRP[01100]	/* MoveIndirectRelPt */
SRP1[ ]	/* SetRefPoint1 */
SLOOP[ ]	/* SetLoopVariable */
IP[ ]	/* InterpolatePts */
SRP1[ ]	/* SetRefPoint1 */
SLOOP[ ]	/* SetLoopVariable */
IP[ ]	/* InterpolatePts */
IUP[1]	/* InterpolateUntPts */
SVTCA[0]	/* SetFreedomAndProjectionVectorToAxis */
SRP0[ ]	/* SetRefPoint0 */
MDRP[00100]	/* MoveDirectRelPt */
MIRP[00100]	/* MoveIndirectRelPt */
MIRP[10100]	/* MoveIndirectRelPt */
MIRP[01100]	/* MoveIndirectRelPt */
MIRP[10100]	/* MoveIndirectRelPt */
MIRP[01100]	/* MoveIndirectRelPt */
SRP0[ ]	/* SetRefPoint0 */
MIRP[01110]	/* MoveIndirectRelPt */
MIRP[10110]	/* MoveIndirectRelPt */
MIRP[01110]	/* MoveIndirectRelPt */
SRP0[ ]	/* SetRefPoint0 */
MIRP[01110]	/* MoveIndirectRelPt */
IP[ ]	/* InterpolatePts */
IUP[0]	/* InterpolateUntPts */";
};
width = 1233;
}
);
note = three;
unicode = 51;
},
{
glyphname = four;
lastChange = "2026-05-17 08:27:02 +0000";
layers = (
{
layerId = m01;
shapes = (
{
closed = 1;
nodes = (
(264,520,l),
(735,1309,l),
(735,520,l)
);
},
{
closed = 1;
nodes = (
(102,356,l),
(735,356,l),
(735,0,l),
(936,0,l),
(936,356,l),
(1135,356,l),
(1135,520,l),
(936,520,l),
(936,1493,l),
(702,1493,l),
(102,547,l)
);
}
);
userData = {
assembly = "NPUSHB[ ]	/* 31 values pushed */
1 13 3 13 0 3 3 13 66 0 3 11 7 151 5 1 3 136 9 1 12 10 0 30 8 4 6 15 12 36 14
SRP0[ ]	/* SetRefPoint0 */
MIRP[11100]	/* MoveIndirectRelPt */
MIRP[11100]	/* MoveIndirectRelPt */
MDRP[10100]	/* MoveDirectRelPt */
ALIGNRP[ ]	/* AlignRelativePt */
MIRP[01100]	/* MoveIndirectRelPt */
SHP[0]	/* ShiftPointByLastPoint */
SRP1[ ]	/* SetRefPoint1 */
IP[ ]	/* InterpolatePts */
IUP[1]	/* InterpolateUntPts */
SVTCA[0]	/* SetFreedomAndProjectionVectorToAxis */
MDAP[1]	/* MoveDirectAbsPt */
MIRP[00100]	/* MoveIndirectRelPt */
MDRP[10100]	/* MoveDirectRelPt */
ALIGNRP[ ]	/* AlignRelativePt */
MIRP[01100]	/* MoveIndirectRelPt */
SHP[0]	/* ShiftPointByLastPoint */
SRP2[ ]	/* SetRefPoint2 */
IP[ ]	/* InterpolatePts */
IUP[0]	/* InterpolateUntPts */
MPPEM[ ]	/* MeasurePixelPerEm */
GTEQ[ ]	/* GreaterThanOrEqual */
IF[ ]	/* If */
SPVTL[1]	/* SetPVectorToLine */
SRP0[ ]	/* SetRefPoint0 */
SFVTCA[0]	/* SetFVectorToAxis */
MDRP[01001]	/* MoveDirectRelPt */
SPVTL[1]	/* SetPVectorToLine */
SRP0[ ]	/* SetRefPoint0 */
SFVTCA[1]	/* SetFVectorToAxis */
MDRP[01001]	/* MoveDirectRelPt */
EIF[ ]	/* EndIf */
CLEAR[ ]	/* ClearStack */";
};
width = 1233;
},
{
layerId = "226C7162-7035-4DCE-8E35-7C345FD184FF";
shapes = (
{
closed = 1;
nodes = (
(364,520,l),
(989,1282,l),
(837,520,l)
);
},
{
closed = 1;
nodes = (
(172,356,l),
(806,356,l),
(737,0,l),
(935,0,l),
(1005,356,l),
(1204,356,l),
(1234,520,l),
(1036,520,l),
(1226,1493,l),
(993,1493,l),
(208,547,l)
);
}
);
userData = {
assembly = "NPUSHB[ ]	/* 62 values pushed */
1 3 13 3 13 0 3 2 0 3 3 13 11 5 8 9 8 10 5 9 9 8 0 5 1 0 4 5 4 2 5 5 5 4 58 0 3 11 7 99 5 1 3 81 9 11 10 1 2 4 12 8 7 5 0 4 9 6 9 4 12 14
SRP0[ ]	/* SetRefPoint0 */
MDRP[10100]	/* MoveDirectRelPt */
MDRP[11100]	/* MoveDirectRelPt */
MDRP[00100]	/* MoveDirectRelPt */
MDRP[00000]	/* MoveDirectRelPt */
SRP2[ ]	/* SetRefPoint2 */
SLOOP[ ]	/* SetLoopVariable */
IP[ ]	/* InterpolatePts */
SRP1[ ]	/* SetRefPoint1 */
SLOOP[ ]	/* SetLoopVariable */
IP[ ]	/* InterpolatePts */
IUP[1]	/* InterpolateUntPts */
SVTCA[0]	/* SetFreedomAndProjectionVectorToAxis */
MDAP[1]	/* MoveDirectAbsPt */
MIRP[00100]	/* MoveIndirectRelPt */
MDRP[10100]	/* MoveDirectRelPt */
ALIGNRP[ ]	/* AlignRelativePt */
MIRP[01100]	/* MoveIndirectRelPt */
SHP[0]	/* ShiftPointByLastPoint */
SRP2[ ]	/* SetRefPoint2 */
IP[ ]	/* InterpolatePts */
IUP[0]	/* InterpolateUntPts */
MPPEM[ ]	/* MeasurePixelPerEm */
GTEQ[ ]	/* GreaterThanOrEqual */
IF[ ]	/* If */
SPVTL[1]	/* SetPVectorToLine */
SRP0[ ]	/* SetRefPoint0 */
SFVTCA[1]	/* SetFVectorToAxis */
MIRP[01101]	/* MoveIndirectRelPt */
SPVTL[1]	/* SetPVectorToLine */
SRP0[ ]	/* SetRefPoint0 */
SFVTL[0]	/* SetFVectorToLine */
MIRP[01101]	/* MoveIndirectRelPt */
SPVTL[1]	/* SetPVectorToLine */
SRP0[ ]	/* SetRefPoint0 */
SFVTCA[1]	/* SetFVectorToAxis */
MIRP[01101]	/* MoveIndirectRelPt */
SPVTL[1]	/* SetPVectorToLine */
SRP0[ ]	/* SetRefPoint0 */
SFVTCA[1]	/* SetFVectorToAxis */
MIRP[01101]	/* MoveIndirectRelPt */
SPVTL[1]	/* SetPVectorToLine */
SRP0[ ]	/* SetRefPoint0 */
SFVTL[0]	/* SetFVectorToLine */
MIRP[01101]	/* MoveIndirectRelPt */
SPVTL[1]	/* SetPVectorToLine */
SRP0[ ]	/* SetRefPoint0 */
SFVTCA[1]	/* SetFVectorToAxis */
MIRP[01101]	/* MoveIndirectRelPt */
EIF[ ]	/* EndIf */
CLEAR[ ]	/* ClearStack */";
};
width = 1233;
}
);
note = four;
unicode = 52;
},
{
glyphname = five;
lastChange = "2026-05-17 08:27:02 +0000";
layers = (
{
layerId = m01;
shapes = (
{
closed = 1;
nodes = (
(277,780,o),
(431,817,o),
(512,817,qs),
(679,817,o),
(866,639,o),
(866,479,qs),
(866,317,o),
(685,141,o),
(518,141,qs),
(421,141,o),
(235,190,o),
(143,240,q),
(143,35,l),
(221,3,o),
(418,-29,o),
(537,-29,qs),
(784,-29,o),
(1069,243,o),
(1069,479,qs),
(1069,713,o),
(797,987,o),
(565,987,qs),
(521,987,o),
(434,972,o),
(391,956,q),
(391,1323,l),
(963,1323,l),
(963,1493,l),
(207,1493,l),
(207,743,l)
);
}
);
userData = {
assembly = "NPUSHB[ ]	/* 34 values pushed */
4 7 29 26 151 7 17 139 16 142 20 151 13 2 151 0 136 13 153 7 170 30 3 30 0 23 30 1 10 34 0 16 31 30
SRP0[ ]	/* SetRefPoint0 */
MIRP[11100]	/* MoveIndirectRelPt */
MDRP[00100]	/* MoveDirectRelPt */
MIRP[11100]	/* MoveIndirectRelPt */
MDRP[00100]	/* MoveDirectRelPt */
MIRP[01100]	/* MoveIndirectRelPt */
SRP0[ ]	/* SetRefPoint0 */
MIRP[01110]	/* MoveIndirectRelPt */
IUP[1]	/* InterpolateUntPts */
SVTCA[0]	/* SetFreedomAndProjectionVectorToAxis */
SRP0[ ]	/* SetRefPoint0 */
MIRP[00100]	/* MoveIndirectRelPt */
MIRP[00100]	/* MoveIndirectRelPt */
MIRP[10100]	/* MoveIndirectRelPt */
MIRP[01100]	/* MoveIndirectRelPt */
SRP0[ ]	/* SetRefPoint0 */
MIRP[01110]	/* MoveIndirectRelPt */
MIRP[10110]	/* MoveIndirectRelPt */
MIRP[01110]	/* MoveIndirectRelPt */
SRP0[ ]	/* SetRefPoint0 */
MIRP[11110]	/* MoveIndirectRelPt */
MDRP[00100]	/* MoveDirectRelPt */
SRP2[ ]	/* SetRefPoint2 */
IP[ ]	/* InterpolatePts */
IUP[0]	/* InterpolateUntPts */";
};
width = 1233;
},
{
layerId = "226C7162-7035-4DCE-8E35-7C345FD184FF";
shapes = (
{
closed = 1;
nodes = (
(428,781,o),
(593,821,o),
(672,821,qs),
(814,821,o),
(975,675,o),
(975,547,qs),
(975,373,o),
(731,139,o),
(545,139,qs),
(451,139,o),
(275,189,o),
(191,240,q),
(150,35,l),
(222,4,o),
(409,-29,o),
(517,-29,qs),
(660,-29,o),
(887,51,o),
(975,131,qs),
(1071,217,o),
(1176,451,o),
(1176,575,qs),
(1176,760,o),
(946,987,o),
(758,987,qs),
(714,987,o),
(625,972,o),
(578,956,q),
(650,1323,l),
(1221,1323,l),
(1254,1493,l),
(498,1493,l),
(353,743,l)
);
}
);
userData = {
assembly = "NPUSHB[ ]	/* 56 values pushed */
7 6 5 3 8 4 5 32 0 32 3 5 0 0 32 58 4 7 32 29 99 7 20 87 19 98 23 99 16 2 99 0 81 16 101 7 33 32 20 3 0 4 26 19 2 10 1 4 26 19 1 26 19 10 19 33
SRP0[ ]	/* SetRefPoint0 */
MDRP[10100]	/* MoveDirectRelPt */
MDRP[10100]	/* MoveDirectRelPt */
MIRP[01100]	/* MoveIndirectRelPt */
MDRP[00000]	/* MoveDirectRelPt */
SRP1[ ]	/* SetRefPoint1 */
SRP2[ ]	/* SetRefPoint2 */
IP[ ]	/* InterpolatePts */
SRP1[ ]	/* SetRefPoint1 */
SRP2[ ]	/* SetRefPoint2 */
IP[ ]	/* InterpolatePts */
SRP1[ ]	/* SetRefPoint1 */
SRP2[ ]	/* SetRefPoint2 */
SLOOP[ ]	/* SetLoopVariable */
IP[ ]	/* InterpolatePts */
IUP[1]	/* InterpolateUntPts */
SVTCA[0]	/* SetFreedomAndProjectionVectorToAxis */
SRP0[ ]	/* SetRefPoint0 */
MDRP[00100]	/* MoveDirectRelPt */
MIRP[00100]	/* MoveIndirectRelPt */
MIRP[10100]	/* MoveIndirectRelPt */
MIRP[01100]	/* MoveIndirectRelPt */
SRP0[ ]	/* SetRefPoint0 */
MIRP[01110]	/* MoveIndirectRelPt */
MIRP[10110]	/* MoveIndirectRelPt */
MIRP[01110]	/* MoveIndirectRelPt */
SRP0[ ]	/* SetRefPoint0 */
MIRP[11110]	/* MoveIndirectRelPt */
MDRP[00100]	/* MoveDirectRelPt */
SRP2[ ]	/* SetRefPoint2 */
IP[ ]	/* InterpolatePts */
IUP[0]	/* InterpolateUntPts */
MPPEM[ ]	/* MeasurePixelPerEm */
GTEQ[ ]	/* GreaterThanOrEqual */
IF[ ]	/* If */
SPVTL[1]	/* SetPVectorToLine */
SRP0[ ]	/* SetRefPoint0 */
SFVTCA[1]	/* SetFVectorToAxis */
MIRP[01101]	/* MoveIndirectRelPt */
SPVTL[1]	/* SetPVectorToLine */
SRP0[ ]	/* SetRefPoint0 */
SFVTCA[1]	/* SetFVectorToAxis */
MIRP[01101]	/* MoveIndirectRelPt */
SRP1[ ]	/* SetRefPoint1 */
SLOOP[ ]	/* SetLoopVariable */
IP[ ]	/* InterpolatePts */
EIF[ ]	/* EndIf */
CLEAR[ ]	/* ClearStack */";
};
width = 1233;
}
);
note = five;
unicode = 53;
},
{
glyphname = six;
lastChange = "2026-05-17 08:27:02 +0000";
layers = (
{
layerId = m01;
shapes = (
{
closed = 1;
nodes = (
(774,1520,o),
(700,1520,qs),
(424,1520,o),
(133,1123,o),
(133,745,qs),
(133,344,o),
(375,-29,o),
(635,-29,qs),
(856,-29,o),
(1100,237,o),
(1100,479,qs),
(1100,722,o),
(863,987,o),
(647,987,qs),
(537,987,o),
(367,880,o),
(319,780,q),
(319,1061,o),
(517,1350,o),
(709,1350,qs),
(786,1350,o),
(928,1311,o),
(991,1274,q),
(991,1460,l),
(922,1489,o)
);
},
{
closed = 1;
nodes = (
(901,653,o),
(901,479,qs),
(901,306,o),
(765,129,o),
(631,129,qs),
(502,129,o),
(354,315,o),
(354,479,qs),
(354,643,o),
(502,829,o),
(631,829,qs),
(765,829,o)
);
}
);
userData = {
assembly = "NPUSHB[ ]	/* 35 values pushed */
7 31 25 151 10 31 151 16 10 171 4 1 139 0 142 4 151 22 150 16 153 37 34 30 0 38 13 34 7 6 28 1 19 31 37
SRP0[ ]	/* SetRefPoint0 */
MIRP[11100]	/* MoveIndirectRelPt */
MIRP[01100]	/* MoveIndirectRelPt */
MIRP[01100]	/* MoveIndirectRelPt */
MIRP[11100]	/* MoveIndirectRelPt */
MIRP[00100]	/* MoveIndirectRelPt */
MIRP[01100]	/* MoveIndirectRelPt */
IUP[1]	/* InterpolateUntPts */
SVTCA[0]	/* SetFreedomAndProjectionVectorToAxis */
SRP0[ ]	/* SetRefPoint0 */
MIRP[00100]	/* MoveIndirectRelPt */
MIRP[10100]	/* MoveIndirectRelPt */
MIRP[01100]	/* MoveIndirectRelPt */
MIRP[10100]	/* MoveIndirectRelPt */
MIRP[01100]	/* MoveIndirectRelPt */
SRP0[ ]	/* SetRefPoint0 */
MIRP[00101]	/* MoveIndirectRelPt */
SRP0[ ]	/* SetRefPoint0 */
MIRP[01110]	/* MoveIndirectRelPt */
SRP0[ ]	/* SetRefPoint0 */
MIRP[01110]	/* MoveIndirectRelPt */
SRP1[ ]	/* SetRefPoint1 */
IP[ ]	/* InterpolatePts */
IUP[0]	/* InterpolateUntPts */";
};
width = 1233;
},
{
layerId = "226C7162-7035-4DCE-8E35-7C345FD184FF";
shapes = (
{
closed = 1;
nodes = (
(817,129,o),
(673,129,qs),
(566,129,o),
(444,266,o),
(444,387,qs),
(444,577,o),
(642,829,o),
(788,829,qs),
(895,829,o),
(1011,707,o),
(1011,594,qs),
(1011,397,o)
);
},
{
closed = 1;
nodes = (
(1074,1520,o),
(999,1520,qs),
(792,1520,o),
(487,1305,o),
(389,1090,qs),
(321,944,o),
(243,586,o),
(243,420,qs),
(243,205,o),
(464,-29,o),
(667,-29,qs),
(789,-29,o),
(988,67,o),
(1066,164,qs),
(1134,247,o),
(1214,485,o),
(1214,604,qs),
(1214,788,o),
(1021,987,o),
(843,987,qs),
(730,987,o),
(543,882,o),
(475,780,q),
(530,1063,o),
(781,1350,o),
(974,1350,qs),
(1049,1350,o),
(1185,1311,o),
(1243,1274,q),
(1279,1460,l),
(1216,1489,o)
);
}
);
userData = {
assembly = "NPUSHB[ ]	/* 32 values pushed */
9 99 31 3 99 19 22 114 16 13 87 12 98 16 99 40 97 31 101 43 19 6 0 13 12 0 19 25 6 19 34 43
SRP0[ ]	/* SetRefPoint0 */
MDRP[10100]	/* MoveDirectRelPt */
MIRP[01100]	/* MoveIndirectRelPt */
MDRP[10100]	/* MoveDirectRelPt */
MIRP[01100]	/* MoveIndirectRelPt */
MDRP[00000]	/* MoveDirectRelPt */
MDRP[00000]	/* MoveDirectRelPt */
SRP1[ ]	/* SetRefPoint1 */
SRP2[ ]	/* SetRefPoint2 */
IP[ ]	/* InterpolatePts */
IUP[1]	/* InterpolateUntPts */
SVTCA[0]	/* SetFreedomAndProjectionVectorToAxis */
SRP0[ ]	/* SetRefPoint0 */
MIRP[00100]	/* MoveIndirectRelPt */
MIRP[10100]	/* MoveIndirectRelPt */
MIRP[01100]	/* MoveIndirectRelPt */
MIRP[10100]	/* MoveIndirectRelPt */
MIRP[01100]	/* MoveIndirectRelPt */
SRP0[ ]	/* SetRefPoint0 */
MIRP[10101]	/* MoveIndirectRelPt */
MDRP[00110]	/* MoveDirectRelPt */
MIRP[01110]	/* MoveIndirectRelPt */
SRP0[ ]	/* SetRefPoint0 */
MIRP[01110]	/* MoveIndirectRelPt */
IUP[0]	/* InterpolateUntPts */";
};
width = 1233;
}
);
note = six;
unicode = 54;
},
{
glyphname = seven;
lastChange = "2026-05-17 08:27:02 +0000";
layers = (
{
layerId = m01;
shapes = (
{
closed = 1;
nodes = (
(854,1323,l),
(334,0,l),
(545,0,l),
(1079,1407,l),
(1079,1493,l),
(139,1493,l),
(139,1323,l)
);
}
);
userData = {
assembly = "NPUSHB[ ]	/* 25 values pushed */
5 37 2 3 2 3 37 4 5 4 66 5 151 0 136 3 5 3 1 4 1 34 0 31 7
SRP0[ ]	/* SetRefPoint0 */
MIRP[11100]	/* MoveIndirectRelPt */
MIRP[01100]	/* MoveIndirectRelPt */
MDRP[00100]	/* MoveDirectRelPt */
SRP1[ ]	/* SetRefPoint1 */
IP[ ]	/* InterpolatePts */
IP[ ]	/* InterpolatePts */
IUP[1]	/* InterpolateUntPts */
SVTCA[0]	/* SetFreedomAndProjectionVectorToAxis */
MDAP[1]	/* MoveDirectAbsPt */
MIRP[10100]	/* MoveIndirectRelPt */
MIRP[01100]	/* MoveIndirectRelPt */
IUP[0]	/* InterpolateUntPts */
MPPEM[ ]	/* MeasurePixelPerEm */
GTEQ[ ]	/* GreaterThanOrEqual */
IF[ ]	/* If */
SPVTL[1]	/* SetPVectorToLine */
SRP0[ ]	/* SetRefPoint0 */
SFVTCA[1]	/* SetFVectorToAxis */
MIRP[01101]	/* MoveIndirectRelPt */
SPVTL[1]	/* SetPVectorToLine */
SRP0[ ]	/* SetRefPoint0 */
SFVTCA[1]	/* SetFVectorToAxis */
MIRP[01101]	/* MoveIndirectRelPt */
EIF[ ]	/* EndIf */
CLEAR[ ]	/* ClearStack */";
};
width = 1233;
},
{
layerId = "226C7162-7035-4DCE-8E35-7C345FD184FF";
shapes = (
{
closed = 1;
nodes = (
(1105,1323,l),
(327,0,l),
(544,0,l),
(1349,1399,l),
(1365,1493,l),
(429,1493,l),
(397,1323,l)
);
}
);
userData = {
assembly = "NPUSHB[ ]	/* 25 values pushed */
5 5 2 3 2 3 5 4 5 4 58 5 99 0 81 3 5 3 0 3 6 1 6 4 7
SRP0[ ]	/* SetRefPoint0 */
MDRP[10100]	/* MoveDirectRelPt */
MDRP[00100]	/* MoveDirectRelPt */
MDRP[01100]	/* MoveDirectRelPt */
SRP1[ ]	/* SetRefPoint1 */
SLOOP[ ]	/* SetLoopVariable */
IP[ ]	/* InterpolatePts */
IUP[1]	/* InterpolateUntPts */
SVTCA[0]	/* SetFreedomAndProjectionVectorToAxis */
MDAP[1]	/* MoveDirectAbsPt */
MIRP[10100]	/* MoveIndirectRelPt */
MIRP[01100]	/* MoveIndirectRelPt */
IUP[0]	/* InterpolateUntPts */
MPPEM[ ]	/* MeasurePixelPerEm */
GTEQ[ ]	/* GreaterThanOrEqual */
IF[ ]	/* If */
SPVTL[1]	/* SetPVectorToLine */
SRP0[ ]	/* SetRefPoint0 */
SFVTCA[1]	/* SetFVectorToAxis */
MIRP[01101]	/* MoveIndirectRelPt */
SPVTL[1]	/* SetPVectorToLine */
SRP0[ ]	/* SetRefPoint0 */
SFVTCA[1]	/* SetFVectorToAxis */
MIRP[01101]	/* MoveIndirectRelPt */
EIF[ ]	/* EndIf */
CLEAR[ ]	/* ClearStack */";
};
width = 1233;
}
);
note = seven;
unicode = 55;
},
{
glyphname = eight;
lastChange = "2026-05-17 08:27:02 +0000";
layers = (
{
layerId = m01;
shapes = (
{
closed = 1;
nodes = (
(899,557,o),
(899,420,qs),
(899,280,o),
(752,129,o),
(616,129,qs),
(483,129,o),
(334,282,o),
(334,420,qs),
(334,558,o),
(481,709,o),
(616,709,qs),
(750,709,o)
);
},
{
closed = 1;
nodes = (
(131,559,o),
(131,399,qs),
(131,198,o),
(388,-29,o),
(616,-29,qs),
(844,-29,o),
(1102,199,o),
(1102,401,qs),
(1102,560,o),
(943,760,o),
(793,793,q),
(922,826,o),
(1067,1006,o),
(1067,1133,qs),
(1067,1311,o),
(825,1520,o),
(616,1520,qs),
(408,1520,o),
(166,1311,o),
(166,1133,qs),
(166,1006,o),
(311,826,o),
(440,793,q),
(290,760,o)
);
},
{
closed = 1;
nodes = (
(495,1364,o),
(616,1364,qs),
(739,1364,o),
(866,1236,o),
(866,1114,qs),
(866,994,o),
(738,868,o),
(616,868,qs),
(495,868,o),
(367,994,o),
(367,1114,qs),
(367,1235,o)
);
}
);
userData = {
assembly = "NPUSHB[ ]	/* 37 values pushed */
24 12 0 151 39 6 151 30 45 151 18 150 30 153 39 169 48 24 12 36 42 30 21 36 30 15 9 30 21 27 34 3 30 15 33 31 48
SRP0[ ]	/* SetRefPoint0 */
MIRP[11100]	/* MoveIndirectRelPt */
MDRP[00100]	/* MoveDirectRelPt */
MIRP[01100]	/* MoveIndirectRelPt */
MIRP[11100]	/* MoveIndirectRelPt */
MDRP[00100]	/* MoveDirectRelPt */
MIRP[01100]	/* MoveIndirectRelPt */
SRP0[ ]	/* SetRefPoint0 */
MIRP[01110]	/* MoveIndirectRelPt */
SRP0[ ]	/* SetRefPoint0 */
MIRP[01110]	/* MoveIndirectRelPt */
SRP1[ ]	/* SetRefPoint1 */
IP[ ]	/* InterpolatePts */
IP[ ]	/* InterpolatePts */
IUP[1]	/* InterpolateUntPts */
SVTCA[0]	/* SetFreedomAndProjectionVectorToAxis */
SRP0[ ]	/* SetRefPoint0 */
MIRP[01100]	/* MoveIndirectRelPt */
MIRP[00100]	/* MoveIndirectRelPt */
MIRP[10100]	/* MoveIndirectRelPt */
MIRP[01100]	/* MoveIndirectRelPt */
SRP0[ ]	/* SetRefPoint0 */
MIRP[01110]	/* MoveIndirectRelPt */
SRP0[ ]	/* SetRefPoint0 */
MIRP[01110]	/* MoveIndirectRelPt */
IP[ ]	/* InterpolatePts */
IP[ ]	/* InterpolatePts */
IUP[0]	/* InterpolateUntPts */";
};
width = 1233;
},
{
layerId = "226C7162-7035-4DCE-8E35-7C345FD184FF";
shapes = (
{
closed = 1;
nodes = (
(808,127,o),
(660,127,qs),
(548,127,o),
(414,253,o),
(414,358,qs),
(414,512,o),
(597,709,o),
(739,709,qs),
(857,709,o),
(989,577,o),
(989,461,qs),
(989,311,o)
);
},
{
closed = 1;
nodes = (
(209,520,o),
(209,354,qs),
(209,175,o),
(446,-29,o),
(653,-29,qs),
(890,-29,o),
(1194,244,o),
(1194,453,qs),
(1194,586,o),
(1066,752,o),
(940,782,q),
(1100,823,o),
(1294,1050,o),
(1294,1194,qs),
(1294,1338,o),
(1071,1520,o),
(893,1520,qs),
(679,1520,o),
(383,1263,o),
(383,1081,qs),
(383,976,o),
(491,831,o),
(598,793,q),
(418,756,o)
);
},
{
closed = 1;
nodes = (
(1094,1256,o),
(1094,1165,qs),
(1094,1040,o),
(926,866,o),
(803,866,qs),
(701,866,o),
(584,980,o),
(584,1079,qs),
(584,1203,o),
(748,1364,o),
(875,1364,qs),
(974,1364,o)
);
}
);
userData = {
assembly = "NPUSHB[ ]	/* 34 values pushed */
24 12 3 99 42 9 99 30 36 99 18 97 30 101 42 116 48 24 12 0 39 19 15 0 19 27 45 19 21 6 19 15 33 48
SRP0[ ]	/* SetRefPoint0 */
MDRP[10100]	/* MoveDirectRelPt */
MDRP[00100]	/* MoveDirectRelPt */
MIRP[01100]	/* MoveIndirectRelPt */
MDRP[10100]	/* MoveDirectRelPt */
MIRP[01100]	/* MoveIndirectRelPt */
MDRP[10100]	/* MoveDirectRelPt */
MIRP[01100]	/* MoveIndirectRelPt */
SRP0[ ]	/* SetRefPoint0 */
MIRP[01110]	/* MoveIndirectRelPt */
SRP1[ ]	/* SetRefPoint1 */
IP[ ]	/* InterpolatePts */
IP[ ]	/* InterpolatePts */
IUP[1]	/* InterpolateUntPts */
SVTCA[0]	/* SetFreedomAndProjectionVectorToAxis */
SRP0[ ]	/* SetRefPoint0 */
MIRP[01100]	/* MoveIndirectRelPt */
MIRP[00100]	/* MoveIndirectRelPt */
MIRP[10100]	/* MoveIndirectRelPt */
MIRP[01100]	/* MoveIndirectRelPt */
SRP0[ ]	/* SetRefPoint0 */
MIRP[01110]	/* MoveIndirectRelPt */
SRP0[ ]	/* SetRefPoint0 */
MIRP[01110]	/* MoveIndirectRelPt */
IP[ ]	/* InterpolatePts */
IP[ ]	/* InterpolatePts */
IUP[0]	/* InterpolateUntPts */";
};
width = 1233;
}
);
note = eight;
unicode = 56;
},
{
glyphname = nine;
lastChange = "2026-05-17 08:27:02 +0000";
layers = (
{
layerId = m01;
shapes = (
{
closed = 1;
nodes = (
(326,838,o),
(326,1012,qs),
(326,1185,o),
(462,1362,o),
(596,1362,qs),
(725,1362,o),
(872,1176,o),
(872,1012,qs),
(872,848,o),
(725,662,o),
(596,662,qs),
(461,662,o)
);
},
{
closed = 1;
nodes = (
(453,-29,o),
(526,-29,qs),
(803,-29,o),
(1094,368,o),
(1094,745,qs),
(1094,1146,o),
(852,1520,o),
(592,1520,qs),
(370,1520,o),
(127,1255,o),
(127,1014,qs),
(127,770,o),
(364,504,o),
(580,504,qs),
(690,504,o),
(860,611,o),
(907,711,q),
(907,430,o),
(710,141,o),
(518,141,qs),
(441,141,o),
(299,180,o),
(236,217,q),
(236,31,l),
(305,2,o)
);
}
);
userData = {
assembly = "NPUSHB[ ]	/* 34 values pushed */
19 6 0 151 22 171 16 13 139 12 142 16 151 34 6 151 28 150 34 153 37 19 6 3 1 31 34 9 30 12 38 25 31 37
SRP0[ ]	/* SetRefPoint0 */
MIRP[11100]	/* MoveIndirectRelPt */
MIRP[00100]	/* MoveIndirectRelPt */
MIRP[01100]	/* MoveIndirectRelPt */
MIRP[11100]	/* MoveIndirectRelPt */
MIRP[01100]	/* MoveIndirectRelPt */
MIRP[01100]	/* MoveIndirectRelPt */
IUP[1]	/* InterpolateUntPts */
SVTCA[0]	/* SetFreedomAndProjectionVectorToAxis */
SRP0[ ]	/* SetRefPoint0 */
MIRP[00100]	/* MoveIndirectRelPt */
MIRP[10100]	/* MoveIndirectRelPt */
MIRP[01100]	/* MoveIndirectRelPt */
SRP0[ ]	/* SetRefPoint0 */
MIRP[01110]	/* MoveIndirectRelPt */
MIRP[10110]	/* MoveIndirectRelPt */
MIRP[01110]	/* MoveIndirectRelPt */
SRP0[ ]	/* SetRefPoint0 */
MIRP[10101]	/* MoveIndirectRelPt */
MIRP[01110]	/* MoveIndirectRelPt */
SRP1[ ]	/* SetRefPoint1 */
IP[ ]	/* InterpolatePts */
IUP[0]	/* InterpolateUntPts */";
};
width = 1233;
},
{
layerId = "226C7162-7035-4DCE-8E35-7C345FD184FF";
shapes = (
{
closed = 1;
nodes = (
(712,1362,o),
(856,1362,qs),
(963,1362,o),
(1083,1226,o),
(1083,1104,qs),
(1083,914,o),
(885,662,o),
(739,662,qs),
(632,662,o),
(516,784,o),
(516,897,qs),
(516,1094,o)
);
},
{
closed = 1;
nodes = (
(453,-29,o),
(528,-29,qs),
(736,-29,o),
(1042,187,o),
(1140,401,qs),
(1208,547,o),
(1286,905,o),
(1286,1071,qs),
(1286,1285,o),
(1063,1520,o),
(860,1520,qs),
(738,1520,o),
(538,1423,o),
(460,1327,qs),
(393,1244,o),
(313,1007,o),
(313,889,qs),
(313,704,o),
(506,504,o),
(684,504,qs),
(797,504,o),
(984,609,o),
(1052,711,q),
(997,428,o),
(746,141,o),
(553,141,qs),
(478,141,o),
(342,180,o),
(284,217,q),
(249,31,l),
(313,1,o)
);
}
);
userData = {
assembly = "NPUSHB[ ]	/* 27 values pushed */
3 99 19 22 114 16 13 12 16 99 40 9 99 31 97 40 101 43 19 0 6 19 34 0 19 25 43
SRP0[ ]	/* SetRefPoint0 */
MDRP[10100]	/* MoveDirectRelPt */
MIRP[01100]	/* MoveIndirectRelPt */
MDRP[10100]	/* MoveDirectRelPt */
MIRP[01100]	/* MoveIndirectRelPt */
SRP1[ ]	/* SetRefPoint1 */
IP[ ]	/* InterpolatePts */
IUP[1]	/* InterpolateUntPts */
SVTCA[0]	/* SetFreedomAndProjectionVectorToAxis */
SRP0[ ]	/* SetRefPoint0 */
MIRP[00100]	/* MoveIndirectRelPt */
MIRP[10100]	/* MoveIndirectRelPt */
MIRP[01100]	/* MoveIndirectRelPt */
SRP0[ ]	/* SetRefPoint0 */
MIRP[01110]	/* MoveIndirectRelPt */
MDRP[10110]	/* MoveDirectRelPt */
MDRP[00110]	/* MoveDirectRelPt */
SRP0[ ]	/* SetRefPoint0 */
MIRP[10101]	/* MoveIndirectRelPt */
MDRP[00110]	/* MoveDirectRelPt */
MIRP[01110]	/* MoveIndirectRelPt */
IUP[0]	/* InterpolateUntPts */";
};
width = 1233;
}
);
note = nine;
unicode = 57;
},
{
glyphname = colon;
lastChange = "2026-05-17 08:27:02 +0000";
layers = (
{
layerId = m01;
shapes = (
{
closed = 1;
nodes = (
(742,760,l),
(742,1063,l),
(490,1063,l),
(490,760,l)
);
},
{
closed = 1;
nodes = (
(742,0,l),
(742,303,l),
(490,303,l),
(490,0,l)
);
}
);
userData = {
assembly = "NPUSHB[ ]	/* 13 values pushed */
2 162 0 172 4 162 6 5 1 29 4 0 8
SRP0[ ]	/* SetRefPoint0 */
MDRP[10100]	/* MoveDirectRelPt */
ALIGNRP[ ]	/* AlignRelativePt */
MIRP[01100]	/* MoveIndirectRelPt */
SHP[0]	/* ShiftPointByLastPoint */
IUP[1]	/* InterpolateUntPts */
SVTCA[0]	/* SetFreedomAndProjectionVectorToAxis */
MDAP[1]	/* MoveDirectAbsPt */
MIRP[01100]	/* MoveIndirectRelPt */
MIRP[10100]	/* MoveIndirectRelPt */
MIRP[01100]	/* MoveIndirectRelPt */
IUP[0]	/* InterpolateUntPts */";
};
width = 1233;
},
{
guides = (
{
angle = 258.7992;
pos = (396,152);
}
);
layerId = "226C7162-7035-4DCE-8E35-7C345FD184FF";
shapes = (
{
closed = 1;
nodes = (
(892,760,l),
(952,1063,l),
(700,1063,l),
(641,760,l)
);
},
{
closed = 1;
nodes = (
(742,0,l),
(801,303,l),
(549,303,l),
(490,0,l)
);
}
);
userData = {
assembly = "NPUSHB[ ]	/* 41 values pushed */
2 16 3 0 3 1 16 0 0 3 6 16 7 4 7 5 16 4 4 7 58 2 110 0 117 4 110 6 6 5 2 3 1 3 2 0 20 4 2 7 8
SRP0[ ]	/* SetRefPoint0 */
MDRP[10100]	/* MoveDirectRelPt */
MIRP[00100]	/* MoveIndirectRelPt */
MIRP[10100]	/* MoveIndirectRelPt */
MIRP[00100]	/* MoveIndirectRelPt */
MDRP[00000]	/* MoveDirectRelPt */
SLOOP[ ]	/* SetLoopVariable */
IP[ ]	/* InterpolatePts */
IUP[1]	/* InterpolateUntPts */
SVTCA[0]	/* SetFreedomAndProjectionVectorToAxis */
MDAP[1]	/* MoveDirectAbsPt */
MIRP[01100]	/* MoveIndirectRelPt */
MIRP[10100]	/* MoveIndirectRelPt */
MIRP[01100]	/* MoveIndirectRelPt */
IUP[0]	/* InterpolateUntPts */
MPPEM[ ]	/* MeasurePixelPerEm */
GTEQ[ ]	/* GreaterThanOrEqual */
IF[ ]	/* If */
SPVTL[1]	/* SetPVectorToLine */
SRP0[ ]	/* SetRefPoint0 */
SFVTCA[1]	/* SetFVectorToAxis */
MIRP[01101]	/* MoveIndirectRelPt */
SPVTL[1]	/* SetPVectorToLine */
SRP0[ ]	/* SetRefPoint0 */
SFVTCA[1]	/* SetFVectorToAxis */
MIRP[01101]	/* MoveIndirectRelPt */
SPVTL[1]	/* SetPVectorToLine */
SRP0[ ]	/* SetRefPoint0 */
SFVTCA[1]	/* SetFVectorToAxis */
MIRP[01101]	/* MoveIndirectRelPt */
SPVTL[1]	/* SetPVectorToLine */
SRP0[ ]	/* SetRefPoint0 */
SFVTCA[1]	/* SetFVectorToAxis */
MIRP[01101]	/* MoveIndirectRelPt */
EIF[ ]	/* EndIf */
CLEAR[ ]	/* ClearStack */";
};
width = 1233;
}
);
note = colon;
unicode = 58;
},
{
glyphname = semicolon;
lastChange = "2026-05-17 08:27:02 +0000";
layers = (
{
layerId = m01;
shapes = (
{
closed = 1;
nodes = (
(391,-287,l),
(545,-287,l),
(742,96,l),
(742,303,l),
(490,303,l),
(490,96,l)
);
},
{
closed = 1;
nodes = (
(742,760,l),
(742,1063,l),
(490,1063,l),
(490,760,l)
);
}
);
userData = {
assembly = "NPUSHB[ ]	/* 19 values pushed */
8 162 6 3 163 0 162 6 172 10 3 4 0 29 1 7 29 6 10
SRP0[ ]	/* SetRefPoint0 */
MDRP[10100]	/* MoveDirectRelPt */
MIRP[11100]	/* MoveIndirectRelPt */
MDRP[10100]	/* MoveDirectRelPt */
MIRP[11100]	/* MoveIndirectRelPt */
MDRP[10100]	/* MoveDirectRelPt */
MDRP[01100]	/* MoveDirectRelPt */
IUP[1]	/* InterpolateUntPts */
SVTCA[0]	/* SetFreedomAndProjectionVectorToAxis */
SRP0[ ]	/* SetRefPoint0 */
MIRP[00100]	/* MoveIndirectRelPt */
MIRP[11100]	/* MoveIndirectRelPt */
MIRP[01100]	/* MoveIndirectRelPt */
SRP0[ ]	/* SetRefPoint0 */
MIRP[01110]	/* MoveIndirectRelPt */
IUP[0]	/* InterpolateUntPts */";
};
width = 1233;
},
{
guides = (
{
angle = 258.7992;
pos = (381,152);
},
{
angle = 78.7966;
pos = (643,200);
}
);
layerId = "226C7162-7035-4DCE-8E35-7C345FD184FF";
shapes = (
{
closed = 1;
nodes = (
(335,-287,l),
(488,-287,l),
(746,96,l),
(787,303,l),
(535,303,l),
(494,96,l)
);
},
{
closed = 1;
nodes = (
(878,760,l),
(938,1063,l),
(685,1063,l),
(625,760,l)
);
}
);
userData = {
assembly = "NPUSHB[ ]	/* 46 values pushed */
8 16 9 6 9 7 16 6 6 9 4 3 2 5 2 16 5 0 5 1 16 0 0 5 58 8 110 6 3 111 0 110 6 117 10 8 1 7 9 2 6 5 2 4 0 10
SRP0[ ]	/* SetRefPoint0 */
MDRP[10100]	/* MoveDirectRelPt */
MDRP[00100]	/* MoveDirectRelPt */
MIRP[00100]	/* MoveIndirectRelPt */
MDRP[10100]	/* MoveDirectRelPt */
MIRP[00100]	/* MoveIndirectRelPt */
MDRP[00000]	/* MoveDirectRelPt */
IP[ ]	/* InterpolatePts */
IP[ ]	/* InterpolatePts */
IUP[1]	/* InterpolateUntPts */
SVTCA[0]	/* SetFreedomAndProjectionVectorToAxis */
SRP0[ ]	/* SetRefPoint0 */
MIRP[00100]	/* MoveIndirectRelPt */
MIRP[11100]	/* MoveIndirectRelPt */
MIRP[01100]	/* MoveIndirectRelPt */
SRP0[ ]	/* SetRefPoint0 */
MIRP[01110]	/* MoveIndirectRelPt */
IUP[0]	/* InterpolateUntPts */
MPPEM[ ]	/* MeasurePixelPerEm */
GTEQ[ ]	/* GreaterThanOrEqual */
IF[ ]	/* If */
SPVTL[1]	/* SetPVectorToLine */
SRP0[ ]	/* SetRefPoint0 */
SFVTCA[1]	/* SetFVectorToAxis */
MIRP[01101]	/* MoveIndirectRelPt */
SPVTL[1]	/* SetPVectorToLine */
SRP0[ ]	/* SetRefPoint0 */
SFVTCA[1]	/* SetFVectorToAxis */
MIRP[01101]	/* MoveIndirectRelPt */
SRP1[ ]	/* SetRefPoint1 */
SLOOP[ ]	/* SetLoopVariable */
IP[ ]	/* InterpolatePts */
SPVTL[1]	/* SetPVectorToLine */
SRP0[ ]	/* SetRefPoint0 */
SFVTCA[1]	/* SetFVectorToAxis */
MIRP[01101]	/* MoveIndirectRelPt */
SPVTL[1]	/* SetPVectorToLine */
SRP0[ ]	/* SetRefPoint0 */
SFVTCA[1]	/* SetFVectorToAxis */
MIRP[01101]	/* MoveIndirectRelPt */
EIF[ ]	/* EndIf */
CLEAR[ ]	/* ClearStack */";
};
width = 1233;
}
);
note = semicolon;
unicode = 59;
},
{
glyphname = less;
lastChange = "2026-05-17 08:27:02 +0000";
layers = (
{
layerId = m01;
shapes = (
{
closed = 1;
nodes = (
(88,725,l),
(88,559,l),
(1145,141,l),
(1145,324,l),
(295,641,l),
(1145,961,l),
(1145,1143,l)
);
}
);
userData = {
assembly = "NPUSHB[ ]	/* 18 values pushed */
5 4 2 1 0 5 3 174 6 173 7 1 2 0 40 4 39 7
SRP0[ ]	/* SetRefPoint0 */
MIRP[11100]	/* MoveIndirectRelPt */
MIRP[01100]	/* MoveIndirectRelPt */
SHP[0]	/* ShiftPointByLastPoint */
IP[ ]	/* InterpolatePts */
IUP[1]	/* InterpolateUntPts */
SVTCA[0]	/* SetFreedomAndProjectionVectorToAxis */
SRP0[ ]	/* SetRefPoint0 */
MIRP[10100]	/* MoveIndirectRelPt */
MIRP[01100]	/* MoveIndirectRelPt */
SLOOP[ ]	/* SetLoopVariable */
IP[ ]	/* InterpolatePts */
IUP[0]	/* InterpolateUntPts */";
};
width = 1233;
},
{
layerId = "226C7162-7035-4DCE-8E35-7C345FD184FF";
shapes = (
{
closed = 1;
nodes = (
(229,725,l),
(229,559,l),
(1286,141,l),
(1286,324,l),
(436,641,l),
(1286,961,l),
(1286,1143,l)
);
}
);
userData = {
assembly = "NPUSHB[ ]	/* 18 values pushed */
5 4 2 1 0 5 3 119 6 118 7 1 2 0 22 4 21 7
SRP0[ ]	/* SetRefPoint0 */
MIRP[11100]	/* MoveIndirectRelPt */
MIRP[01100]	/* MoveIndirectRelPt */
SHP[0]	/* ShiftPointByLastPoint */
IP[ ]	/* InterpolatePts */
IUP[1]	/* InterpolateUntPts */
SVTCA[0]	/* SetFreedomAndProjectionVectorToAxis */
SRP0[ ]	/* SetRefPoint0 */
MIRP[10100]	/* MoveIndirectRelPt */
MIRP[01100]	/* MoveIndirectRelPt */
SLOOP[ ]	/* SetLoopVariable */
IP[ ]	/* InterpolatePts */
IUP[0]	/* InterpolateUntPts */";
};
width = 1233;
}
);
note = less;
unicode = 60;
},
{
glyphname = equal;
lastChange = "2026-05-17 08:27:02 +0000";
layers = (
{
layerId = m01;
shapes = (
{
closed = 1;
nodes = (
(1145,319,l),
(1145,489,l),
(88,489,l),
(88,319,l)
);
},
{
closed = 1;
nodes = (
(1145,795,l),
(1145,965,l),
(88,965,l),
(88,795,l)
);
}
);
userData = {
assembly = "NPUSHB[ ]	/* 12 values pushed */
4 160 6 2 160 0 8 5 1 4 0 8
SRP0[ ]	/* SetRefPoint0 */
MDRP[10100]	/* MoveDirectRelPt */
ALIGNRP[ ]	/* AlignRelativePt */
MDRP[00100]	/* MoveDirectRelPt */
SHP[0]	/* ShiftPointByLastPoint */
IUP[1]	/* InterpolateUntPts */
SVTCA[0]	/* SetFreedomAndProjectionVectorToAxis */
SRP0[ ]	/* SetRefPoint0 */
MDRP[10100]	/* MoveDirectRelPt */
MIRP[01100]	/* MoveIndirectRelPt */
MDRP[10100]	/* MoveDirectRelPt */
MIRP[01100]	/* MoveIndirectRelPt */
IUP[0]	/* InterpolateUntPts */";
};
width = 1233;
},
{
layerId = "226C7162-7035-4DCE-8E35-7C345FD184FF";
shapes = (
{
closed = 1;
nodes = (
(1333,319,l),
(1333,489,l),
(276,489,l),
(276,319,l)
);
},
{
closed = 1;
nodes = (
(1333,795,l),
(1333,965,l),
(276,965,l),
(276,795,l)
);
}
);
userData = {
assembly = "NPUSHB[ ]	/* 12 values pushed */
4 108 6 2 108 0 8 5 1 4 0 8
SRP0[ ]	/* SetRefPoint0 */
MDRP[10100]	/* MoveDirectRelPt */
ALIGNRP[ ]	/* AlignRelativePt */
MDRP[00100]	/* MoveDirectRelPt */
SHP[0]	/* ShiftPointByLastPoint */
IUP[1]	/* InterpolateUntPts */
SVTCA[0]	/* SetFreedomAndProjectionVectorToAxis */
SRP0[ ]	/* SetRefPoint0 */
MDRP[10100]	/* MoveDirectRelPt */
MIRP[01100]	/* MoveIndirectRelPt */
MDRP[10100]	/* MoveDirectRelPt */
MIRP[01100]	/* MoveIndirectRelPt */
IUP[0]	/* InterpolateUntPts */";
};
width = 1233;
}
);
note = equal;
unicode = 61;
},
{
glyphname = greater;
lastChange = "2026-05-17 08:27:02 +0000";
layers = (
{
layerId = m01;
shapes = (
{
closed = 1;
nodes = (
(88,324,l),
(88,141,l),
(1145,559,l),
(1145,725,l),
(88,1143,l),
(88,961,l),
(938,641,l)
);
}
);
userData = {
assembly = "NPUSHB[ ]	/* 18 values pushed */
6 5 3 2 0 5 4 174 1 173 7 6 2 40 4 0 39 7
SRP0[ ]	/* SetRefPoint0 */
MIRP[11100]	/* MoveIndirectRelPt */
ALIGNRP[ ]	/* AlignRelativePt */
MIRP[01100]	/* MoveIndirectRelPt */
IP[ ]	/* InterpolatePts */
IUP[1]	/* InterpolateUntPts */
SVTCA[0]	/* SetFreedomAndProjectionVectorToAxis */
SRP0[ ]	/* SetRefPoint0 */
MIRP[10100]	/* MoveIndirectRelPt */
MIRP[01100]	/* MoveIndirectRelPt */
SLOOP[ ]	/* SetLoopVariable */
IP[ ]	/* InterpolatePts */
IUP[0]	/* InterpolateUntPts */";
};
width = 1233;
},
{
layerId = "226C7162-7035-4DCE-8E35-7C345FD184FF";
shapes = (
{
closed = 1;
nodes = (
(310,324,l),
(310,141,l),
(1367,559,l),
(1367,725,l),
(310,1143,l),
(310,961,l),
(1160,641,l)
);
}
);
userData = {
assembly = "NPUSHB[ ]	/* 18 values pushed */
6 5 3 2 0 5 4 119 1 118 7 6 2 22 4 0 21 7
SRP0[ ]	/* SetRefPoint0 */
MIRP[11100]	/* MoveIndirectRelPt */
ALIGNRP[ ]	/* AlignRelativePt */
MIRP[01100]	/* MoveIndirectRelPt */
IP[ ]	/* InterpolatePts */
IUP[1]	/* InterpolateUntPts */
SVTCA[0]	/* SetFreedomAndProjectionVectorToAxis */
SRP0[ ]	/* SetRefPoint0 */
MIRP[10100]	/* MoveIndirectRelPt */
MIRP[01100]	/* MoveIndirectRelPt */
SLOOP[ ]	/* SetLoopVariable */
IP[ ]	/* InterpolatePts */
IUP[0]	/* InterpolateUntPts */";
};
width = 1233;
}
);
note = greater;
unicode = 62;
},
{
glyphname = question;
lastChange = "2026-05-17 08:27:02 +0000";
layers = (
{
layerId = m01;
shapes = (
{
closed = 1;
nodes = (
(684,571,ls),
(684,632,o),
(722,716,o),
(791,782,qs),
(879,868,ls),
(973,960,o),
(1040,1091,o),
(1040,1167,qs),
(1040,1328,o),
(819,1520,o),
(633,1520,qs),
(529,1520,o),
(338,1464,o),
(244,1407,q),
(244,1219,l),
(342,1287,o),
(520,1356,o),
(598,1356,qs),
(707,1356,o),
(838,1246,o),
(838,1157,qs),
(838,1108,o),
(791,1020,o),
(729,961,qs),
(639,872,ls),
(555,790,o),
(494,653,o),
(494,555,qs),
(494,401,l),
(684,401,l),
(684,524,l)
);
},
{
closed = 1;
nodes = (
(690,0,l),
(690,254,l),
(487,254,l),
(487,0,l)
);
}
);
userData = {
assembly = "NPUSHB[ ]	/* 66 values pushed */
11 10 9 8 7 5 12 6 37 25 26 25 3 4 2 2 5 37 26 26 25 66 29 26 5 2 4 6 25 15 0 31 16 139 15 141 12 151 19 150 31 134 33 6 32 25 22 9 5 1 0 26 32 9 0 3 1 9 41 22 15 1 32 3 31 35
SRP0[ ]	/* SetRefPoint0 */
MDRP[10100]	/* MoveDirectRelPt */
MIRP[01100]	/* MoveIndirectRelPt */
MDRP[00100]	/* MoveDirectRelPt */
MDRP[10100]	/* MoveDirectRelPt */
MDRP[10100]	/* MoveDirectRelPt */
MIRP[01100]	/* MoveIndirectRelPt */
SRP0[ ]	/* SetRefPoint0 */
MIRP[01110]	/* MoveIndirectRelPt */
SRP1[ ]	/* SetRefPoint1 */
SRP2[ ]	/* SetRefPoint2 */
IP[ ]	/* InterpolatePts */
SRP1[ ]	/* SetRefPoint1 */
SRP2[ ]	/* SetRefPoint2 */
IP[ ]	/* InterpolatePts */
SRP1[ ]	/* SetRefPoint1 */
SRP2[ ]	/* SetRefPoint2 */
IP[ ]	/* InterpolatePts */
SRP2[ ]	/* SetRefPoint2 */
IP[ ]	/* InterpolatePts */
IUP[1]	/* InterpolateUntPts */
SVTCA[0]	/* SetFreedomAndProjectionVectorToAxis */
MDAP[1]	/* MoveDirectAbsPt */
MIRP[01110]	/* MoveIndirectRelPt */
MIRP[10110]	/* MoveIndirectRelPt */
MIRP[11110]	/* MoveIndirectRelPt */
MIRP[10100]	/* MoveIndirectRelPt */
MIRP[01110]	/* MoveIndirectRelPt */
SRP0[ ]	/* SetRefPoint0 */
MDRP[01101]	/* MoveDirectRelPt */
SRP1[ ]	/* SetRefPoint1 */
IP[ ]	/* InterpolatePts */
IP[ ]	/* InterpolatePts */
SLOOP[ ]	/* SetLoopVariable */
IP[ ]	/* InterpolatePts */
IUP[0]	/* InterpolateUntPts */
MPPEM[ ]	/* MeasurePixelPerEm */
GTEQ[ ]	/* GreaterThanOrEqual */
IF[ ]	/* If */
SPVTL[1]	/* SetPVectorToLine */
SRP0[ ]	/* SetRefPoint0 */
SFVTCA[0]	/* SetFVectorToAxis */
MIRP[01101]	/* MoveIndirectRelPt */
SRP1[ ]	/* SetRefPoint1 */
SLOOP[ ]	/* SetLoopVariable */
IP[ ]	/* InterpolatePts */
SPVTL[1]	/* SetPVectorToLine */
SRP0[ ]	/* SetRefPoint0 */
SFVTCA[0]	/* SetFVectorToAxis */
MIRP[01101]	/* MoveIndirectRelPt */
SRP1[ ]	/* SetRefPoint1 */
SLOOP[ ]	/* SetLoopVariable */
IP[ ]	/* InterpolatePts */
EIF[ ]	/* EndIf */
CLEAR[ ]	/* ClearStack */";
};
width = 1233;
},
{
layerId = "226C7162-7035-4DCE-8E35-7C345FD184FF";
shapes = (
{
closed = 1;
nodes = (
(799,610,o),
(859,712,o),
(943,782,qs),
(1048,868,ls),
(1178,976,o),
(1275,1137,o),
(1275,1231,qs),
(1275,1357,o),
(1082,1520,o),
(929,1520,qs),
(828,1520,o),
(626,1464,o),
(517,1407,q),
(481,1219,l),
(586,1285,o),
(783,1356,o),
(862,1356,qs),
(961,1356,o),
(1073,1274,o),
(1073,1200,qs),
(1073,1144,o),
(1002,1033,o),
(917,961,qs),
(810,870,ls),
(697,776,o),
(620,646,o),
(601,555,qs),
(573,401,l),
(763,401,l),
(784,524,ls)
);
},
{
closed = 1;
nodes = (
(692,0,l),
(741,254,l),
(538,254,l),
(487,0,l)
);
}
);
userData = {
assembly = "NPUSHB[ ]	/* 72 values pushed */
0 5 1 2 1 23 24 25 26 27 28 6 22 29 5 2 2 1 32 5 33 30 33 31 5 30 33 58 29 26 5 2 4 6 25 15 0 30 16 99 15 12 99 19 97 30 83 32 32 31 29 26 6 5 2 1 0 9 9 16 33 25 30 9 18 22 15 30 2 33 15 34
SRP0[ ]	/* SetRefPoint0 */
MDRP[00100]	/* MoveDirectRelPt */
MDRP[10100]	/* MoveDirectRelPt */
MIRP[00100]	/* MoveIndirectRelPt */
SRP0[ ]	/* SetRefPoint0 */
MDRP[10110]	/* MoveDirectRelPt */
MIRP[01110]	/* MoveIndirectRelPt */
SRP1[ ]	/* SetRefPoint1 */
IP[ ]	/* InterpolatePts */
SRP2[ ]	/* SetRefPoint2 */
IP[ ]	/* InterpolatePts */
SRP2[ ]	/* SetRefPoint2 */
SLOOP[ ]	/* SetLoopVariable */
IP[ ]	/* InterpolatePts */
IUP[1]	/* InterpolateUntPts */
SVTCA[0]	/* SetFreedomAndProjectionVectorToAxis */
MDAP[1]	/* MoveDirectAbsPt */
MIRP[01110]	/* MoveIndirectRelPt */
MIRP[10110]	/* MoveIndirectRelPt */
MIRP[11110]	/* MoveIndirectRelPt */
MDRP[10100]	/* MoveDirectRelPt */
MIRP[01110]	/* MoveIndirectRelPt */
SRP0[ ]	/* SetRefPoint0 */
MDRP[00101]	/* MoveDirectRelPt */
SRP1[ ]	/* SetRefPoint1 */
IP[ ]	/* InterpolatePts */
IP[ ]	/* InterpolatePts */
SLOOP[ ]	/* SetLoopVariable */
IP[ ]	/* InterpolatePts */
IUP[0]	/* InterpolateUntPts */
MPPEM[ ]	/* MeasurePixelPerEm */
GTEQ[ ]	/* GreaterThanOrEqual */
IF[ ]	/* If */
SPVTL[1]	/* SetPVectorToLine */
SFVTCA[1]	/* SetFVectorToAxis */
MIRP[01101]	/* MoveIndirectRelPt */
SPVTL[1]	/* SetPVectorToLine */
SRP0[ ]	/* SetRefPoint0 */
SFVTCA[1]	/* SetFVectorToAxis */
MIRP[01101]	/* MoveIndirectRelPt */
SPVTL[1]	/* SetPVectorToLine */
SRP0[ ]	/* SetRefPoint0 */
SFVTCA[1]	/* SetFVectorToAxis */
MIRP[01101]	/* MoveIndirectRelPt */
SRP1[ ]	/* SetRefPoint1 */
SLOOP[ ]	/* SetLoopVariable */
IP[ ]	/* InterpolatePts */
SPVTL[1]	/* SetPVectorToLine */
SRP0[ ]	/* SetRefPoint0 */
SFVTCA[1]	/* SetFVectorToAxis */
MIRP[01101]	/* MoveIndirectRelPt */
EIF[ ]	/* EndIf */
CLEAR[ ]	/* ClearStack */";
};
width = 1233;
}
);
note = question;
unicode = 63;
},
{
glyphname = at;
lastChange = "2026-05-17 08:27:02 +0000";
layers = (
{
layerId = m01;
shapes = (
{
closed = 1;
nodes = (
(910,260,o),
(803,260,qs),
(696,260,o),
(567,415,o),
(567,545,qs),
(567,674,o),
(696,829,o),
(803,829,qs),
(910,829,o),
(1038,674,o),
(1038,545,qs),
(1038,415,o)
);
},
{
closed = 1;
nodes = (
(1178,1129,o),
(928,1395,o),
(719,1395,qs),
(403,1395,o),
(27,933,o),
(27,543,qs),
(27,147,o),
(446,-319,o),
(803,-319,qs),
(861,-319,o),
(984,-295,o),
(1047,-270,q),
(999,-135,l),
(942,-156,o),
(834,-176,o),
(780,-176,qs),
(506,-176,o),
(176,214,o),
(176,543,qs),
(176,870,o),
(467,1253,o),
(713,1253,qs),
(858,1253,o),
(1034,1063,o),
(1034,907,qs),
(1034,844,l),
(998,905,o),
(864,975,o),
(784,975,qs),
(623,975,o),
(412,733,o),
(412,545,qs),
(412,357,o),
(623,115,o),
(784,115,qs),
(866,115,o),
(997,183,o),
(1034,246,q),
(1034,135,l),
(1178,135,l),
(1178,905,ls)
);
}
);
userData = {
assembly = "NPUSHB[ ]	/* 49 values pushed */
40 43 36 26 23 3 14 12 9 27 52 3 175 23 9 175 12 17 39 36 175 43 23 30 175 49 43 53 39 13 6 40 12 0 6 43 20 0 26 13 46 12 20 33 43 12 45 46 53
SRP0[ ]	/* SetRefPoint0 */
MDRP[11100]	/* MoveDirectRelPt */
MIRP[01100]	/* MoveIndirectRelPt */
MIRP[11100]	/* MoveIndirectRelPt */
MDRP[00100]	/* MoveDirectRelPt */
SRP0[ ]	/* SetRefPoint0 */
MIRP[11110]	/* MoveIndirectRelPt */
ALIGNRP[ ]	/* AlignRelativePt */
MDRP[00100]	/* MoveDirectRelPt */
SRP0[ ]	/* SetRefPoint0 */
MIRP[01110]	/* MoveIndirectRelPt */
SRP1[ ]	/* SetRefPoint1 */
SRP2[ ]	/* SetRefPoint2 */
IP[ ]	/* InterpolatePts */
SRP1[ ]	/* SetRefPoint1 */
SRP2[ ]	/* SetRefPoint2 */
IP[ ]	/* InterpolatePts */
IUP[1]	/* InterpolateUntPts */
SVTCA[0]	/* SetFreedomAndProjectionVectorToAxis */
SRP0[ ]	/* SetRefPoint0 */
MDRP[00100]	/* MoveDirectRelPt */
MDRP[10100]	/* MoveDirectRelPt */
MIRP[11100]	/* MoveIndirectRelPt */
MDRP[00100]	/* MoveDirectRelPt */
SRP0[ ]	/* SetRefPoint0 */
MIRP[11110]	/* MoveIndirectRelPt */
MDRP[00100]	/* MoveDirectRelPt */
MDRP[10101]	/* MoveDirectRelPt */
MDRP[00100]	/* MoveDirectRelPt */
MIRP[01110]	/* MoveIndirectRelPt */
SRP0[ ]	/* SetRefPoint0 */
MIRP[01110]	/* MoveIndirectRelPt */
IP[ ]	/* InterpolatePts */
IP[ ]	/* InterpolatePts */
SRP1[ ]	/* SetRefPoint1 */
SRP2[ ]	/* SetRefPoint2 */
IP[ ]	/* InterpolatePts */
SRP1[ ]	/* SetRefPoint1 */
SRP2[ ]	/* SetRefPoint2 */
IP[ ]	/* InterpolatePts */
SRP1[ ]	/* SetRefPoint1 */
SRP2[ ]	/* SetRefPoint2 */
IP[ ]	/* InterpolatePts */
IUP[0]	/* InterpolateUntPts */
NPUSHB[ ]	/* 13 values pushed */
128 5 128 6 128 7 128 19 128 20 128 21 6
SVTCA[1]	/* SetFreedomAndProjectionVectorToAxis */
DELTAP1[ ]	/* DeltaExceptionP1 */";
};
width = 1233;
},
{
layerId = "226C7162-7035-4DCE-8E35-7C345FD184FF";
shapes = (
{
closed = 1;
nodes = (
(675,372,o),
(675,469,qs),
(675,620,o),
(847,829,o),
(970,829,qs),
(1058,829,o),
(1159,719,o),
(1159,623,qs),
(1159,471,o),
(985,260,o),
(860,260,qs),
(774,260,o)
);
},
{
closed = 1;
nodes = (
(1356,905,o),
(1365,982,o),
(1365,1012,qs),
(1365,1188,o),
(1141,1397,o),
(952,1397,qs),
(793,1397,o),
(499,1255,o),
(389,1124,qs),
(265,979,o),
(122,580,o),
(122,379,qs),
(122,62,o),
(469,-317,o),
(757,-317,qs),
(840,-317,o),
(982,-287,o),
(1048,-256,q),
(1003,-125,l),
(936,-151,o),
(816,-176,o),
(759,-176,qs),
(534,-176,o),
(276,118,o),
(276,375,qs),
(276,532,o),
(364,831,o),
(448,956,qs),
(543,1099,o),
(806,1255,o),
(948,1255,qs),
(1078,1255,o),
(1224,1115,o),
(1224,989,qs),
(1224,974,o),
(1218,922,o),
(1212,887,qs),
(1204,844,l),
(1175,905,o),
(1046,977,o),
(962,977,qs),
(780,977,o),
(516,664,o),
(516,444,qs),
(516,299,o),
(682,115,o),
(813,115,qs),
(894,115,o),
(1036,183,o),
(1087,246,q),
(1066,135,l),
(1210,135,l),
(1347,858,ls)
);
}
);
userData = {
assembly = "NPUSHB[ ]	/* 53 values pushed */
46 49 42 26 64 27 23 6 14 12 0 6 120 23 0 120 12 17 45 42 120 49 23 33 120 49 58 65 64 61 27 13 12 3 4 14 26 45 46 4 30 9 24 20 30 23 61 20 39 24 61 52 65
SRP0[ ]	/* SetRefPoint0 */
MDRP[10100]	/* MoveDirectRelPt */
MDRP[00100]	/* MoveDirectRelPt */
MIRP[11100]	/* MoveIndirectRelPt */
MDRP[00100]	/* MoveDirectRelPt */
SRP0[ ]	/* SetRefPoint0 */
MIRP[01110]	/* MoveIndirectRelPt */
SRP0[ ]	/* SetRefPoint0 */
MIRP[01110]	/* MoveIndirectRelPt */
SRP1[ ]	/* SetRefPoint1 */
SLOOP[ ]	/* SetLoopVariable */
IP[ ]	/* InterpolatePts */
SLOOP[ ]	/* SetLoopVariable */
IP[ ]	/* InterpolatePts */
SRP2[ ]	/* SetRefPoint2 */
IP[ ]	/* InterpolatePts */
IUP[1]	/* InterpolateUntPts */
SVTCA[0]	/* SetFreedomAndProjectionVectorToAxis */
SRP0[ ]	/* SetRefPoint0 */
MDRP[10100]	/* MoveDirectRelPt */
MDRP[00100]	/* MoveDirectRelPt */
MIRP[11100]	/* MoveIndirectRelPt */
MDRP[00100]	/* MoveDirectRelPt */
SRP0[ ]	/* SetRefPoint0 */
MIRP[11110]	/* MoveIndirectRelPt */
MDRP[00100]	/* MoveDirectRelPt */
MDRP[10101]	/* MoveDirectRelPt */
MDRP[00100]	/* MoveDirectRelPt */
MIRP[01110]	/* MoveIndirectRelPt */
SRP0[ ]	/* SetRefPoint0 */
MIRP[01110]	/* MoveIndirectRelPt */
SRP1[ ]	/* SetRefPoint1 */
SRP2[ ]	/* SetRefPoint2 */
IP[ ]	/* InterpolatePts */
SRP1[ ]	/* SetRefPoint1 */
SRP2[ ]	/* SetRefPoint2 */
IP[ ]	/* InterpolatePts */
IP[ ]	/* InterpolatePts */
IP[ ]	/* InterpolatePts */
SRP1[ ]	/* SetRefPoint1 */
SRP2[ ]	/* SetRefPoint2 */
IP[ ]	/* InterpolatePts */
IUP[0]	/* InterpolateUntPts */
NPUSHB[ ]	/* 9 values pushed */
148 1 148 2 150 3 150 4 4
SVTCA[1]	/* SetFreedomAndProjectionVectorToAxis */
DELTAP1[ ]	/* DeltaExceptionP1 */";
};
width = 1233;
}
);
note = at;
unicode = 64;
},
{
glyphname = A;
lastChange = "2026-05-17 08:27:02 +0000";
layers = (
{
layerId = m01;
shapes = (
{
closed = 1;
nodes = (
(403,551,l),
(616,1315,l),
(829,551,l)
);
},
{
closed = 1;
nodes = (
(246,0,l),
(354,389,l),
(877,389,l),
(987,0,l),
(1196,0,l),
(739,1493,l),
(494,1493,l),
(37,0,l)
);
}
);
userData = {
assembly = "NPUSHB[ ]	/* 65 values pushed */
0 37 1 0 4 5 4 2 37 5 4 7 37 5 4 6 37 5 5 4 9 37 3 10 8 37 3 10 1 37 10 3 10 0 37 2 0 3 3 10 66 0 3 7 151 1 176 3 136 9 5 9 8 7 6 4 3 2 1 0 9 5 47 10 11
SRP0[ ]	/* SetRefPoint0 */
MDRP[11100]	/* MoveDirectRelPt */
MIRP[01100]	/* MoveIndirectRelPt */
SLOOP[ ]	/* SetLoopVariable */
IP[ ]	/* InterpolatePts */
IUP[1]	/* InterpolateUntPts */
SVTCA[0]	/* SetFreedomAndProjectionVectorToAxis */
MDAP[1]	/* MoveDirectAbsPt */
ALIGNRP[ ]	/* AlignRelativePt */
MIRP[00100]	/* MoveIndirectRelPt */
MIRP[11100]	/* MoveIndirectRelPt */
MIRP[01100]	/* MoveIndirectRelPt */
SRP2[ ]	/* SetRefPoint2 */
IP[ ]	/* InterpolatePts */
IUP[0]	/* InterpolateUntPts */
MPPEM[ ]	/* MeasurePixelPerEm */
GTEQ[ ]	/* GreaterThanOrEqual */
IF[ ]	/* If */
SPVTL[1]	/* SetPVectorToLine */
SRP0[ ]	/* SetRefPoint0 */
SFVTL[0]	/* SetFVectorToLine */
MIRP[01101]	/* MoveIndirectRelPt */
SPVTL[1]	/* SetPVectorToLine */
SRP0[ ]	/* SetRefPoint0 */
SFVTCA[1]	/* SetFVectorToAxis */
MIRP[01101]	/* MoveIndirectRelPt */
SPVTL[1]	/* SetPVectorToLine */
SFVTCA[1]	/* SetFVectorToAxis */
MIRP[01101]	/* MoveIndirectRelPt */
SPVTL[1]	/* SetPVectorToLine */
SFVTCA[1]	/* SetFVectorToAxis */
MIRP[01101]	/* MoveIndirectRelPt */
SPVTL[1]	/* SetPVectorToLine */
SRP0[ ]	/* SetRefPoint0 */
SFVTCA[1]	/* SetFVectorToAxis */
MIRP[01101]	/* MoveIndirectRelPt */
SPVTL[1]	/* SetPVectorToLine */
SFVTCA[1]	/* SetFVectorToAxis */
MIRP[01101]	/* MoveIndirectRelPt */
SPVTL[1]	/* SetPVectorToLine */
SFVTCA[1]	/* SetFVectorToAxis */
MIRP[01101]	/* MoveIndirectRelPt */
SPVTL[1]	/* SetPVectorToLine */
SRP0[ ]	/* SetRefPoint0 */
SFVTL[0]	/* SetFVectorToLine */
MIRP[01101]	/* MoveIndirectRelPt */
EIF[ ]	/* EndIf */
CLEAR[ ]	/* ClearStack */
PUSHB[ ]	/* 3 values pushed */
7 3 1
SVTCA[1]	/* SetFreedomAndProjectionVectorToAxis */
DELTAP1[ ]	/* DeltaExceptionP1 */
NPUSHB[ ]	/* 26 values pushed */
10 0 15 0 143 0 143 0 4 3 1 11 2 4 3 12 4 9 7 6 8 134 1 137 2 8
DELTAP1[ ]	/* DeltaExceptionP1 */
SVTCA[0]	/* SetFreedomAndProjectionVectorToAxis */
DELTAP1[ ]	/* DeltaExceptionP1 */";
};
width = 1233;
},
{
layerId = "226C7162-7035-4DCE-8E35-7C345FD184FF";
shapes = (
{
closed = 1;
nodes = (
(514,551,l),
(878,1325,l),
(944,551,l)
);
},
{
closed = 1;
nodes = (
(254,0,l),
(438,389,l),
(958,389,l),
(993,0,l),
(1194,0,l),
(1028,1493,l),
(782,1493,l),
(37,0,l)
);
}
);
userData = {
assembly = "NPUSHB[ ]	/* 66 values pushed */
2 5 5 5 4 0 5 2 0 4 5 4 7 5 5 4 6 5 5 5 4 9 5 3 10 8 5 3 10 1 5 10 3 10 0 5 2 0 3 3 10 58 0 3 7 99 1 121 3 81 9 5 9 8 7 6 4 3 2 1 0 9 11 5 10 11
SRP0[ ]	/* SetRefPoint0 */
MDRP[10100]	/* MoveDirectRelPt */
MDRP[00100]	/* MoveDirectRelPt */
SRP1[ ]	/* SetRefPoint1 */
SLOOP[ ]	/* SetLoopVariable */
IP[ ]	/* InterpolatePts */
IUP[1]	/* InterpolateUntPts */
SVTCA[0]	/* SetFreedomAndProjectionVectorToAxis */
MDAP[1]	/* MoveDirectAbsPt */
ALIGNRP[ ]	/* AlignRelativePt */
MIRP[00100]	/* MoveIndirectRelPt */
MIRP[10100]	/* MoveIndirectRelPt */
MIRP[01100]	/* MoveIndirectRelPt */
SRP2[ ]	/* SetRefPoint2 */
IP[ ]	/* InterpolatePts */
IUP[0]	/* InterpolateUntPts */
MPPEM[ ]	/* MeasurePixelPerEm */
GTEQ[ ]	/* GreaterThanOrEqual */
IF[ ]	/* If */
SPVTL[1]	/* SetPVectorToLine */
SRP0[ ]	/* SetRefPoint0 */
SFVTL[0]	/* SetFVectorToLine */
MIRP[01101]	/* MoveIndirectRelPt */
SPVTL[1]	/* SetPVectorToLine */
SRP0[ ]	/* SetRefPoint0 */
SFVTCA[1]	/* SetFVectorToAxis */
MIRP[01101]	/* MoveIndirectRelPt */
SPVTL[1]	/* SetPVectorToLine */
SFVTCA[1]	/* SetFVectorToAxis */
MIRP[01101]	/* MoveIndirectRelPt */
SPVTL[1]	/* SetPVectorToLine */
SFVTCA[1]	/* SetFVectorToAxis */
MIRP[01101]	/* MoveIndirectRelPt */
SPVTL[1]	/* SetPVectorToLine */
SRP0[ ]	/* SetRefPoint0 */
SFVTCA[1]	/* SetFVectorToAxis */
MIRP[01101]	/* MoveIndirectRelPt */
SPVTL[1]	/* SetPVectorToLine */
SFVTCA[1]	/* SetFVectorToAxis */
MIRP[01101]	/* MoveIndirectRelPt */
SPVTL[1]	/* SetPVectorToLine */
SRP0[ ]	/* SetRefPoint0 */
SFVTL[0]	/* SetFVectorToLine */
MIRP[01101]	/* MoveIndirectRelPt */
SPVTL[1]	/* SetPVectorToLine */
SRP0[ ]	/* SetRefPoint0 */
SFVTCA[1]	/* SetFVectorToAxis */
MIRP[01101]	/* MoveIndirectRelPt */
EIF[ ]	/* EndIf */
CLEAR[ ]	/* ClearStack */";
};
width = 1233;
}
);
note = A;
unicode = 65;
},
{
glyphname = B;
lastChange = "2026-05-17 08:27:02 +0000";
layers = (
{
layerId = m01;
shapes = (
{
closed = 1;
nodes = (
(776,713,o),
(934,576,o),
(934,430,qs),
(934,289,o),
(784,166,o),
(608,166,qs),
(369,166,l),
(369,713,l),
(608,713,ls)
);
},
{
closed = 1;
nodes = (
(752,1327,o),
(881,1227,o),
(881,1114,qs),
(881,989,o),
(750,877,o),
(604,877,qs),
(369,877,l),
(369,1327,l),
(604,1327,ls)
);
},
{
closed = 1;
nodes = (
(608,0,ls),
(871,0,o),
(1137,207,o),
(1137,410,qs),
(1137,570,o),
(970,777,o),
(823,799,q),
(954,819,o),
(1085,977,o),
(1085,1114,qs),
(1085,1295,o),
(837,1493,o),
(608,1493,qs),
(166,1493,l),
(166,0,l)
);
}
);
userData = {
assembly = "NPUSHB[ ]	/* 35 values pushed */
25 0 151 10 9 151 18 136 1 151 10 177 31 17 11 25 31 19 8 2 5 0 14 30 22 5 50 28 49 9 0 30 18 48 33
SRP0[ ]	/* SetRefPoint0 */
MIRP[11100]	/* MoveIndirectRelPt */
MIRP[01100]	/* MoveIndirectRelPt */
SHP[0]	/* ShiftPointByLastPoint */
MIRP[11100]	/* MoveIndirectRelPt */
MIRP[01100]	/* MoveIndirectRelPt */
MDRP[10100]	/* MoveDirectRelPt */
MIRP[01100]	/* MoveIndirectRelPt */
SRP1[ ]	/* SetRefPoint1 */
SLOOP[ ]	/* SetLoopVariable */
IP[ ]	/* InterpolatePts */
IP[ ]	/* InterpolatePts */
IP[ ]	/* InterpolatePts */
IUP[1]	/* InterpolateUntPts */
SVTCA[0]	/* SetFreedomAndProjectionVectorToAxis */
MDAP[1]	/* MoveDirectAbsPt */
MIRP[01100]	/* MoveIndirectRelPt */
MIRP[01100]	/* MoveIndirectRelPt */
MIRP[10100]	/* MoveIndirectRelPt */
MIRP[01100]	/* MoveIndirectRelPt */
SRP0[ ]	/* SetRefPoint0 */
MIRP[01110]	/* MoveIndirectRelPt */
IP[ ]	/* InterpolatePts */
IUP[0]	/* InterpolateUntPts */";
};
width = 1233;
},
{
layerId = "226C7162-7035-4DCE-8E35-7C345FD184FF";
shapes = (
{
closed = 1;
nodes = (
(892,713,o),
(1028,611,o),
(1028,504,qs),
(1028,340,o),
(833,166,o),
(649,166,qs),
(401,166,l),
(508,713,l),
(749,713,ls)
);
},
{
closed = 1;
nodes = (
(995,1327,o),
(1106,1243,o),
(1106,1149,qs),
(1106,1022,o),
(933,877,o),
(782,877,qs),
(538,877,l),
(626,1327,l),
(870,1327,ls)
);
},
{
closed = 1;
nodes = (
(618,0,ls),
(909,0,o),
(1228,260,o),
(1228,494,qs),
(1228,618,o),
(1095,776,o),
(970,799,q),
(1126,819,o),
(1310,1026,o),
(1310,1180,qs),
(1310,1334,o),
(1102,1493,o),
(899,1493,qs),
(456,1493,l),
(166,0,l)
);
}
);
userData = {
assembly = "NPUSHB[ ]	/* 64 values pushed */
0 5 18 18 32 1 5 32 18 32 11 1 12 10 5 18 32 17 1 16 9 5 18 18 32 58 25 0 99 10 9 99 18 81 1 99 10 122 31 1 32 10 9 8 2 0 5 11 17 19 25 31 5 18 5 18 28 14 25 22 18 1 32 33
SRP0[ ]	/* SetRefPoint0 */
MDRP[10100]	/* MoveDirectRelPt */
MIRP[00100]	/* MoveIndirectRelPt */
MDRP[10100]	/* MoveDirectRelPt */
MIRP[01100]	/* MoveIndirectRelPt */
MDRP[10100]	/* MoveDirectRelPt */
MIRP[01100]	/* MoveIndirectRelPt */
SRP1[ ]	/* SetRefPoint1 */
SLOOP[ ]	/* SetLoopVariable */
IP[ ]	/* InterpolatePts */
SLOOP[ ]	/* SetLoopVariable */
IP[ ]	/* InterpolatePts */
SRP2[ ]	/* SetRefPoint2 */
IP[ ]	/* InterpolatePts */
IUP[1]	/* InterpolateUntPts */
SVTCA[0]	/* SetFreedomAndProjectionVectorToAxis */
MDAP[1]	/* MoveDirectAbsPt */
MIRP[01100]	/* MoveIndirectRelPt */
MIRP[01100]	/* MoveIndirectRelPt */
MIRP[10100]	/* MoveIndirectRelPt */
MIRP[01100]	/* MoveIndirectRelPt */
SRP0[ ]	/* SetRefPoint0 */
MIRP[01110]	/* MoveIndirectRelPt */
IP[ ]	/* InterpolatePts */
IUP[0]	/* InterpolateUntPts */
MPPEM[ ]	/* MeasurePixelPerEm */
GTEQ[ ]	/* GreaterThanOrEqual */
IF[ ]	/* If */
SPVTL[1]	/* SetPVectorToLine */
SRP0[ ]	/* SetRefPoint0 */
SFVTCA[1]	/* SetFVectorToAxis */
MIRP[01101]	/* MoveIndirectRelPt */
SRP1[ ]	/* SetRefPoint1 */
SLOOP[ ]	/* SetLoopVariable */
IP[ ]	/* InterpolatePts */
SPVTL[1]	/* SetPVectorToLine */
SFVTCA[1]	/* SetFVectorToAxis */
MIRP[01101]	/* MoveIndirectRelPt */
SRP1[ ]	/* SetRefPoint1 */
SLOOP[ ]	/* SetLoopVariable */
IP[ ]	/* InterpolatePts */
SPVTL[1]	/* SetPVectorToLine */
SRP0[ ]	/* SetRefPoint0 */
SFVTCA[1]	/* SetFVectorToAxis */
MIRP[01101]	/* MoveIndirectRelPt */
SPVTL[1]	/* SetPVectorToLine */
SRP0[ ]	/* SetRefPoint0 */
SFVTCA[1]	/* SetFVectorToAxis */
MIRP[01101]	/* MoveIndirectRelPt */
EIF[ ]	/* EndIf */
CLEAR[ ]	/* ClearStack */";
};
width = 1233;
}
);
note = B;
unicode = 66;
},
{
glyphname = C;
lastChange = "2026-05-17 08:27:02 +0000";
layers = (
{
layerId = m01;
shapes = (
{
closed = 1;
nodes = (
(1000,199,o),
(831,135,o),
(743,135,qs),
(546,135,o),
(350,439,o),
(350,745,qs),
(350,1052,o),
(546,1356,o),
(743,1356,qs),
(829,1356,o),
(999,1292,o),
(1073,1231,q),
(1073,1438,l),
(996,1479,o),
(834,1520,o),
(743,1520,qs),
(458,1520,o),
(139,1111,o),
(139,745,qs),
(139,377,o),
(456,-29,o),
(743,-29,qs),
(834,-29,o),
(996,12,o),
(1073,53,q),
(1073,260,l)
);
}
);
userData = {
assembly = "NPUSHB[ ]	/* 26 values pushed */
25 179 0 178 22 151 3 13 179 12 178 16 151 9 150 3 153 26 19 50 12 0 49 6 48 26
SRP0[ ]	/* SetRefPoint0 */
MIRP[11100]	/* MoveIndirectRelPt */
MIRP[01100]	/* MoveIndirectRelPt */
SHP[0]	/* ShiftPointByLastPoint */
MIRP[01100]	/* MoveIndirectRelPt */
IUP[1]	/* InterpolateUntPts */
SVTCA[0]	/* SetFreedomAndProjectionVectorToAxis */
SRP0[ ]	/* SetRefPoint0 */
MIRP[00100]	/* MoveIndirectRelPt */
MIRP[10100]	/* MoveIndirectRelPt */
MIRP[01100]	/* MoveIndirectRelPt */
MIRP[10100]	/* MoveIndirectRelPt */
MIRP[01100]	/* MoveIndirectRelPt */
SRP0[ ]	/* SetRefPoint0 */
MIRP[01110]	/* MoveIndirectRelPt */
MIRP[10110]	/* MoveIndirectRelPt */
MIRP[01110]	/* MoveIndirectRelPt */
IUP[0]	/* InterpolateUntPts */";
};
width = 1233;
},
{
layerId = "226C7162-7035-4DCE-8E35-7C345FD184FF";
shapes = (
{
closed = 1;
nodes = (
(1038,199,o),
(857,135,o),
(772,135,qs),
(625,135,o),
(469,319,o),
(469,492,qs),
(469,685,o),
(596,1069,o),
(700,1192,qs),
(771,1275,o),
(933,1356,o),
(1028,1356,qs),
(1108,1356,o),
(1250,1294,o),
(1314,1231,q),
(1355,1438,l),
(1280,1478,o),
(1122,1520,o),
(1042,1520,qs),
(877,1520,o),
(619,1396,o),
(512,1266,qs),
(398,1129,o),
(258,697,o),
(258,477,qs),
(258,237,o),
(511,-29,o),
(741,-29,qs),
(832,-29,o),
(1003,12,o),
(1087,53,q),
(1126,260,l)
);
}
);
userData = {
assembly = "NPUSHB[ ]	/* 27 values pushed */
31 124 0 123 28 99 3 16 124 15 123 19 99 12 97 3 101 32 31 16 0 15 25 25 15 6 32
SRP0[ ]	/* SetRefPoint0 */
MDRP[10100]	/* MoveDirectRelPt */
MDRP[00100]	/* MoveDirectRelPt */
MIRP[01100]	/* MoveIndirectRelPt */
SRP1[ ]	/* SetRefPoint1 */
IP[ ]	/* InterpolatePts */
IP[ ]	/* InterpolatePts */
IP[ ]	/* InterpolatePts */
IUP[1]	/* InterpolateUntPts */
SVTCA[0]	/* SetFreedomAndProjectionVectorToAxis */
SRP0[ ]	/* SetRefPoint0 */
MIRP[00100]	/* MoveIndirectRelPt */
MIRP[10100]	/* MoveIndirectRelPt */
MIRP[01100]	/* MoveIndirectRelPt */
MIRP[10100]	/* MoveIndirectRelPt */
MIRP[01100]	/* MoveIndirectRelPt */
SRP0[ ]	/* SetRefPoint0 */
MIRP[01110]	/* MoveIndirectRelPt */
MIRP[10110]	/* MoveIndirectRelPt */
MIRP[01110]	/* MoveIndirectRelPt */
IUP[0]	/* InterpolateUntPts */";
};
width = 1233;
}
);
note = C;
unicode = 67;
},
{
glyphname = D;
lastChange = "2026-05-17 08:27:02 +0000";
layers = (
{
layerId = m01;
shapes = (
{
closed = 1;
nodes = (
(340,1327,l),
(436,1327,ls),
(692,1327,o),
(893,1076,o),
(893,745,qs),
(893,417,o),
(691,166,o),
(436,166,qs),
(340,166,l)
);
},
{
closed = 1;
nodes = (
(137,0,l),
(440,0,ls),
(782,0,o),
(1106,363,o),
(1106,745,qs),
(1106,1129,o),
(782,1493,o),
(440,1493,qs),
(137,1493,l)
);
}
);
userData = {
assembly = "NPUSHB[ ]	/* 21 values pushed */
6 151 9 136 0 151 15 6 0 15 9 7 3 50 12 49 7 30 16 48 18
SRP0[ ]	/* SetRefPoint0 */
MIRP[11100]	/* MoveIndirectRelPt */
MIRP[01100]	/* MoveIndirectRelPt */
MIRP[11100]	/* MoveIndirectRelPt */
MIRP[01100]	/* MoveIndirectRelPt */
SRP1[ ]	/* SetRefPoint1 */
IP[ ]	/* InterpolatePts */
IP[ ]	/* InterpolatePts */
IP[ ]	/* InterpolatePts */
IP[ ]	/* InterpolatePts */
IUP[1]	/* InterpolateUntPts */
SVTCA[0]	/* SetFreedomAndProjectionVectorToAxis */
MDAP[1]	/* MoveDirectAbsPt */
MIRP[01100]	/* MoveIndirectRelPt */
MIRP[10100]	/* MoveIndirectRelPt */
MIRP[01100]	/* MoveIndirectRelPt */
IUP[0]	/* InterpolateUntPts */";
};
width = 1233;
},
{
layerId = "226C7162-7035-4DCE-8E35-7C345FD184FF";
shapes = (
{
closed = 1;
nodes = (
(598,1327,l),
(712,1327,ls),
(905,1327,o),
(1069,1175,o),
(1069,999,qs),
(1069,866,o),
(1000,547,o),
(946,432,qs),
(878,291,o),
(654,166,o),
(469,166,qs),
(372,166,l)
);
},
{
closed = 1;
nodes = (
(137,0,l),
(440,0,ls),
(705,0,o),
(1016,163,o),
(1120,354,qs),
(1191,487,o),
(1275,831,o),
(1275,993,qs),
(1275,1245,o),
(1004,1493,o),
(731,1493,qs),
(428,1493,l)
);
}
);
userData = {
assembly = "NPUSHB[ ]	/* 40 values pushed */
0 1 1 11 5 22 23 22 9 1 8 10 5 23 23 22 58 9 99 12 81 0 99 21 11 24 10 9 0 3 21 12 23 6 25 15 23 1 22 24
SRP0[ ]	/* SetRefPoint0 */
MDRP[10100]	/* MoveDirectRelPt */
MIRP[00100]	/* MoveIndirectRelPt */
MDRP[10100]	/* MoveDirectRelPt */
MIRP[01100]	/* MoveIndirectRelPt */
SRP1[ ]	/* SetRefPoint1 */
IP[ ]	/* InterpolatePts */
IP[ ]	/* InterpolatePts */
SLOOP[ ]	/* SetLoopVariable */
IP[ ]	/* InterpolatePts */
SRP2[ ]	/* SetRefPoint2 */
IP[ ]	/* InterpolatePts */
IUP[1]	/* InterpolateUntPts */
SVTCA[0]	/* SetFreedomAndProjectionVectorToAxis */
MDAP[1]	/* MoveDirectAbsPt */
MIRP[01100]	/* MoveIndirectRelPt */
MIRP[10100]	/* MoveIndirectRelPt */
MIRP[01100]	/* MoveIndirectRelPt */
IUP[0]	/* InterpolateUntPts */
MPPEM[ ]	/* MeasurePixelPerEm */
GTEQ[ ]	/* GreaterThanOrEqual */
IF[ ]	/* If */
SPVTL[1]	/* SetPVectorToLine */
SRP0[ ]	/* SetRefPoint0 */
SFVTCA[1]	/* SetFVectorToAxis */
MIRP[01101]	/* MoveIndirectRelPt */
SRP1[ ]	/* SetRefPoint1 */
SLOOP[ ]	/* SetLoopVariable */
IP[ ]	/* InterpolatePts */
SPVTL[1]	/* SetPVectorToLine */
SRP0[ ]	/* SetRefPoint0 */
SFVTCA[1]	/* SetFVectorToAxis */
MIRP[01101]	/* MoveIndirectRelPt */
SRP1[ ]	/* SetRefPoint1 */
SLOOP[ ]	/* SetLoopVariable */
IP[ ]	/* InterpolatePts */
EIF[ ]	/* EndIf */
CLEAR[ ]	/* ClearStack */";
};
width = 1233;
}
);
note = D;
unicode = 68;
},
{
glyphname = E;
lastChange = "2026-05-17 08:27:02 +0000";
layers = (
{
layerId = m01;
shapes = (
{
closed = 1;
nodes = (
(1102,0,l),
(1102,170,l),
(399,170,l),
(399,711,l),
(1053,711,l),
(1053,881,l),
(399,881,l),
(399,1323,l),
(1083,1323,l),
(1083,1493,l),
(197,1493,l),
(197,0,l)
);
}
);
userData = {
assembly = "NPUSHB[ ]	/* 22 values pushed */
6 151 4 2 151 0 136 8 151 4 177 10 1 5 9 49 7 3 30 0 51 12
SRP0[ ]	/* SetRefPoint0 */
MIRP[11100]	/* MoveIndirectRelPt */
MIRP[01100]	/* MoveIndirectRelPt */
SHP[0]	/* ShiftPointByLastPoint */
MIRP[11100]	/* MoveIndirectRelPt */
MDRP[00100]	/* MoveDirectRelPt */
MDRP[00100]	/* MoveDirectRelPt */
IUP[1]	/* InterpolateUntPts */
SVTCA[0]	/* SetFreedomAndProjectionVectorToAxis */
MDAP[1]	/* MoveDirectAbsPt */
MIRP[01100]	/* MoveIndirectRelPt */
MIRP[01100]	/* MoveIndirectRelPt */
MIRP[10100]	/* MoveIndirectRelPt */
MIRP[01100]	/* MoveIndirectRelPt */
SRP0[ ]	/* SetRefPoint0 */
MIRP[01110]	/* MoveIndirectRelPt */
IUP[0]	/* InterpolateUntPts */";
};
width = 1233;
},
{
layerId = "226C7162-7035-4DCE-8E35-7C345FD184FF";
shapes = (
{
closed = 1;
nodes = (
(1102,0,l),
(1135,170,l),
(433,170,l),
(537,711,l),
(1191,711,l),
(1223,881,l),
(570,881,l),
(656,1323,l),
(1340,1323,l),
(1373,1493,l),
(488,1493,l),
(197,0,l)
);
}
);
userData = {
assembly = "NPUSHB[ ]	/* 48 values pushed */
8 5 11 0 11 7 5 0 11 4 5 0 11 3 5 0 0 11 58 6 99 4 2 99 0 81 8 99 4 122 10 8 11 10 9 7 6 5 4 3 2 8 0 1 0 1 11 12
SRP0[ ]	/* SetRefPoint0 */
MDRP[10100]	/* MoveDirectRelPt */
MIRP[00100]	/* MoveIndirectRelPt */
MDRP[00100]	/* MoveDirectRelPt */
SRP1[ ]	/* SetRefPoint1 */
SLOOP[ ]	/* SetLoopVariable */
IP[ ]	/* InterpolatePts */
SRP2[ ]	/* SetRefPoint2 */
IP[ ]	/* InterpolatePts */
IUP[1]	/* InterpolateUntPts */
SVTCA[0]	/* SetFreedomAndProjectionVectorToAxis */
MDAP[1]	/* MoveDirectAbsPt */
MIRP[01100]	/* MoveIndirectRelPt */
MIRP[01100]	/* MoveIndirectRelPt */
MIRP[10100]	/* MoveIndirectRelPt */
MIRP[01100]	/* MoveIndirectRelPt */
SRP0[ ]	/* SetRefPoint0 */
MIRP[01110]	/* MoveIndirectRelPt */
IUP[0]	/* InterpolateUntPts */
MPPEM[ ]	/* MeasurePixelPerEm */
GTEQ[ ]	/* GreaterThanOrEqual */
IF[ ]	/* If */
SPVTL[1]	/* SetPVectorToLine */
SRP0[ ]	/* SetRefPoint0 */
SFVTCA[1]	/* SetFVectorToAxis */
MIRP[01101]	/* MoveIndirectRelPt */
SPVTL[1]	/* SetPVectorToLine */
SFVTCA[1]	/* SetFVectorToAxis */
MIRP[01101]	/* MoveIndirectRelPt */
SPVTL[1]	/* SetPVectorToLine */
SFVTCA[1]	/* SetFVectorToAxis */
MIRP[01101]	/* MoveIndirectRelPt */
SPVTL[1]	/* SetPVectorToLine */
SRP0[ ]	/* SetRefPoint0 */
SFVTCA[1]	/* SetFVectorToAxis */
MIRP[01101]	/* MoveIndirectRelPt */
EIF[ ]	/* EndIf */
CLEAR[ ]	/* ClearStack */";
};
width = 1233;
}
);
note = E;
unicode = 69;
},
{
glyphname = F;
lastChange = "2026-05-17 08:27:02 +0000";
layers = (
{
layerId = m01;
shapes = (
{
closed = 1;
nodes = (
(436,0,l),
(436,713,l),
(1049,713,l),
(1049,883,l),
(436,883,l),
(436,1323,l),
(1112,1323,l),
(1112,1493,l),
(233,1493,l),
(233,0,l)
);
}
);
userData = {
assembly = "NPUSHB[ ]	/* 19 values pushed */
6 151 4 2 151 0 136 4 177 8 5 1 49 7 3 30 0 52 10
SRP0[ ]	/* SetRefPoint0 */
MIRP[11100]	/* MoveIndirectRelPt */
MIRP[01100]	/* MoveIndirectRelPt */
SHP[0]	/* ShiftPointByLastPoint */
MIRP[11100]	/* MoveIndirectRelPt */
MDRP[00100]	/* MoveDirectRelPt */
IUP[1]	/* InterpolateUntPts */
SVTCA[0]	/* SetFreedomAndProjectionVectorToAxis */
MDAP[1]	/* MoveDirectAbsPt */
MIRP[01100]	/* MoveIndirectRelPt */
MIRP[10100]	/* MoveIndirectRelPt */
MIRP[01100]	/* MoveIndirectRelPt */
SRP0[ ]	/* SetRefPoint0 */
MIRP[01110]	/* MoveIndirectRelPt */
IUP[0]	/* InterpolateUntPts */";
};
width = 1233;
},
{
layerId = "226C7162-7035-4DCE-8E35-7C345FD184FF";
shapes = (
{
closed = 1;
nodes = (
(436,0,l),
(575,713,l),
(1188,713,l),
(1220,883,l),
(608,883,l),
(694,1323,l),
(1370,1323,l),
(1403,1493,l),
(524,1493,l),
(233,0,l)
);
}
);
userData = {
assembly = "NPUSHB[ ]	/* 44 values pushed */
8 5 9 0 9 7 5 0 9 4 5 0 9 3 5 0 0 9 58 6 99 4 2 99 0 81 4 122 8 8 9 7 6 5 4 3 2 6 0 1 0 1 9 10
SRP0[ ]	/* SetRefPoint0 */
MDRP[10100]	/* MoveDirectRelPt */
MIRP[00100]	/* MoveIndirectRelPt */
MDRP[00100]	/* MoveDirectRelPt */
SRP1[ ]	/* SetRefPoint1 */
SLOOP[ ]	/* SetLoopVariable */
IP[ ]	/* InterpolatePts */
SRP2[ ]	/* SetRefPoint2 */
IP[ ]	/* InterpolatePts */
IUP[1]	/* InterpolateUntPts */
SVTCA[0]	/* SetFreedomAndProjectionVectorToAxis */
MDAP[1]	/* MoveDirectAbsPt */
MIRP[01100]	/* MoveIndirectRelPt */
MIRP[10100]	/* MoveIndirectRelPt */
MIRP[01100]	/* MoveIndirectRelPt */
SRP0[ ]	/* SetRefPoint0 */
MIRP[01110]	/* MoveIndirectRelPt */
IUP[0]	/* InterpolateUntPts */
MPPEM[ ]	/* MeasurePixelPerEm */
GTEQ[ ]	/* GreaterThanOrEqual */
IF[ ]	/* If */
SPVTL[1]	/* SetPVectorToLine */
SRP0[ ]	/* SetRefPoint0 */
SFVTCA[1]	/* SetFVectorToAxis */
MIRP[01101]	/* MoveIndirectRelPt */
SPVTL[1]	/* SetPVectorToLine */
SFVTCA[1]	/* SetFVectorToAxis */
MIRP[01101]	/* MoveIndirectRelPt */
SPVTL[1]	/* SetPVectorToLine */
SFVTCA[1]	/* SetFVectorToAxis */
MIRP[01101]	/* MoveIndirectRelPt */
SPVTL[1]	/* SetPVectorToLine */
SRP0[ ]	/* SetRefPoint0 */
SFVTCA[1]	/* SetFVectorToAxis */
MIRP[01101]	/* MoveIndirectRelPt */
EIF[ ]	/* EndIf */
CLEAR[ ]	/* ClearStack */";
};
width = 1233;
}
);
note = F;
unicode = 70;
},
{
glyphname = G;
lastChange = "2026-05-17 08:27:02 +0000";
layers = (
{
layerId = m01;
shapes = (
{
closed = 1;
nodes = (
(694,766,l),
(694,600,l),
(911,600,l),
(911,199,l),
(870,166,o),
(769,135,o),
(702,135,qs),
(504,135,o),
(313,434,o),
(313,745,qs),
(313,1051,o),
(510,1356,o),
(707,1356,qs),
(802,1356,o),
(972,1283,o),
(1053,1206,q),
(1053,1413,l),
(973,1467,o),
(801,1520,o),
(707,1520,qs),
(422,1520,o),
(102,1111,o),
(102,745,qs),
(102,378,o),
(418,-29,o),
(702,-29,qs),
(820,-29,o),
(1023,48,o),
(1104,123,q),
(1104,766,l)
);
}
);
userData = {
assembly = "NPUSHB[ ]	/* 33 values pushed */
25 26 0 22 3 26 151 28 22 151 3 13 179 12 178 16 151 9 150 3 153 30 27 25 30 12 0 54 19 50 6 53 30
SRP0[ ]	/* SetRefPoint0 */
MIRP[11100]	/* MoveIndirectRelPt */
MIRP[01100]	/* MoveIndirectRelPt */
MIRP[11100]	/* MoveIndirectRelPt */
MDRP[00100]	/* MoveDirectRelPt */
MIRP[11100]	/* MoveIndirectRelPt */
MDRP[00100]	/* MoveDirectRelPt */
IUP[1]	/* InterpolateUntPts */
SVTCA[0]	/* SetFreedomAndProjectionVectorToAxis */
SRP0[ ]	/* SetRefPoint0 */
MIRP[00100]	/* MoveIndirectRelPt */
MIRP[10100]	/* MoveIndirectRelPt */
MIRP[01100]	/* MoveIndirectRelPt */
MIRP[10100]	/* MoveIndirectRelPt */
MIRP[01100]	/* MoveIndirectRelPt */
SRP0[ ]	/* SetRefPoint0 */
MIRP[11110]	/* MoveIndirectRelPt */
MDRP[10100]	/* MoveDirectRelPt */
MIRP[01110]	/* MoveIndirectRelPt */
SRP1[ ]	/* SetRefPoint1 */
SRP2[ ]	/* SetRefPoint2 */
IP[ ]	/* InterpolatePts */
SRP1[ ]	/* SetRefPoint1 */
IP[ ]	/* InterpolatePts */
IUP[0]	/* InterpolateUntPts */";
};
width = 1233;
},
{
layerId = "226C7162-7035-4DCE-8E35-7C345FD184FF";
shapes = (
{
closed = 1;
nodes = (
(833,766,l),
(803,600,l),
(1020,600,l),
(944,207,l),
(907,172,o),
(799,135,o),
(731,135,qs),
(586,135,o),
(428,321,o),
(428,492,qs),
(428,573,o),
(463,773,o),
(497,887,qs),
(527,984,o),
(605,1140,o),
(649,1192,qs),
(717,1273,o),
(889,1356,o),
(987,1356,qs),
(1068,1356,o),
(1211,1294,o),
(1276,1231,q),
(1317,1438,l),
(1240,1478,o),
(1081,1520,o),
(1001,1520,qs),
(835,1520,o),
(576,1396,o),
(469,1266,qs),
(413,1199,o),
(319,1010,o),
(284,893,qs),
(252,782,o),
(219,579,o),
(219,489,qs),
(219,240,o),
(468,-29,o),
(700,-29,qs),
(817,-29,o),
(1023,34,o),
(1110,96,q),
(1243,766,l)
);
}
);
userData = {
assembly = "NPUSHB[ ]	/* 51 values pushed */
38 5 41 0 41 35 36 2 34 37 5 0 0 41 58 37 38 0 34 3 38 99 40 34 99 3 19 124 18 123 22 99 15 97 3 101 42 40 39 38 37 4 0 31 19 41 18 31 25 6 42
SRP0[ ]	/* SetRefPoint0 */
MDRP[10100]	/* MoveDirectRelPt */
MIRP[01100]	/* MoveIndirectRelPt */
MDRP[10100]	/* MoveDirectRelPt */
MDRP[00100]	/* MoveDirectRelPt */
IP[ ]	/* InterpolatePts */
SRP1[ ]	/* SetRefPoint1 */
IP[ ]	/* InterpolatePts */
SLOOP[ ]	/* SetLoopVariable */
IP[ ]	/* InterpolatePts */
IUP[1]	/* InterpolateUntPts */
SVTCA[0]	/* SetFreedomAndProjectionVectorToAxis */
SRP0[ ]	/* SetRefPoint0 */
MIRP[00100]	/* MoveIndirectRelPt */
MIRP[10100]	/* MoveIndirectRelPt */
MIRP[01100]	/* MoveIndirectRelPt */
MIRP[10100]	/* MoveIndirectRelPt */
MIRP[01100]	/* MoveIndirectRelPt */
SRP0[ ]	/* SetRefPoint0 */
MIRP[11110]	/* MoveIndirectRelPt */
MDRP[10100]	/* MoveDirectRelPt */
MIRP[01110]	/* MoveIndirectRelPt */
SRP1[ ]	/* SetRefPoint1 */
SRP2[ ]	/* SetRefPoint2 */
IP[ ]	/* InterpolatePts */
SRP1[ ]	/* SetRefPoint1 */
IP[ ]	/* InterpolatePts */
IUP[0]	/* InterpolateUntPts */
MPPEM[ ]	/* MeasurePixelPerEm */
GTEQ[ ]	/* GreaterThanOrEqual */
IF[ ]	/* If */
SPVTL[1]	/* SetPVectorToLine */
SRP0[ ]	/* SetRefPoint0 */
SFVTCA[1]	/* SetFVectorToAxis */
MIRP[01101]	/* MoveIndirectRelPt */
SRP1[ ]	/* SetRefPoint1 */
SLOOP[ ]	/* SetLoopVariable */
IP[ ]	/* InterpolatePts */
SPVTL[1]	/* SetPVectorToLine */
SRP0[ ]	/* SetRefPoint0 */
SFVTCA[1]	/* SetFVectorToAxis */
MIRP[01101]	/* MoveIndirectRelPt */
EIF[ ]	/* EndIf */
CLEAR[ ]	/* ClearStack */";
};
width = 1233;
}
);
note = G;
unicode = 71;
},
{
glyphname = H;
lastChange = "2026-05-17 08:27:02 +0000";
layers = (
{
layerId = m01;
shapes = (
{
closed = 1;
nodes = (
(340,0,l),
(340,711,l),
(893,711,l),
(893,0,l),
(1096,0,l),
(1096,1493,l),
(893,1493,l),
(893,881,l),
(340,881,l),
(340,1493,l),
(137,1493,l),
(137,0,l)
);
}
);
userData = {
assembly = "NPUSHB[ ]	/* 20 values pushed */
8 151 2 177 4 0 136 10 6 7 3 30 5 49 9 1 30 0 48 12
SRP0[ ]	/* SetRefPoint0 */
MIRP[11100]	/* MoveIndirectRelPt */
MIRP[01100]	/* MoveIndirectRelPt */
SHP[0]	/* ShiftPointByLastPoint */
MIRP[11100]	/* MoveIndirectRelPt */
MIRP[01100]	/* MoveIndirectRelPt */
SHP[0]	/* ShiftPointByLastPoint */
IUP[1]	/* InterpolateUntPts */
SVTCA[0]	/* SetFreedomAndProjectionVectorToAxis */
MDAP[1]	/* MoveDirectAbsPt */
ALIGNRP[ ]	/* AlignRelativePt */
MIRP[00100]	/* MoveIndirectRelPt */
SHP[0]	/* ShiftPointByLastPoint */
MIRP[11100]	/* MoveIndirectRelPt */
MIRP[01100]	/* MoveIndirectRelPt */
IUP[0]	/* InterpolateUntPts */";
};
width = 1233;
},
{
layerId = "226C7162-7035-4DCE-8E35-7C345FD184FF";
shapes = (
{
closed = 1;
nodes = (
(340,0,l),
(477,711,l),
(1032,711,l),
(893,0,l),
(1095,0,l),
(1386,1493,l),
(1183,1493,l),
(1065,881,l),
(512,881,l),
(630,1493,l),
(428,1493,l),
(137,0,l)
);
}
);
userData = {
assembly = "NPUSHB[ ]	/* 66 values pushed */
8 5 6 5 7 5 6 6 5 4 5 6 5 3 5 5 6 5 10 5 11 0 11 9 5 0 11 2 5 0 11 1 5 0 0 11 58 8 99 2 122 4 0 81 10 6 4 6 5 10 12 9 8 7 3 2 1 6 0 6 1 5 0 1 11 12
SRP0[ ]	/* SetRefPoint0 */
MDRP[10100]	/* MoveDirectRelPt */
MIRP[00100]	/* MoveIndirectRelPt */
MDRP[10100]	/* MoveDirectRelPt */
MIRP[00100]	/* MoveIndirectRelPt */
SRP1[ ]	/* SetRefPoint1 */
SLOOP[ ]	/* SetLoopVariable */
IP[ ]	/* InterpolatePts */
SRP2[ ]	/* SetRefPoint2 */
IP[ ]	/* InterpolatePts */
SRP1[ ]	/* SetRefPoint1 */
SRP2[ ]	/* SetRefPoint2 */
IP[ ]	/* InterpolatePts */
IUP[1]	/* InterpolateUntPts */
SVTCA[0]	/* SetFreedomAndProjectionVectorToAxis */
MDAP[1]	/* MoveDirectAbsPt */
ALIGNRP[ ]	/* AlignRelativePt */
MIRP[00100]	/* MoveIndirectRelPt */
SHP[0]	/* ShiftPointByLastPoint */
MIRP[11100]	/* MoveIndirectRelPt */
MIRP[01100]	/* MoveIndirectRelPt */
IUP[0]	/* InterpolateUntPts */
MPPEM[ ]	/* MeasurePixelPerEm */
GTEQ[ ]	/* GreaterThanOrEqual */
IF[ ]	/* If */
SPVTL[1]	/* SetPVectorToLine */
SRP0[ ]	/* SetRefPoint0 */
SFVTCA[1]	/* SetFVectorToAxis */
MIRP[01101]	/* MoveIndirectRelPt */
SPVTL[1]	/* SetPVectorToLine */
SFVTCA[1]	/* SetFVectorToAxis */
MIRP[01101]	/* MoveIndirectRelPt */
SPVTL[1]	/* SetPVectorToLine */
SFVTCA[1]	/* SetFVectorToAxis */
MIRP[01101]	/* MoveIndirectRelPt */
SPVTL[1]	/* SetPVectorToLine */
SRP0[ ]	/* SetRefPoint0 */
SFVTCA[1]	/* SetFVectorToAxis */
MIRP[01101]	/* MoveIndirectRelPt */
SPVTL[1]	/* SetPVectorToLine */
SRP0[ ]	/* SetRefPoint0 */
SFVTCA[1]	/* SetFVectorToAxis */
MIRP[01101]	/* MoveIndirectRelPt */
SPVTL[1]	/* SetPVectorToLine */
SFVTCA[1]	/* SetFVectorToAxis */
MIRP[01101]	/* MoveIndirectRelPt */
SPVTL[1]	/* SetPVectorToLine */
SRP0[ ]	/* SetRefPoint0 */
SFVTCA[1]	/* SetFVectorToAxis */
MIRP[01101]	/* MoveIndirectRelPt */
SPVTL[1]	/* SetPVectorToLine */
SFVTCA[1]	/* SetFVectorToAxis */
MIRP[01101]	/* MoveIndirectRelPt */
EIF[ ]	/* EndIf */
CLEAR[ ]	/* ClearStack */";
};
width = 1233;
}
);
note = H;
unicode = 72;
},
{
glyphname = I;
lastChange = "2026-05-17 08:27:02 +0000";
layers = (
{
layerId = m01;
shapes = (
{
closed = 1;
nodes = (
(514,1323,l),
(514,170,l),
(201,170,l),
(201,0,l),
(1030,0,l),
(1030,170,l),
(717,170,l),
(717,1323,l),
(1030,1323,l),
(1030,1493,l),
(201,1493,l),
(201,1323,l)
);
}
);
userData = {
assembly = "NPUSHB[ ]	/* 19 values pushed */
10 2 151 0 136 8 4 151 6 5 1 55 3 30 7 0 55 9 12
SRP0[ ]	/* SetRefPoint0 */
MDRP[10100]	/* MoveDirectRelPt */
MIRP[01100]	/* MoveIndirectRelPt */
SHP[0]	/* ShiftPointByLastPoint */
MIRP[11100]	/* MoveIndirectRelPt */
MIRP[01100]	/* MoveIndirectRelPt */
SHP[0]	/* ShiftPointByLastPoint */
IUP[1]	/* InterpolateUntPts */
SVTCA[0]	/* SetFreedomAndProjectionVectorToAxis */
MDAP[1]	/* MoveDirectAbsPt */
MIRP[01100]	/* MoveIndirectRelPt */
SHP[0]	/* ShiftPointByLastPoint */
MIRP[10100]	/* MoveIndirectRelPt */
MIRP[01100]	/* MoveIndirectRelPt */
SHP[0]	/* ShiftPointByLastPoint */
IUP[0]	/* InterpolateUntPts */";
};
width = 1233;
},
{
layerId = "226C7162-7035-4DCE-8E35-7C345FD184FF";
shapes = (
{
closed = 1;
nodes = (
(772,1323,l),
(548,170,l),
(235,170,l),
(202,0,l),
(1032,0,l),
(1065,170,l),
(751,170,l),
(974,1323,l),
(1288,1323,l),
(1321,1493,l),
(491,1493,l),
(458,1323,l)
);
}
);
userData = {
assembly = "NPUSHB[ ]	/* 34 values pushed */
4 5 9 10 9 3 5 10 10 9 58 10 2 99 0 81 8 4 99 6 11 10 9 8 6 5 4 3 2 0 10 1 7 12
SRP0[ ]	/* SetRefPoint0 */
MDRP[10100]	/* MoveDirectRelPt */
MDRP[00100]	/* MoveDirectRelPt */
SLOOP[ ]	/* SetLoopVariable */
IP[ ]	/* InterpolatePts */
IUP[1]	/* InterpolateUntPts */
SVTCA[0]	/* SetFreedomAndProjectionVectorToAxis */
MDAP[1]	/* MoveDirectAbsPt */
MIRP[01100]	/* MoveIndirectRelPt */
SHP[0]	/* ShiftPointByLastPoint */
MIRP[10100]	/* MoveIndirectRelPt */
MIRP[01100]	/* MoveIndirectRelPt */
SHP[0]	/* ShiftPointByLastPoint */
IUP[0]	/* InterpolateUntPts */
MPPEM[ ]	/* MeasurePixelPerEm */
GTEQ[ ]	/* GreaterThanOrEqual */
IF[ ]	/* If */
SPVTL[1]	/* SetPVectorToLine */
SRP0[ ]	/* SetRefPoint0 */
SFVTCA[1]	/* SetFVectorToAxis */
MIRP[01101]	/* MoveIndirectRelPt */
SPVTL[1]	/* SetPVectorToLine */
SRP0[ ]	/* SetRefPoint0 */
SFVTCA[1]	/* SetFVectorToAxis */
MIRP[01101]	/* MoveIndirectRelPt */
EIF[ ]	/* EndIf */
CLEAR[ ]	/* ClearStack */";
};
width = 1233;
}
);
note = I;
unicode = 73;
},
{
glyphname = J;
lastChange = "2026-05-17 08:27:02 +0000";
layers = (
{
layerId = m01;
shapes = (
{
closed = 1;
nodes = (
(402,-29,o),
(498,-29,qs),
(745,-29,o),
(956,205,o),
(956,487,qs),
(956,1493,l),
(373,1493,l),
(373,1323,l),
(754,1323,l),
(754,487,ls),
(754,284,o),
(641,135,o),
(498,135,qs),
(394,135,o),
(200,216,o),
(109,297,q),
(109,61,l),
(212,15,o)
);
}
);
userData = {
assembly = "NPUSHB[ ]	/* 23 values pushed */
12 7 8 1 0 178 4 151 15 8 151 10 136 15 153 18 9 7 30 11 0 53 18
SRP0[ ]	/* SetRefPoint0 */
MIRP[11100]	/* MoveIndirectRelPt */
MDRP[10100]	/* MoveDirectRelPt */
MIRP[11100]	/* MoveIndirectRelPt */
MDRP[00100]	/* MoveDirectRelPt */
IUP[1]	/* InterpolateUntPts */
SVTCA[0]	/* SetFreedomAndProjectionVectorToAxis */
SRP0[ ]	/* SetRefPoint0 */
MIRP[00100]	/* MoveIndirectRelPt */
MIRP[10100]	/* MoveIndirectRelPt */
MIRP[01100]	/* MoveIndirectRelPt */
SRP0[ ]	/* SetRefPoint0 */
MIRP[01110]	/* MoveIndirectRelPt */
MIRP[10110]	/* MoveIndirectRelPt */
MDRP[01110]	/* MoveDirectRelPt */
SRP1[ ]	/* SetRefPoint1 */
IP[ ]	/* InterpolatePts */
IP[ ]	/* InterpolatePts */
IUP[0]	/* InterpolateUntPts */";
};
width = 1233;
},
{
layerId = "226C7162-7035-4DCE-8E35-7C345FD184FF";
shapes = (
{
closed = 1;
nodes = (
(421,-29,o),
(518,-29,qs),
(756,-29,o),
(996,198,o),
(1052,487,qs),
(1249,1493,l),
(665,1493,l),
(632,1323,l),
(1013,1323,l),
(849,487,ls),
(809,281,o),
(668,135,o),
(526,135,qs),
(423,135,o),
(239,218,o),
(167,297,q),
(122,61,l),
(221,17,o)
);
}
);
userData = {
assembly = "NPUSHB[ ]	/* 46 values pushed */
8 5 11 12 11 1 2 3 4 5 6 6 0 7 5 12 12 11 58 12 7 8 1 0 123 4 99 15 8 99 10 81 15 101 18 10 9 8 7 1 5 18 12 11 0 18
SRP0[ ]	/* SetRefPoint0 */
MDRP[10100]	/* MoveDirectRelPt */
MDRP[01100]	/* MoveDirectRelPt */
IP[ ]	/* InterpolatePts */
SRP1[ ]	/* SetRefPoint1 */
SLOOP[ ]	/* SetLoopVariable */
IP[ ]	/* InterpolatePts */
IUP[1]	/* InterpolateUntPts */
SVTCA[0]	/* SetFreedomAndProjectionVectorToAxis */
SRP0[ ]	/* SetRefPoint0 */
MIRP[00100]	/* MoveIndirectRelPt */
MIRP[10100]	/* MoveIndirectRelPt */
MIRP[01100]	/* MoveIndirectRelPt */
SRP0[ ]	/* SetRefPoint0 */
MIRP[01110]	/* MoveIndirectRelPt */
MIRP[10110]	/* MoveIndirectRelPt */
MDRP[00110]	/* MoveDirectRelPt */
SRP1[ ]	/* SetRefPoint1 */
IP[ ]	/* InterpolatePts */
IP[ ]	/* InterpolatePts */
IUP[0]	/* InterpolateUntPts */
MPPEM[ ]	/* MeasurePixelPerEm */
GTEQ[ ]	/* GreaterThanOrEqual */
IF[ ]	/* If */
SPVTL[1]	/* SetPVectorToLine */
SRP0[ ]	/* SetRefPoint0 */
SFVTCA[1]	/* SetFVectorToAxis */
MIRP[01101]	/* MoveIndirectRelPt */
SRP1[ ]	/* SetRefPoint1 */
SLOOP[ ]	/* SetLoopVariable */
IP[ ]	/* InterpolatePts */
SPVTL[1]	/* SetPVectorToLine */
SRP0[ ]	/* SetRefPoint0 */
SFVTCA[1]	/* SetFVectorToAxis */
MIRP[01101]	/* MoveIndirectRelPt */
EIF[ ]	/* EndIf */
CLEAR[ ]	/* ClearStack */";
};
width = 1233;
}
);
note = J;
unicode = 74;
},
{
glyphname = K;
lastChange = "2026-05-17 08:27:02 +0000";
layers = (
{
layerId = m01;
shapes = (
{
closed = 1;
nodes = (
(340,0,l),
(340,584,l),
(494,748,l),
(981,0,l),
(1225,0,l),
(627,883,l),
(1208,1493,l),
(971,1493,l),
(340,829,l),
(340,1493,l),
(137,1493,l),
(137,0,l)
);
}
);
userData = {
assembly = "NPUSHB[ ]	/* 33 values pushed */
8 37 9 8 5 6 5 7 37 6 5 66 8 5 2 3 3 0 180 10 6 8 5 4 3 6 1 9 1 30 0 48 12
SRP0[ ]	/* SetRefPoint0 */
MIRP[11100]	/* MoveIndirectRelPt */
MIRP[01100]	/* MoveIndirectRelPt */
SHP[0]	/* ShiftPointByLastPoint */
SRP0[ ]	/* SetRefPoint0 */
MDRP[00000]	/* MoveDirectRelPt */
SLOOP[ ]	/* SetLoopVariable */
IP[ ]	/* InterpolatePts */
IUP[1]	/* InterpolateUntPts */
SVTCA[0]	/* SetFreedomAndProjectionVectorToAxis */
MDAP[1]	/* MoveDirectAbsPt */
ALIGNRP[ ]	/* AlignRelativePt */
MIRP[01100]	/* MoveIndirectRelPt */
SHP[0]	/* ShiftPointByLastPoint */
SLOOP[ ]	/* SetLoopVariable */
IP[ ]	/* InterpolatePts */
IUP[0]	/* InterpolateUntPts */
MPPEM[ ]	/* MeasurePixelPerEm */
GTEQ[ ]	/* GreaterThanOrEqual */
IF[ ]	/* If */
SPVTL[1]	/* SetPVectorToLine */
SFVTCA[1]	/* SetFVectorToAxis */
MIRP[01101]	/* MoveIndirectRelPt */
SPVTL[1]	/* SetPVectorToLine */
SRP0[ ]	/* SetRefPoint0 */
SFVTL[0]	/* SetFVectorToLine */
MIRP[01101]	/* MoveIndirectRelPt */
EIF[ ]	/* EndIf */
CLEAR[ ]	/* ClearStack */
PUSHB[ ]	/* 3 values pushed */
8 4 1
SVTCA[1]	/* SetFreedomAndProjectionVectorToAxis */
DELTAP1[ ]	/* DeltaExceptionP1 */
NPUSHB[ ]	/* 76 values pushed */
7 5 22 5 23 8 38 5 38 8 54 2 70 2 85 2 87 8 88 9 100 2 122 5 121 8 123 9 14 2 3 1 4 7 5 0 6 2 7 22 5 23 8 39 5 44 6 43 7 38 8 58 3 73 3 71 6 71 7 91 3 87 5 88 6 88 7 87 8 107 3 122 3 120 7 23
DELTAP1[ ]	/* DeltaExceptionP1 */
SVTCA[0]	/* SetFreedomAndProjectionVectorToAxis */
DELTAP1[ ]	/* DeltaExceptionP1 */";
};
width = 1233;
},
{
layerId = "226C7162-7035-4DCE-8E35-7C345FD184FF";
shapes = (
{
closed = 1;
nodes = (
(340,0,l),
(452,573,l),
(645,741,l),
(1005,0,l),
(1224,0,l),
(796,874,l),
(1499,1493,l),
(1245,1493,l),
(503,846,l),
(630,1493,l),
(428,1493,l),
(137,0,l)
);
}
);
userData = {
assembly = "NPUSHB[ ]	/* 59 values pushed */
8 5 9 8 5 6 5 7 5 6 6 5 10 5 0 11 9 5 8 9 11 0 11 2 5 3 2 0 11 1 5 0 0 11 58 8 5 2 3 3 0 125 10 6 10 12 8 7 6 5 2 1 6 0 4 0 1 11 12
SRP0[ ]	/* SetRefPoint0 */
MDRP[10100]	/* MoveDirectRelPt */
MIRP[00100]	/* MoveIndirectRelPt */
MDRP[01100]	/* MoveDirectRelPt */
SRP1[ ]	/* SetRefPoint1 */
SLOOP[ ]	/* SetLoopVariable */
IP[ ]	/* InterpolatePts */
SRP2[ ]	/* SetRefPoint2 */
IP[ ]	/* InterpolatePts */
IUP[1]	/* InterpolateUntPts */
SVTCA[0]	/* SetFreedomAndProjectionVectorToAxis */
MDAP[1]	/* MoveDirectAbsPt */
ALIGNRP[ ]	/* AlignRelativePt */
MIRP[01100]	/* MoveIndirectRelPt */
SHP[0]	/* ShiftPointByLastPoint */
SLOOP[ ]	/* SetLoopVariable */
IP[ ]	/* InterpolatePts */
IUP[0]	/* InterpolateUntPts */
MPPEM[ ]	/* MeasurePixelPerEm */
GTEQ[ ]	/* GreaterThanOrEqual */
IF[ ]	/* If */
SPVTL[1]	/* SetPVectorToLine */
SRP0[ ]	/* SetRefPoint0 */
SFVTCA[1]	/* SetFVectorToAxis */
MIRP[01101]	/* MoveIndirectRelPt */
SPVTL[1]	/* SetPVectorToLine */
SFVTL[0]	/* SetFVectorToLine */
MIRP[01101]	/* MoveIndirectRelPt */
SPVTL[1]	/* SetPVectorToLine */
SRP0[ ]	/* SetRefPoint0 */
SFVTL[0]	/* SetFVectorToLine */
MIRP[01101]	/* MoveIndirectRelPt */
SPVTL[1]	/* SetPVectorToLine */
SFVTCA[1]	/* SetFVectorToAxis */
MIRP[01101]	/* MoveIndirectRelPt */
SPVTL[1]	/* SetPVectorToLine */
SRP0[ ]	/* SetRefPoint0 */
SFVTCA[1]	/* SetFVectorToAxis */
MIRP[01101]	/* MoveIndirectRelPt */
SPVTL[1]	/* SetPVectorToLine */
SRP0[ ]	/* SetRefPoint0 */
SFVTL[0]	/* SetFVectorToLine */
MIRP[01101]	/* MoveIndirectRelPt */
EIF[ ]	/* EndIf */
CLEAR[ ]	/* ClearStack */";
};
width = 1233;
}
);
note = K;
unicode = 75;
},
{
glyphname = L;
lastChange = "2026-05-17 08:27:02 +0000";
layers = (
{
layerId = m01;
shapes = (
{
closed = 1;
nodes = (
(1139,0,l),
(1139,170,l),
(418,170,l),
(418,1493,l),
(215,1493,l),
(215,0,l)
);
}
);
userData = {
assembly = "NPUSHB[ ]	/* 12 values pushed */
2 151 0 136 4 1 30 3 49 0 52 6
SRP0[ ]	/* SetRefPoint0 */
MIRP[11100]	/* MoveIndirectRelPt */
MIRP[01100]	/* MoveIndirectRelPt */
MIRP[01100]	/* MoveIndirectRelPt */
IUP[1]	/* InterpolateUntPts */
SVTCA[0]	/* SetFreedomAndProjectionVectorToAxis */
MDAP[1]	/* MoveDirectAbsPt */
MIRP[00100]	/* MoveIndirectRelPt */
MIRP[01100]	/* MoveIndirectRelPt */
IUP[0]	/* InterpolateUntPts */";
};
width = 1233;
},
{
layerId = "226C7162-7035-4DCE-8E35-7C345FD184FF";
shapes = (
{
closed = 1;
nodes = (
(1138,0,l),
(1171,170,l),
(450,170,l),
(708,1493,l),
(506,1493,l),
(215,0,l)
);
}
);
userData = {
assembly = "NPUSHB[ ]	/* 26 values pushed */
2 5 5 0 5 1 5 0 0 5 58 2 99 0 81 4 2 5 4 1 0 3 0 1 5 6
SRP0[ ]	/* SetRefPoint0 */
MDRP[10100]	/* MoveDirectRelPt */
MIRP[00100]	/* MoveIndirectRelPt */
MDRP[00100]	/* MoveDirectRelPt */
SRP1[ ]	/* SetRefPoint1 */
IP[ ]	/* InterpolatePts */
IP[ ]	/* InterpolatePts */
SRP2[ ]	/* SetRefPoint2 */
IP[ ]	/* InterpolatePts */
IUP[1]	/* InterpolateUntPts */
SVTCA[0]	/* SetFreedomAndProjectionVectorToAxis */
MDAP[1]	/* MoveDirectAbsPt */
MIRP[00100]	/* MoveIndirectRelPt */
MIRP[01100]	/* MoveIndirectRelPt */
IUP[0]	/* InterpolateUntPts */
MPPEM[ ]	/* MeasurePixelPerEm */
GTEQ[ ]	/* GreaterThanOrEqual */
IF[ ]	/* If */
SPVTL[1]	/* SetPVectorToLine */
SRP0[ ]	/* SetRefPoint0 */
SFVTCA[1]	/* SetFVectorToAxis */
MIRP[01101]	/* MoveIndirectRelPt */
SPVTL[1]	/* SetPVectorToLine */
SRP0[ ]	/* SetRefPoint0 */
SFVTCA[1]	/* SetFVectorToAxis */
MIRP[01101]	/* MoveIndirectRelPt */
EIF[ ]	/* EndIf */
CLEAR[ ]	/* ClearStack */";
};
width = 1233;
}
);
note = L;
unicode = 76;
},
{
glyphname = M;
lastChange = "2026-05-17 08:27:02 +0000";
layers = (
{
layerId = m01;
shapes = (
{
closed = 1;
nodes = (
(272,0,l),
(272,1319,l),
(539,532,l),
(692,532,l),
(958,1319,l),
(958,0,l),
(1145,0,l),
(1145,1493,l),
(874,1493,l),
(614,733,l),
(356,1493,l),
(86,1493,l),
(86,0,l)
);
}
);
userData = {
assembly = "NPUSHB[ ]	/* 44 values pushed */
8 2 3 2 7 3 3 2 10 1 2 1 9 2 2 1 66 10 7 2 3 0 8 3 0 180 11 5 9 8 3 2 1 5 10 6 6 4 47 10 6 0 48 13
SRP0[ ]	/* SetRefPoint0 */
MIRP[11100]	/* MoveIndirectRelPt */
MIRP[01100]	/* MoveIndirectRelPt */
MIRP[11100]	/* MoveIndirectRelPt */
MIRP[01100]	/* MoveIndirectRelPt */
SRP1[ ]	/* SetRefPoint1 */
SLOOP[ ]	/* SetLoopVariable */
IP[ ]	/* InterpolatePts */
IUP[1]	/* InterpolateUntPts */
SVTCA[0]	/* SetFreedomAndProjectionVectorToAxis */
MDAP[1]	/* MoveDirectAbsPt */
ALIGNRP[ ]	/* AlignRelativePt */
MIRP[01100]	/* MoveIndirectRelPt */
SHP[0]	/* ShiftPointByLastPoint */
MDRP[00100]	/* MoveDirectRelPt */
SRP1[ ]	/* SetRefPoint1 */
SLOOP[ ]	/* SetLoopVariable */
IP[ ]	/* InterpolatePts */
IUP[0]	/* InterpolateUntPts */
MPPEM[ ]	/* MeasurePixelPerEm */
GTEQ[ ]	/* GreaterThanOrEqual */
IF[ ]	/* If */
SPVTL[1]	/* SetPVectorToLine */
SRP0[ ]	/* SetRefPoint0 */
SFVTCA[1]	/* SetFVectorToAxis */
MDRP[01001]	/* MoveDirectRelPt */
SPVTL[1]	/* SetPVectorToLine */
SRP0[ ]	/* SetRefPoint0 */
SFVTCA[0]	/* SetFVectorToAxis */
MDRP[01001]	/* MoveDirectRelPt */
SPVTL[1]	/* SetPVectorToLine */
SRP0[ ]	/* SetRefPoint0 */
SFVTCA[0]	/* SetFVectorToAxis */
MDRP[01001]	/* MoveDirectRelPt */
SPVTL[1]	/* SetPVectorToLine */
SRP0[ ]	/* SetRefPoint0 */
SFVTCA[1]	/* SetFVectorToAxis */
MDRP[01001]	/* MoveDirectRelPt */
EIF[ ]	/* EndIf */
CLEAR[ ]	/* ClearStack */
PUSHB[ ]	/* 3 values pushed */
15 10 1
SVTCA[0]	/* SetFreedomAndProjectionVectorToAxis */
DELTAP1[ ]	/* DeltaExceptionP1 */
NPUSHB[ ]	/* 36 values pushed */
5 8 10 9 23 1 24 3 23 8 24 9 38 1 41 3 38 8 41 9 54 1 57 3 54 8 56 9 14 15 7 15 7 15 10 3
DELTAP1[ ]	/* DeltaExceptionP1 */
SVTCA[1]	/* SetFreedomAndProjectionVectorToAxis */
DELTAP1[ ]	/* DeltaExceptionP1 */";
};
width = 1233;
},
{
layerId = "226C7162-7035-4DCE-8E35-7C345FD184FF";
shapes = (
{
closed = 1;
nodes = (
(274,0,l),
(530,1327,l),
(645,532,l),
(786,532,l),
(1220,1327,l),
(962,0,l),
(1148,0,l),
(1439,1493,l),
(1169,1493,l),
(755,737,l),
(645,1493,l),
(376,1493,l),
(88,0,l)
);
}
);
userData = {
assembly = "NPUSHB[ ]	/* 68 values pushed */
10 1 2 1 9 2 1 8 2 3 2 7 3 3 2 7 5 4 5 4 6 5 5 5 4 11 5 12 0 12 10 5 0 0 12 58 10 7 2 3 0 8 3 0 125 11 5 7 3 5 4 11 13 10 9 8 6 2 1 6 0 5 1 4 0 1 12 13
SRP0[ ]	/* SetRefPoint0 */
MDRP[10100]	/* MoveDirectRelPt */
MIRP[00100]	/* MoveIndirectRelPt */
MDRP[11100]	/* MoveDirectRelPt */
MIRP[00100]	/* MoveIndirectRelPt */
SRP1[ ]	/* SetRefPoint1 */
SLOOP[ ]	/* SetLoopVariable */
IP[ ]	/* InterpolatePts */
SRP2[ ]	/* SetRefPoint2 */
IP[ ]	/* InterpolatePts */
SRP1[ ]	/* SetRefPoint1 */
SRP2[ ]	/* SetRefPoint2 */
IP[ ]	/* InterpolatePts */
IP[ ]	/* InterpolatePts */
IUP[1]	/* InterpolateUntPts */
SVTCA[0]	/* SetFreedomAndProjectionVectorToAxis */
MDAP[1]	/* MoveDirectAbsPt */
ALIGNRP[ ]	/* AlignRelativePt */
MIRP[01100]	/* MoveIndirectRelPt */
SHP[0]	/* ShiftPointByLastPoint */
MDRP[00100]	/* MoveDirectRelPt */
SRP1[ ]	/* SetRefPoint1 */
SLOOP[ ]	/* SetLoopVariable */
IP[ ]	/* InterpolatePts */
IUP[0]	/* InterpolateUntPts */
MPPEM[ ]	/* MeasurePixelPerEm */
GTEQ[ ]	/* GreaterThanOrEqual */
IF[ ]	/* If */
SPVTL[1]	/* SetPVectorToLine */
SRP0[ ]	/* SetRefPoint0 */
SFVTCA[1]	/* SetFVectorToAxis */
MIRP[01101]	/* MoveIndirectRelPt */
SPVTL[1]	/* SetPVectorToLine */
SRP0[ ]	/* SetRefPoint0 */
SFVTCA[1]	/* SetFVectorToAxis */
MIRP[01101]	/* MoveIndirectRelPt */
SPVTL[1]	/* SetPVectorToLine */
SRP0[ ]	/* SetRefPoint0 */
SFVTCA[1]	/* SetFVectorToAxis */
MIRP[01101]	/* MoveIndirectRelPt */
SPVTL[1]	/* SetPVectorToLine */
SRP0[ ]	/* SetRefPoint0 */
SFVTCA[1]	/* SetFVectorToAxis */
MIRP[01101]	/* MoveIndirectRelPt */
SPVTL[1]	/* SetPVectorToLine */
SRP0[ ]	/* SetRefPoint0 */
SFVTCA[1]	/* SetFVectorToAxis */
MDRP[01001]	/* MoveDirectRelPt */
SPVTL[1]	/* SetPVectorToLine */
SRP0[ ]	/* SetRefPoint0 */
SFVTCA[1]	/* SetFVectorToAxis */
MDRP[01001]	/* MoveDirectRelPt */
SPVTL[1]	/* SetPVectorToLine */
SFVTCA[1]	/* SetFVectorToAxis */
MDRP[01001]	/* MoveDirectRelPt */
SPVTL[1]	/* SetPVectorToLine */
SRP0[ ]	/* SetRefPoint0 */
SFVTCA[1]	/* SetFVectorToAxis */
MDRP[01001]	/* MoveDirectRelPt */
EIF[ ]	/* EndIf */
CLEAR[ ]	/* ClearStack */
PUSHB[ ]	/* 3 values pushed */
0 8 1
SVTCA[1]	/* SetFreedomAndProjectionVectorToAxis */
DELTAP1[ ]	/* DeltaExceptionP1 */
NPUSHB[ ]	/* 38 values pushed */
20 7 1 4 2 0 3 0 4 0 5 0 6 4 7 0 7 8 10 19 1 16 3 16 4 16 5 16 6 19 7 16 7 22 8 26 9 17
DELTAP1[ ]	/* DeltaExceptionP1 */
SVTCA[0]	/* SetFreedomAndProjectionVectorToAxis */
DELTAP1[ ]	/* DeltaExceptionP1 */";
};
width = 1233;
}
);
note = M;
unicode = 77;
},
{
glyphname = N;
lastChange = "2026-05-17 08:27:02 +0000";
layers = (
{
layerId = m01;
shapes = (
{
closed = 1;
nodes = (
(334,0,l),
(334,1229,l),
(838,0,l),
(1094,0,l),
(1094,1493,l),
(899,1493,l),
(899,264,l),
(395,1493,l),
(139,1493,l),
(139,0,l)
);
}
);
userData = {
assembly = "NPUSHB[ ]	/* 28 values pushed */
7 1 2 1 2 6 7 6 66 7 2 3 0 180 8 5 6 1 7 2 17 4 49 7 17 0 48 10
SRP0[ ]	/* SetRefPoint0 */
MIRP[11100]	/* MoveIndirectRelPt */
MIRP[01100]	/* MoveIndirectRelPt */
MIRP[11100]	/* MoveIndirectRelPt */
MIRP[01100]	/* MoveIndirectRelPt */
SRP1[ ]	/* SetRefPoint1 */
IP[ ]	/* InterpolatePts */
IP[ ]	/* InterpolatePts */
IUP[1]	/* InterpolateUntPts */
SVTCA[0]	/* SetFreedomAndProjectionVectorToAxis */
MDAP[1]	/* MoveDirectAbsPt */
ALIGNRP[ ]	/* AlignRelativePt */
MIRP[01100]	/* MoveIndirectRelPt */
SHP[0]	/* ShiftPointByLastPoint */
IP[ ]	/* InterpolatePts */
IP[ ]	/* InterpolatePts */
IUP[0]	/* InterpolateUntPts */
MPPEM[ ]	/* MeasurePixelPerEm */
GTEQ[ ]	/* GreaterThanOrEqual */
IF[ ]	/* If */
SPVTL[1]	/* SetPVectorToLine */
SRP0[ ]	/* SetRefPoint0 */
SFVTCA[0]	/* SetFVectorToAxis */
MDRP[01001]	/* MoveDirectRelPt */
SPVTL[1]	/* SetPVectorToLine */
SRP0[ ]	/* SetRefPoint0 */
SFVTCA[0]	/* SetFVectorToAxis */
MDRP[01001]	/* MoveDirectRelPt */
EIF[ ]	/* EndIf */
CLEAR[ ]	/* ClearStack */
PUSHB[ ]	/* 3 values pushed */
23 1 1
SVTCA[1]	/* SetFreedomAndProjectionVectorToAxis */
DELTAP1[ ]	/* DeltaExceptionP1 */
NPUSHB[ ]	/* 38 values pushed */
23 2 24 7 41 2 38 7 56 7 87 2 100 2 106 7 117 2 122 7 10 24 6 38 1 41 6 70 1 73 6 87 1 103 1 104 6 8
DELTAP1[ ]	/* DeltaExceptionP1 */
SVTCA[0]	/* SetFreedomAndProjectionVectorToAxis */
DELTAP1[ ]	/* DeltaExceptionP1 */";
};
width = 1233;
},
{
layerId = "226C7162-7035-4DCE-8E35-7C345FD184FF";
shapes = (
{
closed = 1;
nodes = (
(333,0,l),
(573,1229,l),
(837,0,l),
(1093,0,l),
(1384,1493,l),
(1189,1493,l),
(950,264,l),
(686,1493,l),
(430,1493,l),
(139,0,l)
);
}
);
userData = {
assembly = "NPUSHB[ ]	/* 60 values pushed */
6 3 2 2 1 1 3 7 7 6 3 5 4 5 4 2 5 1 2 5 5 4 8 5 9 0 9 7 5 6 7 0 0 9 58 7 2 3 0 125 8 5 3 5 4 8 10 7 6 2 1 4 0 5 1 4 0 1 9 10
SRP0[ ]	/* SetRefPoint0 */
MDRP[10100]	/* MoveDirectRelPt */
MIRP[00100]	/* MoveIndirectRelPt */
MDRP[10100]	/* MoveDirectRelPt */
MIRP[00100]	/* MoveIndirectRelPt */
SRP1[ ]	/* SetRefPoint1 */
SLOOP[ ]	/* SetLoopVariable */
IP[ ]	/* InterpolatePts */
SRP2[ ]	/* SetRefPoint2 */
IP[ ]	/* InterpolatePts */
SRP1[ ]	/* SetRefPoint1 */
SRP2[ ]	/* SetRefPoint2 */
IP[ ]	/* InterpolatePts */
IUP[1]	/* InterpolateUntPts */
SVTCA[0]	/* SetFreedomAndProjectionVectorToAxis */
MDAP[1]	/* MoveDirectAbsPt */
ALIGNRP[ ]	/* AlignRelativePt */
MIRP[01100]	/* MoveIndirectRelPt */
SHP[0]	/* ShiftPointByLastPoint */
IP[ ]	/* InterpolatePts */
IP[ ]	/* InterpolatePts */
IUP[0]	/* InterpolateUntPts */
MPPEM[ ]	/* MeasurePixelPerEm */
GTEQ[ ]	/* GreaterThanOrEqual */
IF[ ]	/* If */
SPVTL[1]	/* SetPVectorToLine */
SRP0[ ]	/* SetRefPoint0 */
SFVTL[0]	/* SetFVectorToLine */
MIRP[01101]	/* MoveIndirectRelPt */
SPVTL[1]	/* SetPVectorToLine */
SRP0[ ]	/* SetRefPoint0 */
SFVTCA[1]	/* SetFVectorToAxis */
MIRP[01101]	/* MoveIndirectRelPt */
SPVTL[1]	/* SetPVectorToLine */
SRP0[ ]	/* SetRefPoint0 */
SFVTL[0]	/* SetFVectorToLine */
MIRP[01101]	/* MoveIndirectRelPt */
SPVTL[1]	/* SetPVectorToLine */
SRP0[ ]	/* SetRefPoint0 */
SFVTCA[1]	/* SetFVectorToAxis */
MIRP[01101]	/* MoveIndirectRelPt */
SPVTL[1]	/* SetPVectorToLine */
SRP0[ ]	/* SetRefPoint0 */
SFVTCA[1]	/* SetFVectorToAxis */
MIRP[01101]	/* MoveIndirectRelPt */
SPVTL[1]	/* SetPVectorToLine */
SRP0[ ]	/* SetRefPoint0 */
SFVTCA[1]	/* SetFVectorToAxis */
MIRP[01101]	/* MoveIndirectRelPt */
EIF[ ]	/* EndIf */
CLEAR[ ]	/* ClearStack */
PUSHB[ ]	/* 3 values pushed */
8 6 1
SVTCA[1]	/* SetFreedomAndProjectionVectorToAxis */
DELTAP1[ ]	/* DeltaExceptionP1 */
NPUSHB[ ]	/* 11 values pushed */
5 1 11 6 21 1 26 6 41 6 5
DELTAP1[ ]	/* DeltaExceptionP1 */";
};
width = 1233;
}
);
note = N;
unicode = 78;
},
{
glyphname = O;
lastChange = "2026-05-17 08:27:02 +0000";
layers = (
{
layerId = m01;
shapes = (
{
closed = 1;
nodes = (
(770,135,o),
(616,135,qs),
(463,135,o),
(328,417,o),
(328,745,qs),
(328,1074,o),
(463,1356,o),
(616,1356,qs),
(770,1356,o),
(905,1074,o),
(905,745,qs),
(905,416,o)
);
},
{
closed = 1;
nodes = (
(869,1520,o),
(616,1520,qs),
(364,1520,o),
(117,1136,o),
(117,745,qs),
(117,353,o),
(363,-29,o),
(616,-29,qs),
(869,-29,o),
(1116,355,o),
(1116,745,qs),
(1116,1136,o)
);
}
);
userData = {
assembly = "NPUSHB[ ]	/* 19 values pushed */
9 151 15 3 151 21 150 15 153 24 0 50 12 54 6 50 18 53 24
SRP0[ ]	/* SetRefPoint0 */
MIRP[11100]	/* MoveIndirectRelPt */
MIRP[01100]	/* MoveIndirectRelPt */
MIRP[11100]	/* MoveIndirectRelPt */
MIRP[01100]	/* MoveIndirectRelPt */
IUP[1]	/* InterpolateUntPts */
SVTCA[0]	/* SetFreedomAndProjectionVectorToAxis */
SRP0[ ]	/* SetRefPoint0 */
MIRP[00100]	/* MoveIndirectRelPt */
MIRP[10100]	/* MoveIndirectRelPt */
MIRP[01100]	/* MoveIndirectRelPt */
SRP0[ ]	/* SetRefPoint0 */
MIRP[01110]	/* MoveIndirectRelPt */
IUP[0]	/* InterpolateUntPts */";
};
width = 1233;
},
{
layerId = "226C7162-7035-4DCE-8E35-7C345FD184FF";
shapes = (
{
closed = 1;
nodes = (
(439,271,o),
(439,414,qs),
(439,604,o),
(531,1012,o),
(607,1159,qs),
(654,1254,o),
(796,1356,o),
(881,1356,qs),
(991,1356,o),
(1096,1221,o),
(1096,1079,qs),
(1096,889,o),
(1004,477,o),
(930,332,qs),
(883,237,o),
(739,135,o),
(654,135,qs),
(544,135,o)
);
},
{
closed = 1;
nodes = (
(1108,1520,o),
(906,1520,qs),
(761,1520,o),
(543,1399,o),
(455,1272,qs),
(416,1213,o),
(349,1067,o),
(320,975,qs),
(277,839,o),
(234,584,o),
(234,473,qs),
(234,217,o),
(428,-29,o),
(629,-29,qs),
(774,-29,o),
(992,92,o),
(1080,219,qs),
(1119,278,o),
(1186,424,o),
(1215,516,qs),
(1258,652,o),
(1303,910,o),
(1303,1020,qs),
(1303,1275,o)
);
}
);
userData = {
assembly = "NPUSHB[ ]	/* 17 values pushed */
0 99 27 9 99 39 97 27 101 42 6 25 18 15 25 30 42
SRP0[ ]	/* SetRefPoint0 */
MDRP[10100]	/* MoveDirectRelPt */
MIRP[01100]	/* MoveIndirectRelPt */
MDRP[10100]	/* MoveDirectRelPt */
MIRP[01100]	/* MoveIndirectRelPt */
IUP[1]	/* InterpolateUntPts */
SVTCA[0]	/* SetFreedomAndProjectionVectorToAxis */
SRP0[ ]	/* SetRefPoint0 */
MIRP[00100]	/* MoveIndirectRelPt */
MIRP[10100]	/* MoveIndirectRelPt */
MIRP[01100]	/* MoveIndirectRelPt */
SRP0[ ]	/* SetRefPoint0 */
MIRP[01110]	/* MoveIndirectRelPt */
IUP[0]	/* InterpolateUntPts */";
};
width = 1233;
}
);
note = O;
unicode = 79;
},
{
glyphname = P;
lastChange = "2026-05-17 08:27:02 +0000";
layers = (
{
layerId = m01;
shapes = (
{
closed = 1;
nodes = (
(774,1327,o),
(930,1180,o),
(930,1047,qs),
(930,914,o),
(773,766,o),
(633,766,qs),
(399,766,l),
(399,1327,l),
(633,1327,ls)
);
},
{
closed = 1;
nodes = (
(399,0,l),
(399,600,l),
(633,600,ls),
(884,600,o),
(1141,826,o),
(1141,1047,qs),
(1141,1266,o),
(883,1493,o),
(633,1493,qs),
(197,1493,l),
(197,0,l)
);
}
);
userData = {
assembly = "NPUSHB[ ]	/* 24 values pushed */
1 151 16 0 151 9 136 18 16 10 8 2 4 0 5 50 13 56 17 0 30 9 51 20
SRP0[ ]	/* SetRefPoint0 */
MIRP[11100]	/* MoveIndirectRelPt */
MIRP[01100]	/* MoveIndirectRelPt */
SHP[0]	/* ShiftPointByLastPoint */
MIRP[11100]	/* MoveIndirectRelPt */
MIRP[01100]	/* MoveIndirectRelPt */
SRP1[ ]	/* SetRefPoint1 */
SLOOP[ ]	/* SetLoopVariable */
IP[ ]	/* InterpolatePts */
IUP[1]	/* InterpolateUntPts */
SVTCA[0]	/* SetFreedomAndProjectionVectorToAxis */
MDAP[1]	/* MoveDirectAbsPt */
MIRP[10100]	/* MoveIndirectRelPt */
MIRP[01100]	/* MoveIndirectRelPt */
MDRP[10100]	/* MoveDirectRelPt */
MIRP[01100]	/* MoveIndirectRelPt */
IUP[0]	/* InterpolateUntPts */";
};
width = 1233;
},
{
layerId = "226C7162-7035-4DCE-8E35-7C345FD184FF";
shapes = (
{
closed = 1;
nodes = (
(1021,1327,o),
(1145,1224,o),
(1145,1116,qs),
(1145,957,o),
(948,766,o),
(783,766,qs),
(549,766,l),
(658,1327,l),
(891,1327,ls)
);
},
{
closed = 1;
nodes = (
(400,0,l),
(517,600,l),
(750,600,ls),
(1030,600,o),
(1350,886,o),
(1350,1135,qs),
(1350,1309,o),
(1134,1493,o),
(928,1493,qs),
(488,1493,l),
(197,0,l)
);
}
);
userData = {
assembly = "NPUSHB[ ]	/* 54 values pushed */
18 5 9 19 16 1 15 17 5 19 9 19 2 1 3 1 5 9 19 8 1 7 0 5 9 9 19 58 1 99 16 0 99 9 81 18 18 19 17 8 2 1 0 5 10 16 9 5 25 13 9 1 19 20
SRP0[ ]	/* SetRefPoint0 */
MDRP[10100]	/* MoveDirectRelPt */
MIRP[00100]	/* MoveIndirectRelPt */
MDRP[10100]	/* MoveDirectRelPt */
MIRP[01100]	/* MoveIndirectRelPt */
SRP1[ ]	/* SetRefPoint1 */
IP[ ]	/* InterpolatePts */
IP[ ]	/* InterpolatePts */
SLOOP[ ]	/* SetLoopVariable */
IP[ ]	/* InterpolatePts */
SRP2[ ]	/* SetRefPoint2 */
IP[ ]	/* InterpolatePts */
IUP[1]	/* InterpolateUntPts */
SVTCA[0]	/* SetFreedomAndProjectionVectorToAxis */
MDAP[1]	/* MoveDirectAbsPt */
MIRP[10100]	/* MoveIndirectRelPt */
MIRP[01100]	/* MoveIndirectRelPt */
MDRP[10100]	/* MoveDirectRelPt */
MIRP[01100]	/* MoveIndirectRelPt */
IUP[0]	/* InterpolateUntPts */
MPPEM[ ]	/* MeasurePixelPerEm */
GTEQ[ ]	/* GreaterThanOrEqual */
IF[ ]	/* If */
SPVTL[1]	/* SetPVectorToLine */
SRP0[ ]	/* SetRefPoint0 */
SFVTCA[1]	/* SetFVectorToAxis */
MIRP[01101]	/* MoveIndirectRelPt */
SRP1[ ]	/* SetRefPoint1 */
SLOOP[ ]	/* SetLoopVariable */
IP[ ]	/* InterpolatePts */
SPVTL[1]	/* SetPVectorToLine */
SFVTCA[1]	/* SetFVectorToAxis */
MIRP[01101]	/* MoveIndirectRelPt */
SRP1[ ]	/* SetRefPoint1 */
SLOOP[ ]	/* SetLoopVariable */
IP[ ]	/* InterpolatePts */
SPVTL[1]	/* SetPVectorToLine */
SRP0[ ]	/* SetRefPoint0 */
SFVTCA[1]	/* SetFVectorToAxis */
MIRP[01101]	/* MoveIndirectRelPt */
SRP1[ ]	/* SetRefPoint1 */
SLOOP[ ]	/* SetLoopVariable */
IP[ ]	/* InterpolatePts */
SPVTL[1]	/* SetPVectorToLine */
SFVTCA[1]	/* SetFVectorToAxis */
MIRP[01101]	/* MoveIndirectRelPt */
EIF[ ]	/* EndIf */
CLEAR[ ]	/* ClearStack */";
};
width = 1233;
}
);
note = P;
unicode = 80;
},
{
glyphname = Q;
lastChange = "2026-05-17 08:27:02 +0000";
layers = (
{
layerId = m01;
shapes = (
{
closed = 1;
nodes = (
(1040,-170,l),
(840,20,l),
(979,92,o),
(1116,451,o),
(1116,745,qs),
(1116,1136,o),
(869,1520,o),
(616,1520,qs),
(364,1520,o),
(117,1136,o),
(117,745,qs),
(117,355,o),
(364,-29,o),
(614,-29,qs),
(622,-29,o),
(648,-27,o),
(655,-27,q),
(889,-270,l)
);
},
{
closed = 1;
nodes = (
(770,135,o),
(616,135,qs),
(463,135,o),
(328,417,o),
(328,745,qs),
(328,1074,o),
(463,1356,o),
(616,1356,qs),
(770,1356,o),
(905,1074,o),
(905,745,qs),
(905,416,o)
);
}
);
userData = {
assembly = "NPUSHB[ ]	/* 32 values pushed */
0 30 16 17 15 27 151 3 21 151 9 150 3 153 17 30 17 24 16 12 15 0 24 18 50 12 54 24 50 6 53 30
SRP0[ ]	/* SetRefPoint0 */
MIRP[11100]	/* MoveIndirectRelPt */
MIRP[01100]	/* MoveIndirectRelPt */
MIRP[11100]	/* MoveIndirectRelPt */
MIRP[01100]	/* MoveIndirectRelPt */
SRP1[ ]	/* SetRefPoint1 */
IP[ ]	/* InterpolatePts */
IP[ ]	/* InterpolatePts */
SRP1[ ]	/* SetRefPoint1 */
IP[ ]	/* InterpolatePts */
SRP1[ ]	/* SetRefPoint1 */
IP[ ]	/* InterpolatePts */
IUP[1]	/* InterpolateUntPts */
SVTCA[0]	/* SetFreedomAndProjectionVectorToAxis */
SRP0[ ]	/* SetRefPoint0 */
MDRP[00100]	/* MoveDirectRelPt */
MIRP[00100]	/* MoveIndirectRelPt */
MIRP[10100]	/* MoveIndirectRelPt */
MIRP[01100]	/* MoveIndirectRelPt */
SRP0[ ]	/* SetRefPoint0 */
MIRP[01110]	/* MoveIndirectRelPt */
IP[ ]	/* InterpolatePts */
SRP2[ ]	/* SetRefPoint2 */
IP[ ]	/* InterpolatePts */
SRP2[ ]	/* SetRefPoint2 */
IP[ ]	/* InterpolatePts */
IUP[0]	/* InterpolateUntPts */";
};
width = 1233;
},
{
layerId = "226C7162-7035-4DCE-8E35-7C345FD184FF";
shapes = (
{
closed = 1;
nodes = (
(996,-178,l),
(842,10,l),
(921,43,o),
(1061,179,o),
(1115,274,qs),
(1152,341,o),
(1216,513,o),
(1246,629,qs),
(1274,740,o),
(1303,937,o),
(1303,1020,qs),
(1303,1275,o),
(1108,1520,o),
(906,1520,qs),
(761,1520,o),
(543,1399,o),
(455,1272,qs),
(416,1213,o),
(349,1067,o),
(320,975,qs),
(277,839,o),
(234,584,o),
(234,473,qs),
(234,211,o),
(431,-27,o),
(646,-27,qs),
(656,-27,l),
(842,-270,l)
);
},
{
closed = 1;
nodes = (
(439,271,o),
(439,414,qs),
(439,604,o),
(531,1012,o),
(607,1159,qs),
(654,1254,o),
(796,1356,o),
(881,1356,qs),
(991,1356,o),
(1096,1221,o),
(1096,1079,qs),
(1096,889,o),
(1004,477,o),
(930,332,qs),
(883,237,o),
(739,135,o),
(654,135,qs),
(544,135,o)
);
}
);
userData = {
assembly = "NPUSHB[ ]	/* 27 values pushed */
26 27 25 28 99 0 37 99 13 97 0 101 27 46 26 1 27 25 3 43 34 25 16 43 25 4 46
SRP0[ ]	/* SetRefPoint0 */
MDRP[10100]	/* MoveDirectRelPt */
MIRP[01100]	/* MoveIndirectRelPt */
MDRP[10100]	/* MoveDirectRelPt */
MIRP[01100]	/* MoveIndirectRelPt */
SRP1[ ]	/* SetRefPoint1 */
SLOOP[ ]	/* SetLoopVariable */
IP[ ]	/* InterpolatePts */
IP[ ]	/* InterpolatePts */
IUP[1]	/* InterpolateUntPts */
SVTCA[0]	/* SetFreedomAndProjectionVectorToAxis */
SRP0[ ]	/* SetRefPoint0 */
MDRP[00100]	/* MoveDirectRelPt */
MIRP[00100]	/* MoveIndirectRelPt */
MIRP[10100]	/* MoveIndirectRelPt */
MIRP[01100]	/* MoveIndirectRelPt */
SRP0[ ]	/* SetRefPoint0 */
MIRP[01110]	/* MoveIndirectRelPt */
IP[ ]	/* InterpolatePts */
SRP2[ ]	/* SetRefPoint2 */
IP[ ]	/* InterpolatePts */
IUP[0]	/* InterpolateUntPts */";
};
width = 1233;
}
);
note = Q;
unicode = 81;
},
{
glyphname = R;
lastChange = "2026-05-17 08:27:02 +0000";
layers = (
{
layerId = m01;
shapes = (
{
closed = 1;
nodes = (
(1067,913,o),
(1067,1061,qs),
(1067,1271,o),
(805,1493,o),
(559,1493,qs),
(143,1493,l),
(143,0,l),
(346,0,l),
(346,631,l),
(539,631,ls),
(638,631,o),
(761,538,o),
(838,377,qs),
(1016,0,l),
(1233,0,l),
(1030,408,ls),
(948,574,o),
(838,685,o),
(760,705,q),
(906,726,o)
);
},
{
closed = 1;
nodes = (
(703,1327,o),
(854,1190,o),
(854,1061,qs),
(854,927,o),
(712,797,o),
(567,797,qs),
(346,797,l),
(346,1327,l),
(559,1327,ls)
);
}
);
userData = {
assembly = "NPUSHB[ ]	/* 56 values pushed */
9 8 7 3 10 6 37 3 4 3 5 37 4 4 3 66 6 4 0 21 3 4 21 151 9 20 151 13 136 11 4 5 17 22 9 6 3 10 3 17 0 28 14 3 10 25 50 4 17 49 20 10 30 12 48 29
SRP0[ ]	/* SetRefPoint0 */
MIRP[11100]	/* MoveIndirectRelPt */
MIRP[01100]	/* MoveIndirectRelPt */
SHP[0]	/* ShiftPointByLastPoint */
MIRP[11100]	/* MoveIndirectRelPt */
MDRP[00100]	/* MoveDirectRelPt */
MIRP[01100]	/* MoveIndirectRelPt */
SRP1[ ]	/* SetRefPoint1 */
SLOOP[ ]	/* SetLoopVariable */
IP[ ]	/* InterpolatePts */
SRP1[ ]	/* SetRefPoint1 */
IP[ ]	/* InterpolatePts */
SRP1[ ]	/* SetRefPoint1 */
SLOOP[ ]	/* SetLoopVariable */
IP[ ]	/* InterpolatePts */
SRP1[ ]	/* SetRefPoint1 */
IP[ ]	/* InterpolatePts */
IUP[1]	/* InterpolateUntPts */
SVTCA[0]	/* SetFreedomAndProjectionVectorToAxis */
MDAP[1]	/* MoveDirectAbsPt */
ALIGNRP[ ]	/* AlignRelativePt */
MIRP[10100]	/* MoveIndirectRelPt */
MIRP[01100]	/* MoveIndirectRelPt */
MDRP[10100]	/* MoveDirectRelPt */
MIRP[01100]	/* MoveIndirectRelPt */
SRP2[ ]	/* SetRefPoint2 */
IP[ ]	/* InterpolatePts */
SRP2[ ]	/* SetRefPoint2 */
IP[ ]	/* InterpolatePts */
SRP2[ ]	/* SetRefPoint2 */
IP[ ]	/* InterpolatePts */
IUP[0]	/* InterpolateUntPts */
MPPEM[ ]	/* MeasurePixelPerEm */
GTEQ[ ]	/* GreaterThanOrEqual */
IF[ ]	/* If */
SPVTL[1]	/* SetPVectorToLine */
SRP0[ ]	/* SetRefPoint0 */
SFVTCA[1]	/* SetFVectorToAxis */
MIRP[01101]	/* MoveIndirectRelPt */
SPVTL[1]	/* SetPVectorToLine */
SRP0[ ]	/* SetRefPoint0 */
SFVTPV[ ]	/* SetFVectorToPVector */
MIRP[01101]	/* MoveIndirectRelPt */
SRP1[ ]	/* SetRefPoint1 */
SLOOP[ ]	/* SetLoopVariable */
IP[ ]	/* InterpolatePts */
EIF[ ]	/* EndIf */
CLEAR[ ]	/* ClearStack */";
};
width = 1233;
},
{
layerId = "226C7162-7035-4DCE-8E35-7C345FD184FF";
shapes = (
{
closed = 1;
nodes = (
(1283,968,o),
(1283,1151,qs),
(1283,1314,o),
(1056,1493,o),
(849,1493,qs),
(433,1493,l),
(144,0,l),
(347,0,l),
(470,631,l),
(662,631,ls),
(772,631,o),
(881,533,o),
(925,377,qs),
(1031,0,l),
(1232,0,l),
(1111,408,ls),
(1057,585,o),
(970,691,o),
(898,705,q),
(1076,728,o)
);
},
{
closed = 1;
nodes = (
(954,1327,o),
(1080,1222,o),
(1080,1110,qs),
(1080,968,o),
(885,797,o),
(722,797,qs),
(503,797,l),
(605,1327,l),
(818,1327,ls)
);
}
);
userData = {
assembly = "NPUSHB[ ]	/* 82 values pushed */
9 8 7 3 10 6 5 3 4 3 5 5 4 4 3 11 5 13 12 10 5 12 13 12 22 1 23 21 5 13 12 28 1 27 20 5 13 13 12 58 6 4 0 21 3 4 21 99 9 20 99 13 81 11 4 4 17 28 22 21 20 5 10 9 6 8 25 11 13 12 3 17 14 0 13 25 25 17 13 1 12 29
SRP0[ ]	/* SetRefPoint0 */
MDRP[10100]	/* MoveDirectRelPt */
MIRP[00100]	/* MoveIndirectRelPt */
MDRP[10100]	/* MoveDirectRelPt */
MIRP[01100]	/* MoveIndirectRelPt */
SRP1[ ]	/* SetRefPoint1 */
IP[ ]	/* InterpolatePts */
IP[ ]	/* InterpolatePts */
SRP1[ ]	/* SetRefPoint1 */
IP[ ]	/* InterpolatePts */
SRP1[ ]	/* SetRefPoint1 */
SRP2[ ]	/* SetRefPoint2 */
IP[ ]	/* InterpolatePts */
SRP1[ ]	/* SetRefPoint1 */
SLOOP[ ]	/* SetLoopVariable */
IP[ ]	/* InterpolatePts */
SRP2[ ]	/* SetRefPoint2 */
IP[ ]	/* InterpolatePts */
IUP[1]	/* InterpolateUntPts */
SVTCA[0]	/* SetFreedomAndProjectionVectorToAxis */
MDAP[1]	/* MoveDirectAbsPt */
ALIGNRP[ ]	/* AlignRelativePt */
MIRP[10100]	/* MoveIndirectRelPt */
MIRP[01100]	/* MoveIndirectRelPt */
MDRP[10100]	/* MoveDirectRelPt */
MIRP[01100]	/* MoveIndirectRelPt */
SRP2[ ]	/* SetRefPoint2 */
IP[ ]	/* InterpolatePts */
SRP2[ ]	/* SetRefPoint2 */
IP[ ]	/* InterpolatePts */
SRP2[ ]	/* SetRefPoint2 */
IP[ ]	/* InterpolatePts */
IUP[0]	/* InterpolateUntPts */
MPPEM[ ]	/* MeasurePixelPerEm */
GTEQ[ ]	/* GreaterThanOrEqual */
IF[ ]	/* If */
SPVTL[1]	/* SetPVectorToLine */
SRP0[ ]	/* SetRefPoint0 */
SFVTCA[1]	/* SetFVectorToAxis */
MIRP[01101]	/* MoveIndirectRelPt */
SRP1[ ]	/* SetRefPoint1 */
SLOOP[ ]	/* SetLoopVariable */
IP[ ]	/* InterpolatePts */
SPVTL[1]	/* SetPVectorToLine */
SFVTCA[1]	/* SetFVectorToAxis */
MIRP[01101]	/* MoveIndirectRelPt */
SRP1[ ]	/* SetRefPoint1 */
SLOOP[ ]	/* SetLoopVariable */
IP[ ]	/* InterpolatePts */
SPVTL[1]	/* SetPVectorToLine */
SRP0[ ]	/* SetRefPoint0 */
SFVTCA[1]	/* SetFVectorToAxis */
MIRP[01101]	/* MoveIndirectRelPt */
SPVTL[1]	/* SetPVectorToLine */
SFVTCA[1]	/* SetFVectorToAxis */
MIRP[01101]	/* MoveIndirectRelPt */
SPVTL[1]	/* SetPVectorToLine */
SRP0[ ]	/* SetRefPoint0 */
SFVTCA[1]	/* SetFVectorToAxis */
MIRP[01101]	/* MoveIndirectRelPt */
SPVTL[1]	/* SetPVectorToLine */
SRP0[ ]	/* SetRefPoint0 */
SFVTCA[1]	/* SetFVectorToAxis */
MIRP[01101]	/* MoveIndirectRelPt */
SRP1[ ]	/* SetRefPoint1 */
SLOOP[ ]	/* SetLoopVariable */
IP[ ]	/* InterpolatePts */
EIF[ ]	/* EndIf */
CLEAR[ ]	/* ClearStack */";
};
width = 1233;
}
);
note = R;
unicode = 82;
},
{
glyphname = S;
lastChange = "2026-05-17 08:27:02 +0000";
layers = (
{
layerId = m01;
shapes = (
{
closed = 1;
nodes = (
(717,1520,o),
(631,1520,qs),
(408,1520,o),
(139,1279,o),
(139,1079,qs),
(139,919,o),
(327,729,o),
(535,682,qs),
(643,657,ls),
(788,625,o),
(905,507,o),
(905,395,qs),
(905,272,o),
(735,135,o),
(582,135,qs),
(478,135,o),
(273,203,o),
(158,276,q),
(158,61,l),
(265,16,o),
(477,-29,o),
(582,-29,qs),
(834,-29,o),
(1098,195,o),
(1098,408,qs),
(1098,589,o),
(906,799,o),
(696,848,qs),
(590,872,ls),
(441,907,o),
(332,1011,o),
(332,1110,qs),
(332,1223,o),
(498,1356,o),
(641,1356,qs),
(735,1356,o),
(920,1296,o),
(1012,1237,q),
(1012,1442,l),
(907,1481,o)
);
}
);
userData = {
assembly = "NPUSHB[ ]	/* 61 values pushed */
13 12 2 14 11 37 30 31 30 8 9 2 7 10 37 31 31 30 66 10 11 30 31 4 1 21 179 20 167 24 151 17 1 179 0 167 4 151 37 150 17 153 40 30 10 11 31 27 7 0 38 27 57 14 49 20 7 57 34 48 40
SRP0[ ]	/* SetRefPoint0 */
MIRP[11100]	/* MoveIndirectRelPt */
MIRP[01100]	/* MoveIndirectRelPt */
MDRP[00100]	/* MoveDirectRelPt */
MIRP[11100]	/* MoveIndirectRelPt */
MIRP[01100]	/* MoveIndirectRelPt */
MIRP[00100]	/* MoveIndirectRelPt */
SRP1[ ]	/* SetRefPoint1 */
SRP2[ ]	/* SetRefPoint2 */
IP[ ]	/* InterpolatePts */
IP[ ]	/* InterpolatePts */
IP[ ]	/* InterpolatePts */
IP[ ]	/* InterpolatePts */
IUP[1]	/* InterpolateUntPts */
SVTCA[0]	/* SetFreedomAndProjectionVectorToAxis */
SRP0[ ]	/* SetRefPoint0 */
MIRP[00100]	/* MoveIndirectRelPt */
MIRP[10100]	/* MoveIndirectRelPt */
MIRP[01100]	/* MoveIndirectRelPt */
MIRP[10100]	/* MoveIndirectRelPt */
MIRP[01100]	/* MoveIndirectRelPt */
SRP0[ ]	/* SetRefPoint0 */
MIRP[01110]	/* MoveIndirectRelPt */
MIRP[10110]	/* MoveIndirectRelPt */
MIRP[01110]	/* MoveIndirectRelPt */
SRP1[ ]	/* SetRefPoint1 */
SLOOP[ ]	/* SetLoopVariable */
IP[ ]	/* InterpolatePts */
IUP[0]	/* InterpolateUntPts */
MPPEM[ ]	/* MeasurePixelPerEm */
GTEQ[ ]	/* GreaterThanOrEqual */
IF[ ]	/* If */
SPVTL[1]	/* SetPVectorToLine */
SRP0[ ]	/* SetRefPoint0 */
SFVTPV[ ]	/* SetFVectorToPVector */
MIRP[01101]	/* MoveIndirectRelPt */
SRP1[ ]	/* SetRefPoint1 */
SLOOP[ ]	/* SetLoopVariable */
IP[ ]	/* InterpolatePts */
SPVTL[1]	/* SetPVectorToLine */
SRP0[ ]	/* SetRefPoint0 */
SFVTPV[ ]	/* SetFVectorToPVector */
MIRP[01101]	/* MoveIndirectRelPt */
SRP1[ ]	/* SetRefPoint1 */
SLOOP[ ]	/* SetLoopVariable */
IP[ ]	/* InterpolatePts */
EIF[ ]	/* EndIf */
CLEAR[ ]	/* ClearStack */
PUSHB[ ]	/* 3 values pushed */
8 2 1
SVTCA[1]	/* SetFreedomAndProjectionVectorToAxis */
DELTAP1[ ]	/* DeltaExceptionP1 */
NPUSHB[ ]	/* 10 values pushed */
7 0 7 1 7 2 3 7 2 1
DELTAP1[ ]	/* DeltaExceptionP1 */
SVTCA[0]	/* SetFreedomAndProjectionVectorToAxis */
DELTAP1[ ]	/* DeltaExceptionP1 */";
};
width = 1233;
},
{
layerId = "226C7162-7035-4DCE-8E35-7C345FD184FF";
shapes = (
{
closed = 1;
nodes = (
(1023,1520,o),
(943,1520,qs),
(677,1520,o),
(347,1239,o),
(347,1018,qs),
(347,897,o),
(494,750,o),
(678,692,qs),
(779,659,ls),
(912,618,o),
(1000,528,o),
(1000,446,qs),
(1000,311,o),
(794,135,o),
(629,135,qs),
(517,135,o),
(316,201,o),
(218,270,q),
(177,61,l),
(277,16,o),
(478,-29,o),
(582,-29,qs),
(869,-29,o),
(1201,246,o),
(1201,481,qs),
(1201,610,o),
(1050,777,o),
(887,827,qs),
(766,866,ls),
(637,906,o),
(539,994,o),
(539,1065,qs),
(539,1192,o),
(747,1356,o),
(912,1356,qs),
(1005,1356,o),
(1179,1296,o),
(1260,1237,q),
(1299,1442,l),
(1204,1480,o)
);
}
);
userData = {
assembly = "NPUSHB[ ]	/* 58 values pushed */
13 12 2 14 11 17 30 31 30 8 9 2 7 10 17 31 31 30 58 10 11 30 31 4 1 21 124 20 113 24 99 17 1 124 0 113 4 99 37 97 17 101 40 30 10 31 11 27 7 1 0 27 18 14 7 18 34 40
SRP0[ ]	/* SetRefPoint0 */
MDRP[10100]	/* MoveDirectRelPt */
MIRP[01100]	/* MoveIndirectRelPt */
MDRP[10100]	/* MoveDirectRelPt */
MIRP[01100]	/* MoveIndirectRelPt */
MDRP[00000]	/* MoveDirectRelPt */
MDRP[00000]	/* MoveDirectRelPt */
SRP1[ ]	/* SetRefPoint1 */
SRP2[ ]	/* SetRefPoint2 */
IP[ ]	/* InterpolatePts */
IP[ ]	/* InterpolatePts */
IP[ ]	/* InterpolatePts */
IP[ ]	/* InterpolatePts */
IUP[1]	/* InterpolateUntPts */
SVTCA[0]	/* SetFreedomAndProjectionVectorToAxis */
SRP0[ ]	/* SetRefPoint0 */
MIRP[00100]	/* MoveIndirectRelPt */
MIRP[10100]	/* MoveIndirectRelPt */
MIRP[01100]	/* MoveIndirectRelPt */
MIRP[10100]	/* MoveIndirectRelPt */
MIRP[01100]	/* MoveIndirectRelPt */
SRP0[ ]	/* SetRefPoint0 */
MIRP[01110]	/* MoveIndirectRelPt */
MIRP[10110]	/* MoveIndirectRelPt */
MIRP[01110]	/* MoveIndirectRelPt */
SRP1[ ]	/* SetRefPoint1 */
SLOOP[ ]	/* SetLoopVariable */
IP[ ]	/* InterpolatePts */
IUP[0]	/* InterpolateUntPts */
MPPEM[ ]	/* MeasurePixelPerEm */
GTEQ[ ]	/* GreaterThanOrEqual */
IF[ ]	/* If */
SPVTL[1]	/* SetPVectorToLine */
SRP0[ ]	/* SetRefPoint0 */
SFVTPV[ ]	/* SetFVectorToPVector */
MIRP[01101]	/* MoveIndirectRelPt */
SRP1[ ]	/* SetRefPoint1 */
SLOOP[ ]	/* SetLoopVariable */
IP[ ]	/* InterpolatePts */
SPVTL[1]	/* SetPVectorToLine */
SRP0[ ]	/* SetRefPoint0 */
SFVTPV[ ]	/* SetFVectorToPVector */
MIRP[01101]	/* MoveIndirectRelPt */
SRP1[ ]	/* SetRefPoint1 */
SLOOP[ ]	/* SetLoopVariable */
IP[ ]	/* InterpolatePts */
EIF[ ]	/* EndIf */
CLEAR[ ]	/* ClearStack */
PUSHB[ ]	/* 3 values pushed */
56 2 1
SVTCA[1]	/* SetFreedomAndProjectionVectorToAxis */
DELTAP1[ ]	/* DeltaExceptionP1 */
NPUSHB[ ]	/* 60 values pushed */
39 0 39 1 39 2 41 19 41 20 41 21 41 22 55 0 55 1 55 2 10 10 0 10 1 10 2 25 0 25 1 25 2 40 0 40 1 40 2 37 19 37 20 37 21 37 22 56 0 56 1 86 19 86 20 86 21 86 22 19
DELTAP1[ ]	/* DeltaExceptionP1 */
SVTCA[0]	/* SetFreedomAndProjectionVectorToAxis */
DELTAP1[ ]	/* DeltaExceptionP1 */";
};
width = 1233;
}
);
note = S;
unicode = 83;
},
{
glyphname = T;
lastChange = "2026-05-17 08:27:02 +0000";
layers = (
{
layerId = m01;
shapes = (
{
closed = 1;
nodes = (
(516,1323,l),
(516,0,l),
(719,0,l),
(719,1323,l),
(1186,1323,l),
(1186,1493,l),
(47,1493,l),
(47,1323,l)
);
}
);
userData = {
assembly = "NPUSHB[ ]	/* 14 values pushed */
6 2 151 0 136 4 1 58 3 30 0 58 5 8
SRP0[ ]	/* SetRefPoint0 */
MDRP[10100]	/* MoveDirectRelPt */
MIRP[01100]	/* MoveIndirectRelPt */
MIRP[11100]	/* MoveIndirectRelPt */
MIRP[01100]	/* MoveIndirectRelPt */
IUP[1]	/* InterpolateUntPts */
SVTCA[0]	/* SetFreedomAndProjectionVectorToAxis */
MDAP[1]	/* MoveDirectAbsPt */
MIRP[10100]	/* MoveIndirectRelPt */
MIRP[01100]	/* MoveIndirectRelPt */
SHP[0]	/* ShiftPointByLastPoint */
IUP[0]	/* InterpolateUntPts */";
};
width = 1233;
},
{
layerId = "226C7162-7035-4DCE-8E35-7C345FD184FF";
shapes = (
{
closed = 1;
nodes = (
(773,1323,l),
(515,0,l),
(719,0,l),
(975,1323,l),
(1444,1323,l),
(1477,1493,l),
(337,1493,l),
(304,1323,l)
);
}
);
userData = {
assembly = "NPUSHB[ ]	/* 30 values pushed */
4 5 5 6 5 3 5 6 6 5 58 6 2 99 0 81 4 0 7 4 5 3 2 6 1 7 6 1 5 8
SRP0[ ]	/* SetRefPoint0 */
MDRP[10100]	/* MoveDirectRelPt */
MIRP[10100]	/* MoveIndirectRelPt */
MDRP[10100]	/* MoveDirectRelPt */
MDRP[00100]	/* MoveDirectRelPt */
SRP1[ ]	/* SetRefPoint1 */
IP[ ]	/* InterpolatePts */
IP[ ]	/* InterpolatePts */
SRP2[ ]	/* SetRefPoint2 */
IP[ ]	/* InterpolatePts */
SRP1[ ]	/* SetRefPoint1 */
IP[ ]	/* InterpolatePts */
IUP[1]	/* InterpolateUntPts */
SVTCA[0]	/* SetFreedomAndProjectionVectorToAxis */
MDAP[1]	/* MoveDirectAbsPt */
MIRP[10100]	/* MoveIndirectRelPt */
MIRP[01100]	/* MoveIndirectRelPt */
SHP[0]	/* ShiftPointByLastPoint */
IUP[0]	/* InterpolateUntPts */
MPPEM[ ]	/* MeasurePixelPerEm */
GTEQ[ ]	/* GreaterThanOrEqual */
IF[ ]	/* If */
SPVTL[1]	/* SetPVectorToLine */
SRP0[ ]	/* SetRefPoint0 */
SFVTCA[1]	/* SetFVectorToAxis */
MIRP[01101]	/* MoveIndirectRelPt */
SPVTL[1]	/* SetPVectorToLine */
SRP0[ ]	/* SetRefPoint0 */
SFVTCA[1]	/* SetFVectorToAxis */
MIRP[01101]	/* MoveIndirectRelPt */
EIF[ ]	/* EndIf */
CLEAR[ ]	/* ClearStack */";
};
width = 1233;
}
);
note = T;
unicode = 84;
},
{
glyphname = U;
lastChange = "2026-05-17 08:27:02 +0000";
layers = (
{
layerId = m01;
shapes = (
{
closed = 1;
nodes = (
(205,150,o),
(274,88,qs),
(341,29,o),
(511,-29,o),
(616,-29,qs),
(722,-29,o),
(892,29,o),
(958,88,qs),
(1028,151,o),
(1085,344,o),
(1085,573,qs),
(1085,1493,l),
(883,1493,l),
(883,573,l),
(883,479,ls),
(883,371,o),
(871,279,o),
(856,254,qs),
(823,195,o),
(703,135,o),
(616,135,qs),
(530,135,o),
(409,195,o),
(377,254,qs),
(362,279,o),
(350,372,o),
(350,481,qs),
(350,1493,l),
(147,1493,l),
(147,573,ls),
(147,347,o)
);
}
);
userData = {
assembly = "NPUSHB[ ]	/* 24 values pushed */
15 3 19 16 0 3 1 9 151 25 153 17 1 136 31 15 30 18 49 2 30 0 48 31
SRP0[ ]	/* SetRefPoint0 */
MIRP[11100]	/* MoveIndirectRelPt */
MIRP[01100]	/* MoveIndirectRelPt */
MIRP[11100]	/* MoveIndirectRelPt */
MIRP[01100]	/* MoveIndirectRelPt */
IUP[1]	/* InterpolateUntPts */
SVTCA[0]	/* SetFreedomAndProjectionVectorToAxis */
SRP0[ ]	/* SetRefPoint0 */
MIRP[00100]	/* MoveIndirectRelPt */
SHP[0]	/* ShiftPointByLastPoint */
MIRP[10100]	/* MoveIndirectRelPt */
MIRP[01100]	/* MoveIndirectRelPt */
SRP1[ ]	/* SetRefPoint1 */
SLOOP[ ]	/* SetLoopVariable */
IP[ ]	/* InterpolatePts */
IP[ ]	/* InterpolatePts */
IP[ ]	/* InterpolatePts */
IUP[0]	/* InterpolateUntPts */";
};
width = 1233;
},
{
layerId = "226C7162-7035-4DCE-8E35-7C345FD184FF";
shapes = (
{
closed = 1;
nodes = (
(224,354,o),
(224,317,qs),
(224,151,o),
(431,-29,o),
(623,-29,qs),
(729,-29,o),
(911,30,o),
(982,86,qs),
(1060,149,o),
(1155,354,o),
(1197,573,qs),
(1375,1493,l),
(1172,1493,l),
(994,573,ls),
(967,436,o),
(922,285,o),
(900,254,qs),
(855,192,o),
(731,135,o),
(642,135,qs),
(532,135,o),
(423,227,o),
(423,319,qs),
(423,378,o),
(453,532,qs),
(459,560,o),
(461,573,qs),
(640,1493,l),
(437,1493,l),
(259,573,ls),
(241,480,o)
);
}
);
userData = {
assembly = "NPUSHB[ ]	/* 75 values pushed */
17 5 18 19 18 8 9 10 11 12 13 14 15 8 7 16 5 19 19 18 15 14 13 12 11 10 9 8 7 6 5 4 12 16 3 5 0 1 0 2 5 1 1 0 58 19 16 3 0 4 1 10 99 25 101 17 1 81 31 0 28 17 16 3 2 1 5 18 19 18 7 7 25 28 31
SRP0[ ]	/* SetRefPoint0 */
MDRP[10100]	/* MoveDirectRelPt */
MIRP[01100]	/* MoveIndirectRelPt */
SRP0[ ]	/* SetRefPoint0 */
MDRP[00000]	/* MoveDirectRelPt */
MDRP[00000]	/* MoveDirectRelPt */
SRP2[ ]	/* SetRefPoint2 */
SLOOP[ ]	/* SetLoopVariable */
IP[ ]	/* InterpolatePts */
SRP2[ ]	/* SetRefPoint2 */
IP[ ]	/* InterpolatePts */
IUP[1]	/* InterpolateUntPts */
SVTCA[0]	/* SetFreedomAndProjectionVectorToAxis */
SRP0[ ]	/* SetRefPoint0 */
MIRP[00100]	/* MoveIndirectRelPt */
SHP[0]	/* ShiftPointByLastPoint */
MIRP[10100]	/* MoveIndirectRelPt */
MIRP[01100]	/* MoveIndirectRelPt */
SRP1[ ]	/* SetRefPoint1 */
SLOOP[ ]	/* SetLoopVariable */
IP[ ]	/* InterpolatePts */
IUP[0]	/* InterpolateUntPts */
MPPEM[ ]	/* MeasurePixelPerEm */
GTEQ[ ]	/* GreaterThanOrEqual */
IF[ ]	/* If */
SPVTL[1]	/* SetPVectorToLine */
SRP0[ ]	/* SetRefPoint0 */
SFVTCA[1]	/* SetFVectorToAxis */
MIRP[01101]	/* MoveIndirectRelPt */
SPVTL[1]	/* SetPVectorToLine */
SRP0[ ]	/* SetRefPoint0 */
SFVTCA[1]	/* SetFVectorToAxis */
MIRP[01101]	/* MoveIndirectRelPt */
SRP1[ ]	/* SetRefPoint1 */
SLOOP[ ]	/* SetLoopVariable */
IP[ ]	/* InterpolatePts */
SPVTL[1]	/* SetPVectorToLine */
SRP0[ ]	/* SetRefPoint0 */
SFVTCA[1]	/* SetFVectorToAxis */
MIRP[01101]	/* MoveIndirectRelPt */
SRP1[ ]	/* SetRefPoint1 */
SLOOP[ ]	/* SetLoopVariable */
IP[ ]	/* InterpolatePts */
SPVTL[1]	/* SetPVectorToLine */
SRP0[ ]	/* SetRefPoint0 */
SFVTCA[1]	/* SetFVectorToAxis */
MIRP[01101]	/* MoveIndirectRelPt */
EIF[ ]	/* EndIf */
CLEAR[ ]	/* ClearStack */";
};
width = 1233;
}
);
note = U;
unicode = 85;
},
{
glyphname = V;
lastChange = "2026-05-17 08:27:02 +0000";
layers = (
{
layerId = m01;
shapes = (
{
closed = 1;
nodes = (
(57,1493,l),
(494,0,l),
(739,0,l),
(1176,1493,l),
(967,1493,l),
(616,170,l),
(266,1493,l)
);
}
);
userData = {
assembly = "NPUSHB[ ]	/* 41 values pushed */
1 37 2 3 2 0 37 6 0 3 3 2 0 37 1 0 4 5 4 6 37 5 5 4 66 0 5 1 180 3 6 4 3 1 0 5 2 47 5 48 7
SRP0[ ]	/* SetRefPoint0 */
MIRP[11100]	/* MoveIndirectRelPt */
MIRP[01100]	/* MoveIndirectRelPt */
SLOOP[ ]	/* SetLoopVariable */
IP[ ]	/* InterpolatePts */
IUP[1]	/* InterpolateUntPts */
SVTCA[0]	/* SetFreedomAndProjectionVectorToAxis */
MDAP[1]	/* MoveDirectAbsPt */
MIRP[01100]	/* MoveIndirectRelPt */
SHP[0]	/* ShiftPointByLastPoint */
IP[ ]	/* InterpolatePts */
IUP[0]	/* InterpolateUntPts */
MPPEM[ ]	/* MeasurePixelPerEm */
GTEQ[ ]	/* GreaterThanOrEqual */
IF[ ]	/* If */
SPVTL[1]	/* SetPVectorToLine */
SRP0[ ]	/* SetRefPoint0 */
SFVTCA[1]	/* SetFVectorToAxis */
MIRP[01101]	/* MoveIndirectRelPt */
SPVTL[1]	/* SetPVectorToLine */
SRP0[ ]	/* SetRefPoint0 */
SFVTL[0]	/* SetFVectorToLine */
MIRP[01101]	/* MoveIndirectRelPt */
SPVTL[1]	/* SetPVectorToLine */
SRP0[ ]	/* SetRefPoint0 */
SFVTL[0]	/* SetFVectorToLine */
MIRP[01101]	/* MoveIndirectRelPt */
SPVTL[1]	/* SetPVectorToLine */
SRP0[ ]	/* SetRefPoint0 */
SFVTCA[1]	/* SetFVectorToAxis */
MIRP[01101]	/* MoveIndirectRelPt */
EIF[ ]	/* EndIf */
CLEAR[ ]	/* ClearStack */";
};
width = 1233;
},
{
layerId = "226C7162-7035-4DCE-8E35-7C345FD184FF";
shapes = (
{
closed = 1;
nodes = (
(347,1493,l),
(494,0,l),
(752,0,l),
(1471,1493,l),
(1256,1493,l),
(658,190,l),
(545,1493,l)
);
}
);
userData = {
assembly = "NPUSHB[ ]	/* 39 values pushed */
1 5 2 3 2 0 5 6 0 3 3 2 0 5 1 0 4 5 4 6 5 5 5 4 58 0 5 1 125 3 6 4 3 1 0 5 2 5 7
SRP0[ ]	/* SetRefPoint0 */
MDRP[10100]	/* MoveDirectRelPt */
MDRP[00100]	/* MoveDirectRelPt */
SLOOP[ ]	/* SetLoopVariable */
IP[ ]	/* InterpolatePts */
IUP[1]	/* InterpolateUntPts */
SVTCA[0]	/* SetFreedomAndProjectionVectorToAxis */
MDAP[1]	/* MoveDirectAbsPt */
MIRP[01100]	/* MoveIndirectRelPt */
SHP[0]	/* ShiftPointByLastPoint */
IP[ ]	/* InterpolatePts */
IUP[0]	/* InterpolateUntPts */
MPPEM[ ]	/* MeasurePixelPerEm */
GTEQ[ ]	/* GreaterThanOrEqual */
IF[ ]	/* If */
SPVTL[1]	/* SetPVectorToLine */
SRP0[ ]	/* SetRefPoint0 */
SFVTCA[1]	/* SetFVectorToAxis */
MIRP[01101]	/* MoveIndirectRelPt */
SPVTL[1]	/* SetPVectorToLine */
SRP0[ ]	/* SetRefPoint0 */
SFVTL[0]	/* SetFVectorToLine */
MIRP[01101]	/* MoveIndirectRelPt */
SPVTL[1]	/* SetPVectorToLine */
SRP0[ ]	/* SetRefPoint0 */
SFVTL[0]	/* SetFVectorToLine */
MIRP[01101]	/* MoveIndirectRelPt */
SPVTL[1]	/* SetPVectorToLine */
SRP0[ ]	/* SetRefPoint0 */
SFVTCA[1]	/* SetFVectorToAxis */
MIRP[01101]	/* MoveIndirectRelPt */
EIF[ ]	/* EndIf */
CLEAR[ ]	/* ClearStack */";
};
width = 1233;
}
);
note = V;
unicode = 86;
},
{
glyphname = W;
lastChange = "2026-05-17 08:27:02 +0000";
layers = (
{
layerId = m01;
shapes = (
{
closed = 1;
nodes = (
(414,0,l),
(616,887,l),
(819,0,l),
(1010,0,l),
(1233,1493,l),
(1036,1493,l),
(893,279,l),
(721,1083,l),
(510,1083,l),
(340,281,l),
(197,1493,l),
(0,1493,l),
(223,0,l)
);
}
);
userData = {
assembly = "NPUSHB[ ]	/* 68 values pushed */
5 6 5 9 10 9 4 10 9 3 10 11 10 2 1 2 11 11 10 6 37 7 8 7 5 37 4 5 8 8 7 2 37 3 2 12 0 12 1 37 0 12 66 10 5 2 3 8 3 6 0 180 11 8 12 11 10 9 8 6 5 4 3 2 1 11 7 0
MDAP[1]	/* MoveDirectAbsPt */
MDRP[01100]	/* MoveDirectRelPt */
SLOOP[ ]	/* SetLoopVariable */
IP[ ]	/* InterpolatePts */
IUP[1]	/* InterpolateUntPts */
SVTCA[0]	/* SetFreedomAndProjectionVectorToAxis */
MDAP[1]	/* MoveDirectAbsPt */
ALIGNRP[ ]	/* AlignRelativePt */
MIRP[11100]	/* MoveIndirectRelPt */
ALIGNRP[ ]	/* AlignRelativePt */
MDRP[00100]	/* MoveDirectRelPt */
SRP1[ ]	/* SetRefPoint1 */
SLOOP[ ]	/* SetLoopVariable */
IP[ ]	/* InterpolatePts */
IUP[0]	/* InterpolateUntPts */
MPPEM[ ]	/* MeasurePixelPerEm */
GTEQ[ ]	/* GreaterThanOrEqual */
IF[ ]	/* If */
SPVTL[1]	/* SetPVectorToLine */
SFVTCA[1]	/* SetFVectorToAxis */
MIRP[01101]	/* MoveIndirectRelPt */
SPVTL[1]	/* SetPVectorToLine */
SRP0[ ]	/* SetRefPoint0 */
SFVTL[0]	/* SetFVectorToLine */
MIRP[01101]	/* MoveIndirectRelPt */
SPVTL[1]	/* SetPVectorToLine */
SRP0[ ]	/* SetRefPoint0 */
SFVTL[0]	/* SetFVectorToLine */
MIRP[01101]	/* MoveIndirectRelPt */
SPVTL[1]	/* SetPVectorToLine */
SRP0[ ]	/* SetRefPoint0 */
SFVTCA[1]	/* SetFVectorToAxis */
MIRP[01101]	/* MoveIndirectRelPt */
SPVTL[1]	/* SetPVectorToLine */
SRP0[ ]	/* SetRefPoint0 */
SFVTL[0]	/* SetFVectorToLine */
MDRP[01001]	/* MoveDirectRelPt */
SPVTL[1]	/* SetPVectorToLine */
SRP0[ ]	/* SetRefPoint0 */
SFVTCA[1]	/* SetFVectorToAxis */
MDRP[01001]	/* MoveDirectRelPt */
SPVTL[1]	/* SetPVectorToLine */
SFVTCA[1]	/* SetFVectorToAxis */
MDRP[01001]	/* MoveDirectRelPt */
SPVTL[1]	/* SetPVectorToLine */
SRP0[ ]	/* SetRefPoint0 */
SFVTL[0]	/* SetFVectorToLine */
MDRP[01001]	/* MoveDirectRelPt */
EIF[ ]	/* EndIf */
CLEAR[ ]	/* ClearStack */
PUSHB[ ]	/* 3 values pushed */
24 9 1
SVTCA[1]	/* SetFreedomAndProjectionVectorToAxis */
DELTAP1[ ]	/* DeltaExceptionP1 */
NPUSHB[ ]	/* 94 values pushed */
31 3 31 4 31 10 47 3 47 4 43 10 63 3 63 4 56 10 90 2 90 5 11 23 11 38 2 42 3 37 4 42 5 40 8 43 9 37 11 38 12 53 2 58 3 53 4 58 5 59 8 58 9 52 11 54 12 84 0 84 1 90 2 88 3 87 4 86 5 91 6 91 7 82 8 87 9 88 11 93 12 103 8 104 12 121 3 118 4 121 9 118 11 35
DELTAP1[ ]	/* DeltaExceptionP1 */
SVTCA[0]	/* SetFreedomAndProjectionVectorToAxis */
DELTAP1[ ]	/* DeltaExceptionP1 */";
};
width = 1233;
},
{
layerId = "226C7162-7035-4DCE-8E35-7C345FD184FF";
shapes = (
{
closed = 1;
nodes = (
(415,0,l),
(786,870,l),
(817,0,l),
(1011,0,l),
(1521,1493,l),
(1323,1493,l),
(946,281,l),
(931,1083,l),
(720,1083,l),
(391,283,l),
(481,1493,l),
(290,1493,l),
(227,0,l)
);
}
);
userData = {
assembly = "NPUSHB[ ]	/* 74 values pushed */
11 27 2 3 2 10 27 9 10 3 3 2 10 27 11 10 4 5 4 9 27 5 5 4 6 4 7 8 7 5 4 4 5 8 8 7 2 4 3 2 12 0 12 1 4 0 12 58 10 5 2 3 8 3 6 0 125 11 8 11 10 9 8 6 5 4 3 2 1 0 11 7 12 13
SRP0[ ]	/* SetRefPoint0 */
MDRP[10100]	/* MoveDirectRelPt */
MDRP[00100]	/* MoveDirectRelPt */
SLOOP[ ]	/* SetLoopVariable */
IP[ ]	/* InterpolatePts */
IUP[1]	/* InterpolateUntPts */
SVTCA[0]	/* SetFreedomAndProjectionVectorToAxis */
MDAP[1]	/* MoveDirectAbsPt */
ALIGNRP[ ]	/* AlignRelativePt */
MIRP[11100]	/* MoveIndirectRelPt */
ALIGNRP[ ]	/* AlignRelativePt */
MDRP[00100]	/* MoveDirectRelPt */
SRP1[ ]	/* SetRefPoint1 */
SLOOP[ ]	/* SetLoopVariable */
IP[ ]	/* InterpolatePts */
IUP[0]	/* InterpolateUntPts */
MPPEM[ ]	/* MeasurePixelPerEm */
GTEQ[ ]	/* GreaterThanOrEqual */
IF[ ]	/* If */
SPVTL[1]	/* SetPVectorToLine */
SFVTCA[1]	/* SetFVectorToAxis */
MIRP[01101]	/* MoveIndirectRelPt */
SPVTL[1]	/* SetPVectorToLine */
SRP0[ ]	/* SetRefPoint0 */
SFVTL[0]	/* SetFVectorToLine */
MIRP[01101]	/* MoveIndirectRelPt */
SPVTL[1]	/* SetPVectorToLine */
SRP0[ ]	/* SetRefPoint0 */
SFVTL[0]	/* SetFVectorToLine */
MIRP[01101]	/* MoveIndirectRelPt */
SPVTL[1]	/* SetPVectorToLine */
SRP0[ ]	/* SetRefPoint0 */
SFVTCA[1]	/* SetFVectorToAxis */
MIRP[01101]	/* MoveIndirectRelPt */
SPVTL[1]	/* SetPVectorToLine */
SRP0[ ]	/* SetRefPoint0 */
SFVTCA[1]	/* SetFVectorToAxis */
MIRP[01101]	/* MoveIndirectRelPt */
SPVTL[1]	/* SetPVectorToLine */
SRP0[ ]	/* SetRefPoint0 */
SFVTL[0]	/* SetFVectorToLine */
MIRP[01101]	/* MoveIndirectRelPt */
SPVTL[1]	/* SetPVectorToLine */
SRP0[ ]	/* SetRefPoint0 */
SFVTL[0]	/* SetFVectorToLine */
MIRP[01101]	/* MoveIndirectRelPt */
SPVTL[1]	/* SetPVectorToLine */
SRP0[ ]	/* SetRefPoint0 */
SFVTCA[1]	/* SetFVectorToAxis */
MIRP[01101]	/* MoveIndirectRelPt */
EIF[ ]	/* EndIf */
CLEAR[ ]	/* ClearStack */
PUSHB[ ]	/* 3 values pushed */
7 11 1
SVTCA[1]	/* SetFreedomAndProjectionVectorToAxis */
DELTAP1[ ]	/* DeltaExceptionP1 */
NPUSHB[ ]	/* 92 values pushed */
15 10 31 10 59 5 117 10 143 10 143 10 159 10 159 10 8 11 9 5 11 27 9 24 10 20 11 41 3 37 8 38 11 56 3 54 4 55 5 51 8 54 11 70 4 70 5 67 8 69 11 90 3 86 5 84 8 85 11 107 3 102 5 99 8 104 10 101 11 122 3 118 4 118 8 121 9 117 11 132 8 137 10 131 11 147 8 153 10 148 11 37
DELTAP1[ ]	/* DeltaExceptionP1 */
SVTCA[0]	/* SetFreedomAndProjectionVectorToAxis */
DELTAP1[ ]	/* DeltaExceptionP1 */";
};
width = 1233;
}
);
note = W;
unicode = 87;
},
{
glyphname = X;
lastChange = "2026-05-17 08:27:02 +0000";
layers = (
{
layerId = m01;
shapes = (
{
closed = 1;
nodes = (
(18,0,l),
(236,0,l),
(631,643,l),
(997,0,l),
(1214,0,l),
(735,791,l),
(1182,1493,l),
(965,1493,l),
(631,930,l),
(303,1493,l),
(86,1493,l),
(518,791,l)
);
}
);
userData = {
assembly = "NPUSHB[ ]	/* 75 values pushed */
9 37 10 11 10 8 37 7 8 11 11 10 8 37 9 8 5 6 5 7 37 6 6 5 3 37 4 5 4 2 37 1 2 5 5 4 2 37 3 2 11 0 11 1 37 0 0 11 66 11 8 5 2 4 3 0 180 9 6 11 8 7 5 2 5 0 4 59 6 47 0 59 10 48 12
SRP0[ ]	/* SetRefPoint0 */
MIRP[11100]	/* MoveIndirectRelPt */
MIRP[00100]	/* MoveIndirectRelPt */
MIRP[11100]	/* MoveIndirectRelPt */
MIRP[00100]	/* MoveIndirectRelPt */
SRP1[ ]	/* SetRefPoint1 */
SLOOP[ ]	/* SetLoopVariable */
IP[ ]	/* InterpolatePts */
IUP[1]	/* InterpolateUntPts */
SVTCA[0]	/* SetFreedomAndProjectionVectorToAxis */
MDAP[1]	/* MoveDirectAbsPt */
ALIGNRP[ ]	/* AlignRelativePt */
MIRP[01100]	/* MoveIndirectRelPt */
SHP[0]	/* ShiftPointByLastPoint */
SLOOP[ ]	/* SetLoopVariable */
IP[ ]	/* InterpolatePts */
IUP[0]	/* InterpolateUntPts */
MPPEM[ ]	/* MeasurePixelPerEm */
GTEQ[ ]	/* GreaterThanOrEqual */
IF[ ]	/* If */
SPVTL[1]	/* SetPVectorToLine */
SRP0[ ]	/* SetRefPoint0 */
SFVTCA[1]	/* SetFVectorToAxis */
MIRP[01101]	/* MoveIndirectRelPt */
SPVTL[1]	/* SetPVectorToLine */
SRP0[ ]	/* SetRefPoint0 */
SFVTL[0]	/* SetFVectorToLine */
MIRP[01101]	/* MoveIndirectRelPt */
SPVTL[1]	/* SetPVectorToLine */
SRP0[ ]	/* SetRefPoint0 */
SFVTL[0]	/* SetFVectorToLine */
MIRP[01101]	/* MoveIndirectRelPt */
SPVTL[1]	/* SetPVectorToLine */
SRP0[ ]	/* SetRefPoint0 */
SFVTCA[1]	/* SetFVectorToAxis */
MIRP[01101]	/* MoveIndirectRelPt */
SPVTL[1]	/* SetPVectorToLine */
SRP0[ ]	/* SetRefPoint0 */
SFVTCA[1]	/* SetFVectorToAxis */
MIRP[01101]	/* MoveIndirectRelPt */
SPVTL[1]	/* SetPVectorToLine */
SRP0[ ]	/* SetRefPoint0 */
SFVTL[0]	/* SetFVectorToLine */
MIRP[01101]	/* MoveIndirectRelPt */
SPVTL[1]	/* SetPVectorToLine */
SRP0[ ]	/* SetRefPoint0 */
SFVTL[0]	/* SetFVectorToLine */
MIRP[01101]	/* MoveIndirectRelPt */
SPVTL[1]	/* SetPVectorToLine */
SRP0[ ]	/* SetRefPoint0 */
SFVTCA[1]	/* SetFVectorToAxis */
MIRP[01101]	/* MoveIndirectRelPt */
EIF[ ]	/* EndIf */
CLEAR[ ]	/* ClearStack */
PUSHB[ ]	/* 3 values pushed */
55 2 1
SVTCA[0]	/* SetFreedomAndProjectionVectorToAxis */
DELTAP1[ ]	/* DeltaExceptionP1 */
NPUSHB[ ]	/* 56 values pushed */
13 5 4 11 24 5 39 1 40 3 41 5 38 11 88 11 120 2 121 5 119 11 11 0 2 0 2 15 8 15 8 20 2 26 8 33 2 37 5 43 8 37 11 53 2 85 2 89 8 88 11 101 2 115 2 16
DELTAP1[ ]	/* DeltaExceptionP1 */
SVTCA[1]	/* SetFreedomAndProjectionVectorToAxis */
DELTAP1[ ]	/* DeltaExceptionP1 */";
};
width = 1233;
},
{
layerId = "226C7162-7035-4DCE-8E35-7C345FD184FF";
shapes = (
{
closed = 1;
nodes = (
(18,0,l),
(249,0,l),
(755,612,l),
(1009,0,l),
(1210,0,l),
(886,774,l),
(1482,1493,l),
(1251,1493,l),
(811,961,l),
(587,1493,l),
(387,1493,l),
(675,797,l)
);
}
);
userData = {
assembly = "NPUSHB[ ]	/* 72 values pushed */
9 5 10 11 10 8 5 7 8 11 11 10 8 5 9 8 5 6 5 7 5 6 6 5 3 5 4 5 4 2 5 1 2 5 5 4 2 5 3 2 11 0 11 1 5 0 0 11 58 11 8 5 2 4 3 0 125 9 6 11 8 7 6 5 2 1 0 8 12 4 10 12
SRP0[ ]	/* SetRefPoint0 */
MDRP[10100]	/* MoveDirectRelPt */
MDRP[01100]	/* MoveDirectRelPt */
SRP1[ ]	/* SetRefPoint1 */
SLOOP[ ]	/* SetLoopVariable */
IP[ ]	/* InterpolatePts */
IUP[1]	/* InterpolateUntPts */
SVTCA[0]	/* SetFreedomAndProjectionVectorToAxis */
MDAP[1]	/* MoveDirectAbsPt */
ALIGNRP[ ]	/* AlignRelativePt */
MIRP[01100]	/* MoveIndirectRelPt */
SHP[0]	/* ShiftPointByLastPoint */
SLOOP[ ]	/* SetLoopVariable */
IP[ ]	/* InterpolatePts */
IUP[0]	/* InterpolateUntPts */
MPPEM[ ]	/* MeasurePixelPerEm */
GTEQ[ ]	/* GreaterThanOrEqual */
IF[ ]	/* If */
SPVTL[1]	/* SetPVectorToLine */
SRP0[ ]	/* SetRefPoint0 */
SFVTCA[1]	/* SetFVectorToAxis */
MIRP[01101]	/* MoveIndirectRelPt */
SPVTL[1]	/* SetPVectorToLine */
SRP0[ ]	/* SetRefPoint0 */
SFVTL[0]	/* SetFVectorToLine */
MIRP[01101]	/* MoveIndirectRelPt */
SPVTL[1]	/* SetPVectorToLine */
SRP0[ ]	/* SetRefPoint0 */
SFVTL[0]	/* SetFVectorToLine */
MIRP[01101]	/* MoveIndirectRelPt */
SPVTL[1]	/* SetPVectorToLine */
SRP0[ ]	/* SetRefPoint0 */
SFVTCA[1]	/* SetFVectorToAxis */
MIRP[01101]	/* MoveIndirectRelPt */
SPVTL[1]	/* SetPVectorToLine */
SRP0[ ]	/* SetRefPoint0 */
SFVTCA[1]	/* SetFVectorToAxis */
MIRP[01101]	/* MoveIndirectRelPt */
SPVTL[1]	/* SetPVectorToLine */
SRP0[ ]	/* SetRefPoint0 */
SFVTL[0]	/* SetFVectorToLine */
MIRP[01101]	/* MoveIndirectRelPt */
SPVTL[1]	/* SetPVectorToLine */
SRP0[ ]	/* SetRefPoint0 */
SFVTL[0]	/* SetFVectorToLine */
MIRP[01101]	/* MoveIndirectRelPt */
SPVTL[1]	/* SetPVectorToLine */
SRP0[ ]	/* SetRefPoint0 */
SFVTCA[1]	/* SetFVectorToAxis */
MIRP[01101]	/* MoveIndirectRelPt */
EIF[ ]	/* EndIf */
CLEAR[ ]	/* ClearStack */";
};
width = 1233;
}
);
note = X;
unicode = 88;
},
{
glyphname = Y;
lastChange = "2026-05-17 08:27:02 +0000";
layers = (
{
layerId = m01;
shapes = (
{
closed = 1;
nodes = (
(514,0,l),
(717,0,l),
(717,670,l),
(1196,1493,l),
(979,1493,l),
(616,834,l),
(252,1493,l),
(37,1493,l),
(514,670,l)
);
}
);
userData = {
assembly = "NPUSHB[ ]	/* 46 values pushed */
3 37 4 5 4 2 37 1 2 5 5 4 2 37 3 2 8 0 8 1 37 0 0 8 66 2 3 0 180 6 2 7 3 5 4 1 7 0 4 60 5 30 0 60 7 9
SRP0[ ]	/* SetRefPoint0 */
MDRP[10100]	/* MoveDirectRelPt */
MIRP[01100]	/* MoveIndirectRelPt */
MIRP[11100]	/* MoveIndirectRelPt */
MIRP[01100]	/* MoveIndirectRelPt */
SRP1[ ]	/* SetRefPoint1 */
SRP2[ ]	/* SetRefPoint2 */
IP[ ]	/* InterpolatePts */
SRP1[ ]	/* SetRefPoint1 */
SRP2[ ]	/* SetRefPoint2 */
IP[ ]	/* InterpolatePts */
SRP1[ ]	/* SetRefPoint1 */
IP[ ]	/* InterpolatePts */
IUP[1]	/* InterpolateUntPts */
SVTCA[0]	/* SetFreedomAndProjectionVectorToAxis */
MDAP[1]	/* MoveDirectAbsPt */
MIRP[01100]	/* MoveIndirectRelPt */
SHP[0]	/* ShiftPointByLastPoint */
IP[ ]	/* InterpolatePts */
IUP[0]	/* InterpolateUntPts */
MPPEM[ ]	/* MeasurePixelPerEm */
GTEQ[ ]	/* GreaterThanOrEqual */
IF[ ]	/* If */
SPVTL[1]	/* SetPVectorToLine */
SRP0[ ]	/* SetRefPoint0 */
SFVTCA[1]	/* SetFVectorToAxis */
MIRP[01101]	/* MoveIndirectRelPt */
SPVTL[1]	/* SetPVectorToLine */
SRP0[ ]	/* SetRefPoint0 */
SFVTL[0]	/* SetFVectorToLine */
MIRP[01101]	/* MoveIndirectRelPt */
SPVTL[1]	/* SetPVectorToLine */
SRP0[ ]	/* SetRefPoint0 */
SFVTL[0]	/* SetFVectorToLine */
MIRP[01101]	/* MoveIndirectRelPt */
SPVTL[1]	/* SetPVectorToLine */
SRP0[ ]	/* SetRefPoint0 */
SFVTCA[1]	/* SetFVectorToAxis */
MIRP[01101]	/* MoveIndirectRelPt */
EIF[ ]	/* EndIf */
CLEAR[ ]	/* ClearStack */";
};
width = 1233;
},
{
layerId = "226C7162-7035-4DCE-8E35-7C345FD184FF";
shapes = (
{
closed = 1;
nodes = (
(509,0,l),
(716,0,l),
(845,670,l),
(1480,1493,l),
(1262,1493,l),
(765,842,l),
(529,1493,l),
(327,1493,l),
(640,670,l)
);
}
);
userData = {
assembly = "NPUSHB[ ]	/* 53 values pushed */
3 5 4 5 4 2 5 1 2 5 5 4 2 5 3 2 8 0 8 1 5 0 0 8 6 5 7 8 7 5 5 4 5 8 8 7 58 2 3 0 125 6 1 7 6 2 8 4 0 8 4 7 9
SRP0[ ]	/* SetRefPoint0 */
MDRP[10100]	/* MoveDirectRelPt */
MDRP[00100]	/* MoveDirectRelPt */
MDRP[00100]	/* MoveDirectRelPt */
MDRP[00100]	/* MoveDirectRelPt */
SRP1[ ]	/* SetRefPoint1 */
SRP2[ ]	/* SetRefPoint2 */
IP[ ]	/* InterpolatePts */
IP[ ]	/* InterpolatePts */
SRP1[ ]	/* SetRefPoint1 */
IP[ ]	/* InterpolatePts */
IUP[1]	/* InterpolateUntPts */
SVTCA[0]	/* SetFreedomAndProjectionVectorToAxis */
MDAP[1]	/* MoveDirectAbsPt */
MIRP[01100]	/* MoveIndirectRelPt */
SHP[0]	/* ShiftPointByLastPoint */
IP[ ]	/* InterpolatePts */
IUP[0]	/* InterpolateUntPts */
MPPEM[ ]	/* MeasurePixelPerEm */
GTEQ[ ]	/* GreaterThanOrEqual */
IF[ ]	/* If */
SPVTL[1]	/* SetPVectorToLine */
SRP0[ ]	/* SetRefPoint0 */
SFVTL[0]	/* SetFVectorToLine */
MIRP[01101]	/* MoveIndirectRelPt */
SPVTL[1]	/* SetPVectorToLine */
SRP0[ ]	/* SetRefPoint0 */
SFVTCA[1]	/* SetFVectorToAxis */
MIRP[01101]	/* MoveIndirectRelPt */
SPVTL[1]	/* SetPVectorToLine */
SRP0[ ]	/* SetRefPoint0 */
SFVTCA[1]	/* SetFVectorToAxis */
MIRP[01101]	/* MoveIndirectRelPt */
SPVTL[1]	/* SetPVectorToLine */
SRP0[ ]	/* SetRefPoint0 */
SFVTL[0]	/* SetFVectorToLine */
MIRP[01101]	/* MoveIndirectRelPt */
SPVTL[1]	/* SetPVectorToLine */
SRP0[ ]	/* SetRefPoint0 */
SFVTL[0]	/* SetFVectorToLine */
MIRP[01101]	/* MoveIndirectRelPt */
SPVTL[1]	/* SetPVectorToLine */
SRP0[ ]	/* SetRefPoint0 */
SFVTCA[1]	/* SetFVectorToAxis */
MIRP[01101]	/* MoveIndirectRelPt */
EIF[ ]	/* EndIf */
CLEAR[ ]	/* ClearStack */";
};
width = 1233;
}
);
note = Y;
unicode = 89;
},
{
glyphname = Z;
lastChange = "2026-05-17 08:27:02 +0000";
layers = (
{
layerId = m01;
shapes = (
{
closed = 1;
nodes = (
(915,1323,l),
(156,154,l),
(156,0,l),
(1169,0,l),
(1169,170,l),
(367,170,l),
(1147,1339,l),
(1147,1493,l),
(178,1493,l),
(178,1323,l)
);
}
);
userData = {
assembly = "NPUSHB[ ]	/* 28 values pushed */
8 37 2 3 2 3 37 7 8 7 66 8 151 0 136 3 151 5 8 3 0 1 4 47 0 6 48 10
SRP0[ ]	/* SetRefPoint0 */
MIRP[11100]	/* MoveIndirectRelPt */
MDRP[00100]	/* MoveDirectRelPt */
MIRP[11100]	/* MoveIndirectRelPt */
MDRP[00100]	/* MoveDirectRelPt */
SRP1[ ]	/* SetRefPoint1 */
IP[ ]	/* InterpolatePts */
IP[ ]	/* InterpolatePts */
IUP[1]	/* InterpolateUntPts */
SVTCA[0]	/* SetFreedomAndProjectionVectorToAxis */
MDAP[1]	/* MoveDirectAbsPt */
MIRP[01100]	/* MoveIndirectRelPt */
MIRP[10100]	/* MoveIndirectRelPt */
MIRP[01100]	/* MoveIndirectRelPt */
IUP[0]	/* InterpolateUntPts */
MPPEM[ ]	/* MeasurePixelPerEm */
GTEQ[ ]	/* GreaterThanOrEqual */
IF[ ]	/* If */
SPVTL[1]	/* SetPVectorToLine */
SRP0[ ]	/* SetRefPoint0 */
SFVTCA[1]	/* SetFVectorToAxis */
MIRP[01101]	/* MoveIndirectRelPt */
SPVTL[1]	/* SetPVectorToLine */
SRP0[ ]	/* SetRefPoint0 */
SFVTCA[1]	/* SetFVectorToAxis */
MIRP[01101]	/* MoveIndirectRelPt */
EIF[ ]	/* EndIf */
CLEAR[ ]	/* ClearStack */
PUSHB[ ]	/* 3 values pushed */
8 8 1
SVTCA[1]	/* SetFreedomAndProjectionVectorToAxis */
DELTAP1[ ]	/* DeltaExceptionP1 */
PUSHB[ ]	/* 3 values pushed */
7 3 1
DELTAP1[ ]	/* DeltaExceptionP1 */";
};
width = 1233;
},
{
layerId = "226C7162-7035-4DCE-8E35-7C345FD184FF";
shapes = (
{
closed = 1;
nodes = (
(1162,1323,l),
(186,154,l),
(157,0,l),
(1169,0,l),
(1203,170,l),
(429,170,l),
(1408,1339,l),
(1437,1493,l),
(468,1493,l),
(435,1323,l)
);
}
);
userData = {
assembly = "NPUSHB[ ]	/* 29 values pushed */
8 5 2 3 2 3 5 7 8 7 58 8 99 0 81 3 99 5 9 8 5 4 3 0 6 10 1 6 10
SRP0[ ]	/* SetRefPoint0 */
MDRP[10100]	/* MoveDirectRelPt */
MDRP[00100]	/* MoveDirectRelPt */
SRP1[ ]	/* SetRefPoint1 */
SLOOP[ ]	/* SetLoopVariable */
IP[ ]	/* InterpolatePts */
IUP[1]	/* InterpolateUntPts */
SVTCA[0]	/* SetFreedomAndProjectionVectorToAxis */
MDAP[1]	/* MoveDirectAbsPt */
MIRP[01100]	/* MoveIndirectRelPt */
MIRP[10100]	/* MoveIndirectRelPt */
MIRP[01100]	/* MoveIndirectRelPt */
IUP[0]	/* InterpolateUntPts */
MPPEM[ ]	/* MeasurePixelPerEm */
GTEQ[ ]	/* GreaterThanOrEqual */
IF[ ]	/* If */
SPVTL[1]	/* SetPVectorToLine */
SRP0[ ]	/* SetRefPoint0 */
SFVTCA[1]	/* SetFVectorToAxis */
MIRP[01101]	/* MoveIndirectRelPt */
SPVTL[1]	/* SetPVectorToLine */
SRP0[ ]	/* SetRefPoint0 */
SFVTCA[1]	/* SetFVectorToAxis */
MIRP[01101]	/* MoveIndirectRelPt */
EIF[ ]	/* EndIf */
CLEAR[ ]	/* ClearStack */";
};
width = 1233;
}
);
note = Z;
unicode = 90;
},
{
glyphname = bracketleft;
lastChange = "2026-05-17 08:27:02 +0000";
layers = (
{
layerId = m01;
shapes = (
{
closed = 1;
nodes = (
(887,-270,l),
(887,-127,l),
(647,-127,l),
(647,1413,l),
(887,1413,l),
(887,1556,l),
(463,1556,l),
(463,-270,l)
);
}
);
userData = {
assembly = "NPUSHB[ ]	/* 15 values pushed */
4 182 6 183 2 182 0 181 8 5 1 3 61 0 8
SRP0[ ]	/* SetRefPoint0 */
MDRP[10100]	/* MoveDirectRelPt */
MIRP[11100]	/* MoveIndirectRelPt */
MDRP[00100]	/* MoveDirectRelPt */
SHP[0]	/* ShiftPointByLastPoint */
IUP[1]	/* InterpolateUntPts */
SVTCA[0]	/* SetFreedomAndProjectionVectorToAxis */
SRP0[ ]	/* SetRefPoint0 */
MIRP[11100]	/* MoveIndirectRelPt */
MIRP[01100]	/* MoveIndirectRelPt */
MIRP[10100]	/* MoveIndirectRelPt */
MIRP[01100]	/* MoveIndirectRelPt */
IUP[0]	/* InterpolateUntPts */";
};
width = 1233;
},
{
layerId = "226C7162-7035-4DCE-8E35-7C345FD184FF";
shapes = (
{
closed = 1;
nodes = (
(837,-270,l),
(864,-127,l),
(624,-127,l),
(923,1413,l),
(1163,1413,l),
(1191,1556,l),
(768,1556,l),
(411,-270,l)
);
}
);
userData = {
assembly = "NPUSHB[ ]	/* 34 values pushed */
4 5 7 0 7 3 5 0 0 7 58 4 126 6 127 2 126 0 103 8 3 5 2 4 7 0 5 6 2 1 0 6 7 8
SRP0[ ]	/* SetRefPoint0 */
MDRP[10100]	/* MoveDirectRelPt */
MDRP[00100]	/* MoveDirectRelPt */
MDRP[10100]	/* MoveDirectRelPt */
MDRP[10100]	/* MoveDirectRelPt */
MDRP[00100]	/* MoveDirectRelPt */
SRP0[ ]	/* SetRefPoint0 */
MDRP[00110]	/* MoveDirectRelPt */
SRP1[ ]	/* SetRefPoint1 */
SRP2[ ]	/* SetRefPoint2 */
IP[ ]	/* InterpolatePts */
SRP1[ ]	/* SetRefPoint1 */
SRP2[ ]	/* SetRefPoint2 */
IP[ ]	/* InterpolatePts */
IUP[1]	/* InterpolateUntPts */
SVTCA[0]	/* SetFreedomAndProjectionVectorToAxis */
SRP0[ ]	/* SetRefPoint0 */
MIRP[11100]	/* MoveIndirectRelPt */
MIRP[01100]	/* MoveIndirectRelPt */
MIRP[10100]	/* MoveIndirectRelPt */
MIRP[01100]	/* MoveIndirectRelPt */
IUP[0]	/* InterpolateUntPts */
MPPEM[ ]	/* MeasurePixelPerEm */
GTEQ[ ]	/* GreaterThanOrEqual */
IF[ ]	/* If */
SPVTL[1]	/* SetPVectorToLine */
SRP0[ ]	/* SetRefPoint0 */
SFVTCA[1]	/* SetFVectorToAxis */
MIRP[01101]	/* MoveIndirectRelPt */
SPVTL[1]	/* SetPVectorToLine */
SRP0[ ]	/* SetRefPoint0 */
SFVTCA[1]	/* SetFVectorToAxis */
MIRP[01101]	/* MoveIndirectRelPt */
EIF[ ]	/* EndIf */
CLEAR[ ]	/* ClearStack */";
};
width = 1233;
}
);
note = bracketleft;
unicode = 91;
},
{
glyphname = backslash;
lastChange = "2026-05-17 08:27:02 +0000";
layers = (
{
layerId = m01;
shapes = (
{
closed = 1;
nodes = (
(927,-270,l),
(1117,-270,l),
(264,1556,l),
(73,1556,l)
);
}
);
userData = {
assembly = "NPUSHB[ ]	/* 11 values pushed */
1 0 136 4 1 30 2 0 30 3 4
SRP0[ ]	/* SetRefPoint0 */
MDRP[10100]	/* MoveDirectRelPt */
MIRP[01100]	/* MoveIndirectRelPt */
MDRP[10100]	/* MoveDirectRelPt */
MIRP[01100]	/* MoveIndirectRelPt */
IUP[1]	/* InterpolateUntPts */
SVTCA[0]	/* SetFreedomAndProjectionVectorToAxis */
SRP0[ ]	/* SetRefPoint0 */
MIRP[10100]	/* MoveIndirectRelPt */
MDRP[00100]	/* MoveDirectRelPt */
IUP[0]	/* InterpolateUntPts */";
};
width = 1233;
},
{
layerId = "226C7162-7035-4DCE-8E35-7C345FD184FF";
shapes = (
{
closed = 1;
nodes = (
(375,1556,l),
(591,-270,l),
(761,-270,l),
(545,1556,l)
);
}
);
userData = {
assembly = "NPUSHB[ ]	/* 21 values pushed */
0 5 1 2 1 3 5 2 1 58 0 2 81 4 3 2 0 1 1 2 4
SRP0[ ]	/* SetRefPoint0 */
MDRP[10100]	/* MoveDirectRelPt */
MDRP[00100]	/* MoveDirectRelPt */
SRP0[ ]	/* SetRefPoint0 */
MDRP[00000]	/* MoveDirectRelPt */
SRP2[ ]	/* SetRefPoint2 */
IP[ ]	/* InterpolatePts */
IUP[1]	/* InterpolateUntPts */
SVTCA[0]	/* SetFreedomAndProjectionVectorToAxis */
SRP0[ ]	/* SetRefPoint0 */
MIRP[10100]	/* MoveIndirectRelPt */
MDRP[00100]	/* MoveDirectRelPt */
IUP[0]	/* InterpolateUntPts */
MPPEM[ ]	/* MeasurePixelPerEm */
GTEQ[ ]	/* GreaterThanOrEqual */
IF[ ]	/* If */
SPVTL[1]	/* SetPVectorToLine */
SFVTCA[1]	/* SetFVectorToAxis */
MIRP[01101]	/* MoveIndirectRelPt */
SPVTL[1]	/* SetPVectorToLine */
SRP0[ ]	/* SetRefPoint0 */
SFVTCA[1]	/* SetFVectorToAxis */
MIRP[01101]	/* MoveIndirectRelPt */
EIF[ ]	/* EndIf */
CLEAR[ ]	/* ClearStack */";
};
width = 1233;
}
);
note = backslash;
unicode = 92;
},
{
glyphname = bracketright;
lastChange = "2026-05-17 08:27:02 +0000";
layers = (
{
layerId = m01;
shapes = (
{
closed = 1;
nodes = (
(346,1413,l),
(586,1413,l),
(586,-127,l),
(346,-127,l),
(346,-270,l),
(770,-270,l),
(770,1556,l),
(346,1556,l)
);
}
);
userData = {
assembly = "NPUSHB[ ]	/* 15 values pushed */
3 182 1 183 5 182 0 181 8 0 61 6 2 4 8
SRP0[ ]	/* SetRefPoint0 */
MDRP[10100]	/* MoveDirectRelPt */
MDRP[00100]	/* MoveDirectRelPt */
SHP[0]	/* ShiftPointByLastPoint */
MIRP[01100]	/* MoveIndirectRelPt */
IUP[1]	/* InterpolateUntPts */
SVTCA[0]	/* SetFreedomAndProjectionVectorToAxis */
SRP0[ ]	/* SetRefPoint0 */
MIRP[11100]	/* MoveIndirectRelPt */
MIRP[01100]	/* MoveIndirectRelPt */
MIRP[10100]	/* MoveIndirectRelPt */
MIRP[01100]	/* MoveIndirectRelPt */
IUP[0]	/* InterpolateUntPts */";
};
width = 1233;
},
{
layerId = "226C7162-7035-4DCE-8E35-7C345FD184FF";
shapes = (
{
closed = 1;
nodes = (
(622,1413,l),
(862,1413,l),
(563,-127,l),
(323,-127,l),
(294,-270,l),
(718,-270,l),
(1075,1556,l),
(651,1556,l)
);
}
);
userData = {
assembly = "NPUSHB[ ]	/* 32 values pushed */
5 5 0 1 0 4 5 1 0 58 3 126 1 127 5 126 0 103 8 4 6 3 5 1 0 7 6 0 1 3 2 8
SRP0[ ]	/* SetRefPoint0 */
MDRP[10100]	/* MoveDirectRelPt */
MDRP[00100]	/* MoveDirectRelPt */
MDRP[10100]	/* MoveDirectRelPt */
MDRP[10100]	/* MoveDirectRelPt */
MDRP[10100]	/* MoveDirectRelPt */
MDRP[00100]	/* MoveDirectRelPt */
SRP1[ ]	/* SetRefPoint1 */
SRP2[ ]	/* SetRefPoint2 */
IP[ ]	/* InterpolatePts */
SRP1[ ]	/* SetRefPoint1 */
SRP2[ ]	/* SetRefPoint2 */
IP[ ]	/* InterpolatePts */
IUP[1]	/* InterpolateUntPts */
SVTCA[0]	/* SetFreedomAndProjectionVectorToAxis */
SRP0[ ]	/* SetRefPoint0 */
MIRP[11100]	/* MoveIndirectRelPt */
MIRP[01100]	/* MoveIndirectRelPt */
MIRP[10100]	/* MoveIndirectRelPt */
MIRP[01100]	/* MoveIndirectRelPt */
IUP[0]	/* InterpolateUntPts */
MPPEM[ ]	/* MeasurePixelPerEm */
GTEQ[ ]	/* GreaterThanOrEqual */
IF[ ]	/* If */
SPVTL[1]	/* SetPVectorToLine */
SFVTCA[1]	/* SetFVectorToAxis */
MIRP[01101]	/* MoveIndirectRelPt */
SPVTL[1]	/* SetPVectorToLine */
SRP0[ ]	/* SetRefPoint0 */
SFVTCA[1]	/* SetFVectorToAxis */
MIRP[01101]	/* MoveIndirectRelPt */
EIF[ ]	/* EndIf */
CLEAR[ ]	/* ClearStack */";
};
width = 1233;
}
);
note = bracketright;
unicode = 93;
},
{
glyphname = asciicircum;
lastChange = "2026-05-17 08:27:02 +0000";
layers = (
{
layerId = m01;
shapes = (
{
closed = 1;
nodes = (
(72,936,l),
(250,936,l),
(616,1331,l),
(983,936,l),
(1161,936,l),
(705,1493,l),
(528,1493,l)
);
}
);
userData = {
assembly = "NPUSHB[ ]	/* 10 values pushed */
3 4 1 0 136 7 3 1 5 7
SRP0[ ]	/* SetRefPoint0 */
MDRP[10100]	/* MoveDirectRelPt */
MDRP[01100]	/* MoveDirectRelPt */
IP[ ]	/* InterpolatePts */
IUP[1]	/* InterpolateUntPts */
SVTCA[0]	/* SetFreedomAndProjectionVectorToAxis */
SRP0[ ]	/* SetRefPoint0 */
MIRP[10100]	/* MoveIndirectRelPt */
MDRP[01100]	/* MoveDirectRelPt */
SHP[0]	/* ShiftPointByLastPoint */
IP[ ]	/* InterpolatePts */
IUP[0]	/* InterpolateUntPts */";
};
width = 1233;
},
{
layerId = "226C7162-7035-4DCE-8E35-7C345FD184FF";
shapes = (
{
closed = 1;
nodes = (
(254,936,l),
(432,936,l),
(798,1331,l),
(1165,936,l),
(1343,936,l),
(887,1493,l),
(710,1493,l)
);
}
);
userData = {
assembly = "NPUSHB[ ]	/* 10 values pushed */
3 4 1 0 81 7 3 1 5 7
SRP0[ ]	/* SetRefPoint0 */
MDRP[10100]	/* MoveDirectRelPt */
MDRP[01100]	/* MoveDirectRelPt */
IP[ ]	/* InterpolatePts */
IUP[1]	/* InterpolateUntPts */
SVTCA[0]	/* SetFreedomAndProjectionVectorToAxis */
SRP0[ ]	/* SetRefPoint0 */
MIRP[10100]	/* MoveIndirectRelPt */
MDRP[01100]	/* MoveDirectRelPt */
SHP[0]	/* ShiftPointByLastPoint */
IP[ ]	/* InterpolatePts */
IUP[0]	/* InterpolateUntPts */";
};
width = 1233;
}
);
note = asciicircum;
unicode = 94;
},
{
glyphname = underscore;
lastChange = "2026-05-17 08:27:02 +0000";
layers = (
{
layerId = m01;
shapes = (
{
closed = 1;
nodes = (
(0,-255,l),
(1233,-255,l),
(1233,-85,l),
(0,-85,l)
);
}
);
userData = {
assembly = "PUSHB[ ]	/* 6 values pushed */
0 184 1 4 0 2
MDAP[1]	/* MoveDirectAbsPt */
MDRP[01100]	/* MoveDirectRelPt */
IUP[1]	/* InterpolateUntPts */
SVTCA[0]	/* SetFreedomAndProjectionVectorToAxis */
SRP0[ ]	/* SetRefPoint0 */
MDRP[10100]	/* MoveDirectRelPt */
MIRP[01100]	/* MoveIndirectRelPt */
IUP[0]	/* InterpolateUntPts */";
};
width = 1233;
},
{
layerId = "226C7162-7035-4DCE-8E35-7C345FD184FF";
shapes = (
{
closed = 1;
nodes = (
(-17,-255,l),
(1216,-255,l),
(1216,-85,l),
(-17,-85,l)
);
}
);
userData = {
assembly = "PUSHB[ ]	/* 6 values pushed */
0 128 1 4 0 2
MDAP[1]	/* MoveDirectAbsPt */
MDRP[01100]	/* MoveDirectRelPt */
IUP[1]	/* InterpolateUntPts */
SVTCA[0]	/* SetFreedomAndProjectionVectorToAxis */
SRP0[ ]	/* SetRefPoint0 */
MDRP[10100]	/* MoveDirectRelPt */
MIRP[01100]	/* MoveIndirectRelPt */
IUP[0]	/* InterpolateUntPts */";
};
width = 1233;
}
);
note = underscore;
unicode = 95;
},
